<?xml version="1.0" encoding="UTF-8" standalone="no"?>
<!DOCTYPE svg PUBLIC "-//W3C//DTD SVG 1.1//EN"
 "http://www.w3.org/Graphics/SVG/1.1/DTD/svg11.dtd">
<!-- Generated by graphviz version 2.43.0 (0)
 -->
<!-- Title: src/app_window.hpp Pages: 1 -->
<svg width="220pt" height="84pt"
 viewBox="0.00 0.00 219.50 84.00" xmlns="http://www.w3.org/2000/svg" xmlns:xlink="http://www.w3.org/1999/xlink">
<g id="graph0" class="graph" transform="scale(1 1) rotate(0) translate(4 80)">
<title>src/app_window.hpp</title>
<polygon fill="white" stroke="transparent" points="-4,4 -4,-80 215.5,-80 215.5,4 -4,4"/>
<!-- Node1 -->
<g id="node1" class="node">
<title>Node1</title>
<g id="a_node1"><a xlink:title="rootウィンドウクラス">
<polygon fill="#bfbfbf" stroke="black" points="56.5,-56.5 56.5,-75.5 171.5,-75.5 171.5,-56.5 56.5,-56.5"/>
<text text-anchor="middle" x="114" y="-63.5" font-family="Helvetica,sans-Serif" font-size="10.00">src/app_window.hpp</text>
</a>
</g>
</g>
<!-- Node2 -->
<g id="node2" class="node">
<title>Node2</title>
<g id="a_node2"><a xlink:href="app__window_8cpp.html" target="_top" xlink:title=" ">
<polygon fill="white" stroke="black" points="0,-0.5 0,-19.5 114,-19.5 114,-0.5 0,-0.5"/>
<text text-anchor="middle" x="57" y="-7.5" font-family="Helvetica,sans-Serif" font-size="10.00">src/app_window.cpp</text>
</a>
</g>
</g>
<!-- Node1&#45;&gt;Node2 -->
<g id="edge1" class="edge">
<title>Node1&#45;&gt;Node2</title>
<path fill="none" stroke="midnightblue" d="M97.38,-49.25C87.27,-39.67 74.72,-27.79 66.32,-19.83"/>
<polygon fill="midnightblue" stroke="midnightblue" points="95.18,-51.99 104.84,-56.32 99.99,-46.91 95.18,-51.99"/>
</g>
<!-- Node3 -->
<g id="node3" class="node">
<title>Node3</title>
<g id="a_node3"><a xlink:href="main_8cpp.html" target="_top" xlink:title=" ">
<polygon fill="white" stroke="black" points="132.5,-0.5 132.5,-19.5 211.5,-19.5 211.5,-0.5 132.5,-0.5"/>
<text text-anchor="middle" x="172" y="-7.5" font-family="Helvetica,sans-Serif" font-size="10.00">src/main.cpp</text>
</a>
</g>
</g>
<!-- Node1&#45;&gt;Node3 -->
<g id="edge2" class="edge">
<title>Node1&#45;&gt;Node3</title>
<path fill="none" stroke="midnightblue" d="M130.91,-49.25C141.2,-39.67 153.97,-27.79 162.51,-19.83"/>
<polygon fill="midnightblue" stroke="midnightblue" points="128.25,-46.95 123.32,-56.32 133.02,-52.07 128.25,-46.95"/>
</g>
</g>
</svg>
