<?xml version="1.0" encoding="UTF-8" standalone="no"?>
<!DOCTYPE svg PUBLIC "-//W3C//DTD SVG 1.1//EN"
 "http://www.w3.org/Graphics/SVG/1.1/DTD/svg11.dtd">
<!-- Generated by graphviz version 2.43.0 (0)
 -->
<!-- Title: src/app_window.hpp Pages: 1 -->
<!--zoomable 263 -->
<svg id="main" version="1.1" xmlns="http://www.w3.org/2000/svg" xmlns:xlink="http://www.w3.org/1999/xlink" xml:space="preserve" onload="init(evt)">
<style type="text/css"><![CDATA[
.edge:hover path { stroke: red; }
.edge:hover polygon { stroke: red; fill: red; }
]]></style>
<script type="text/javascript"><![CDATA[
var edges = document.getElementsByTagName('g');
if (edges && edges.length) {
  for (var i=0;i<edges.length;i++) {
    if (edges[i].id.substr(0,4)=='edge') {
      edges[i].setAttribute('class','edge');
    }
  }
}
]]></script>
        <defs>
                <circle id="rim" cx="0" cy="0" r="7"/>
                <circle id="rim2" cx="0" cy="0" r="3.5"/>
                <g id="zoomPlus">
                        <use xlink:href="#rim" fill="#404040">
                                <set attributeName="fill" to="#808080" begin="zoomplus.mouseover" end="zoomplus.mouseout"/>
                        </use>
                        <path d="M-4,0h8M0,-4v8" fill="none" stroke="white" stroke-width="1.5" pointer-events="none"/>
                </g>
                <g id="zoomMin">
                        <use xlink:href="#rim" fill="#404040">
                                <set attributeName="fill" to="#808080" begin="zoomminus.mouseover" end="zoomminus.mouseout"/>
                        </use>
                        <path d="M-4,0h8" fill="none" stroke="white" stroke-width="1.5" pointer-events="none"/>
                </g>
                <g id="dirArrow">
                        <path fill="none" stroke="white" stroke-width="1.5" d="M0,-3.0v7 M-2.5,-0.5L0,-3.0L2.5,-0.5"/>
                </g>
               <g id="resetDef">
                       <use xlink:href="#rim2" fill="#404040">
                               <set attributeName="fill" to="#808080" begin="reset.mouseover" end="reset.mouseout"/>
                       </use>
               </g>
        </defs>

<script type="text/javascript">
var viewWidth = 1340;
var viewHeight = 263;
var sectionId = 'dynsection-0';
</script>
<script xlink:href="svgpan.js"/>
<svg id="graph" class="graph">
<g id="viewport">
<title>src/app_window.hpp</title>
<polygon fill="white" stroke="transparent" points="-4,4 -4,-259 1336.41,-259 1336.41,4 -4,4"/>
<!-- Node1 -->
<g id="node1" class="node">
<title>Node1</title>
<g id="a_node1"><a xlink:title="rootウィンドウクラス">
<polygon fill="#bfbfbf" stroke="black" points="676.41,-235.5 676.41,-254.5 791.41,-254.5 791.41,-235.5 676.41,-235.5"/>
<text text-anchor="middle" x="733.91" y="-242.5" font-family="Helvetica,sans-Serif" font-size="10.00">src/app_window.hpp</text>
</a>
</g>
</g>
<!-- Node2 -->
<g id="node2" class="node">
<title>Node2</title>
<g id="a_node2"><a xlink:href="config_8hpp.html" target="_top" xlink:title="設定値管理ファイル">
<polygon fill="white" stroke="black" points="76.41,-62 76.41,-81 143.41,-81 143.41,-62 76.41,-62"/>
<text text-anchor="middle" x="109.91" y="-69" font-family="Helvetica,sans-Serif" font-size="10.00">config.hpp</text>
</a>
</g>
</g>
<!-- Node1&#45;&gt;Node2 -->
<g id="edge1" class="edge">
<title>Node1&#45;&gt;Node2</title>
<path fill="none" stroke="midnightblue" d="M676.2,-240.46C511.43,-229.77 47.92,-195.23 5.91,-143 -15.73,-116.08 29.19,-95.49 66.61,-83.7"/>
<polygon fill="midnightblue" stroke="midnightblue" points="67.84,-86.98 76.41,-80.75 65.83,-80.28 67.84,-86.98"/>
</g>
<!-- Node5 -->
<g id="node5" class="node">
<title>Node5</title>
<g id="a_node5"><a xlink:href="home__box_8hpp.html" target="_top" xlink:title="home画面のルートにあたるGtk::Boxの派生クラス">
<polygon fill="white" stroke="black" points="269.41,-179.5 269.41,-198.5 358.41,-198.5 358.41,-179.5 269.41,-179.5"/>
<text text-anchor="middle" x="313.91" y="-186.5" font-family="Helvetica,sans-Serif" font-size="10.00">home_box.hpp</text>
</a>
</g>
</g>
<!-- Node1&#45;&gt;Node5 -->
<g id="edge4" class="edge">
<title>Node1&#45;&gt;Node5</title>
<path fill="none" stroke="midnightblue" d="M676.39,-236.6C595.33,-226.18 448.51,-207.31 368.87,-197.07"/>
<polygon fill="midnightblue" stroke="midnightblue" points="368.92,-193.54 358.56,-195.74 368.03,-200.49 368.92,-193.54"/>
</g>
<!-- Node13 -->
<g id="node13" class="node">
<title>Node13</title>
<g id="a_node13"><a xlink:href="quiz__box_8hpp.html" target="_top" xlink:title="quiz画面のルートにあたるGtk::Boxの派生クラス">
<polygon fill="white" stroke="black" points="641.41,-179.5 641.41,-198.5 722.41,-198.5 722.41,-179.5 641.41,-179.5"/>
<text text-anchor="middle" x="681.91" y="-186.5" font-family="Helvetica,sans-Serif" font-size="10.00">quiz_box.hpp</text>
</a>
</g>
</g>
<!-- Node1&#45;&gt;Node13 -->
<g id="edge13" class="edge">
<title>Node1&#45;&gt;Node13</title>
<path fill="none" stroke="midnightblue" d="M725.33,-235.08C717.75,-227.22 706.53,-215.57 697.4,-206.08"/>
<polygon fill="midnightblue" stroke="midnightblue" points="699.8,-203.53 690.34,-198.75 694.75,-208.38 699.8,-203.53"/>
</g>
<!-- Node23 -->
<g id="node23" class="node">
<title>Node23</title>
<g id="a_node23"><a xlink:title=" ">
<polygon fill="white" stroke="#bfbfbf" points="740.91,-179.5 740.91,-198.5 830.91,-198.5 830.91,-179.5 740.91,-179.5"/>
<text text-anchor="middle" x="785.91" y="-186.5" font-family="Helvetica,sans-Serif" font-size="10.00">gtkmm/stack.h</text>
</a>
</g>
</g>
<!-- Node1&#45;&gt;Node23 -->
<g id="edge30" class="edge">
<title>Node1&#45;&gt;Node23</title>
<path fill="none" stroke="midnightblue" d="M742.5,-235.08C750.07,-227.22 761.29,-215.57 770.43,-206.08"/>
<polygon fill="midnightblue" stroke="midnightblue" points="773.07,-208.38 777.48,-198.75 768.03,-203.53 773.07,-208.38"/>
</g>
<!-- Node24 -->
<g id="node24" class="node">
<title>Node24</title>
<g id="a_node24"><a xlink:title=" ">
<polygon fill="white" stroke="#bfbfbf" points="849.41,-179.5 849.41,-198.5 968.41,-198.5 968.41,-179.5 849.41,-179.5"/>
<text text-anchor="middle" x="908.91" y="-186.5" font-family="Helvetica,sans-Serif" font-size="10.00">gtkmm/cssprovider.h</text>
</a>
</g>
</g>
<!-- Node1&#45;&gt;Node24 -->
<g id="edge31" class="edge">
<title>Node1&#45;&gt;Node24</title>
<path fill="none" stroke="midnightblue" d="M761.64,-235.44C791.34,-226.28 838.63,-211.69 871.58,-201.52"/>
<polygon fill="midnightblue" stroke="midnightblue" points="872.79,-204.81 881.31,-198.52 870.72,-198.12 872.79,-204.81"/>
</g>
<!-- Node25 -->
<g id="node25" class="node">
<title>Node25</title>
<g id="a_node25"><a xlink:title=" ">
<polygon fill="white" stroke="#bfbfbf" points="986.91,-179.5 986.91,-198.5 1108.91,-198.5 1108.91,-179.5 986.91,-179.5"/>
<text text-anchor="middle" x="1047.91" y="-186.5" font-family="Helvetica,sans-Serif" font-size="10.00">gtkmm/aboutdialog.h</text>
</a>
</g>
</g>
<!-- Node1&#45;&gt;Node25 -->
<g id="edge32" class="edge">
<title>Node1&#45;&gt;Node25</title>
<path fill="none" stroke="midnightblue" d="M783.67,-235.44C839.25,-225.89 929.18,-210.42 988.43,-200.23"/>
<polygon fill="midnightblue" stroke="midnightblue" points="989.13,-203.66 998.39,-198.52 987.94,-196.76 989.13,-203.66"/>
</g>
<!-- Node3 -->
<g id="node3" class="node">
<title>Node3</title>
<g id="a_node3"><a xlink:title=" ">
<polygon fill="white" stroke="#bfbfbf" points="105.91,-0.5 105.91,-19.5 205.91,-19.5 205.91,-0.5 105.91,-0.5"/>
<text text-anchor="middle" x="155.91" y="-7.5" font-family="Helvetica,sans-Serif" font-size="10.00">glibmm/ustring.h</text>
</a>
</g>
</g>
<!-- Node2&#45;&gt;Node3 -->
<g id="edge2" class="edge">
<title>Node2&#45;&gt;Node3</title>
<path fill="none" stroke="midnightblue" d="M116.5,-61.98C123.4,-53.05 134.41,-38.81 143.05,-27.64"/>
<polygon fill="midnightblue" stroke="midnightblue" points="145.99,-29.56 149.33,-19.51 140.45,-25.28 145.99,-29.56"/>
</g>
<!-- Node4 -->
<g id="node4" class="node">
<title>Node4</title>
<g id="a_node4"><a xlink:title=" ">
<polygon fill="white" stroke="#bfbfbf" points="40.41,-0.5 40.41,-19.5 87.41,-19.5 87.41,-0.5 40.41,-0.5"/>
<text text-anchor="middle" x="63.91" y="-7.5" font-family="Helvetica,sans-Serif" font-size="10.00">vector</text>
</a>
</g>
</g>
<!-- Node2&#45;&gt;Node4 -->
<g id="edge3" class="edge">
<title>Node2&#45;&gt;Node4</title>
<path fill="none" stroke="midnightblue" d="M103.32,-61.98C96.42,-53.05 85.41,-38.81 76.78,-27.64"/>
<polygon fill="midnightblue" stroke="midnightblue" points="79.38,-25.28 70.49,-19.51 73.84,-29.56 79.38,-25.28"/>
</g>
<!-- Node5&#45;&gt;Node2 -->
<g id="edge5" class="edge">
<title>Node5&#45;&gt;Node2</title>
<path fill="none" stroke="midnightblue" d="M269.24,-188.09C194.04,-187.17 47.19,-180.5 14.91,-143 -6.52,-118.1 35.92,-96.79 70.78,-84.31"/>
<polygon fill="midnightblue" stroke="midnightblue" points="72.03,-87.58 80.36,-81.03 69.76,-80.96 72.03,-87.58"/>
</g>
<!-- Node6 -->
<g id="node6" class="node">
<title>Node6</title>
<g id="a_node6"><a xlink:href="option__key_8hpp.html" target="_top" xlink:title="Home画面のオプションのチェックボックス識別用">
<polygon fill="white" stroke="black" points="470.41,-62 470.41,-81 559.41,-81 559.41,-62 470.41,-62"/>
<text text-anchor="middle" x="514.91" y="-69" font-family="Helvetica,sans-Serif" font-size="10.00">option_key.hpp</text>
</a>
</g>
</g>
<!-- Node5&#45;&gt;Node6 -->
<g id="edge6" class="edge">
<title>Node5&#45;&gt;Node6</title>
<path fill="none" stroke="midnightblue" d="M308.08,-179.42C299.72,-165.94 286.72,-139.65 299.91,-123 319.57,-98.19 403.28,-84.38 460.26,-77.7"/>
<polygon fill="midnightblue" stroke="midnightblue" points="460.67,-81.17 470.22,-76.57 459.89,-74.22 460.67,-81.17"/>
</g>
<!-- Node7 -->
<g id="node7" class="node">
<title>Node7</title>
<g id="a_node7"><a xlink:title=" ">
<polygon fill="white" stroke="#bfbfbf" points="428.41,-123.5 428.41,-142.5 567.41,-142.5 567.41,-123.5 428.41,-123.5"/>
<text text-anchor="middle" x="497.91" y="-130.5" font-family="Helvetica,sans-Serif" font-size="10.00">gtkmm/scrolledwindow.h</text>
</a>
</g>
</g>
<!-- Node5&#45;&gt;Node7 -->
<g id="edge7" class="edge">
<title>Node5&#45;&gt;Node7</title>
<path fill="none" stroke="midnightblue" d="M343.07,-179.44C374.43,-170.24 424.44,-155.56 459.11,-145.39"/>
<polygon fill="midnightblue" stroke="midnightblue" points="460.28,-148.69 468.89,-142.52 458.31,-141.97 460.28,-148.69"/>
</g>
<!-- Node8 -->
<g id="node8" class="node">
<title>Node8</title>
<g id="a_node8"><a xlink:title=" ">
<polygon fill="white" stroke="#bfbfbf" points="23.91,-123.5 23.91,-142.5 105.91,-142.5 105.91,-123.5 23.91,-123.5"/>
<text text-anchor="middle" x="64.91" y="-130.5" font-family="Helvetica,sans-Serif" font-size="10.00">gtkmm/box.h</text>
</a>
</g>
</g>
<!-- Node5&#45;&gt;Node8 -->
<g id="edge8" class="edge">
<title>Node5&#45;&gt;Node8</title>
<path fill="none" stroke="midnightblue" d="M274.46,-179.44C231.02,-170.02 161.13,-154.87 114.14,-144.68"/>
<polygon fill="midnightblue" stroke="midnightblue" points="114.7,-141.22 104.18,-142.52 113.21,-148.06 114.7,-141.22"/>
</g>
<!-- Node9 -->
<g id="node9" class="node">
<title>Node9</title>
<g id="a_node9"><a xlink:title=" ">
<polygon fill="white" stroke="#bfbfbf" points="585.91,-123.5 585.91,-142.5 695.91,-142.5 695.91,-123.5 585.91,-123.5"/>
<text text-anchor="middle" x="640.91" y="-130.5" font-family="Helvetica,sans-Serif" font-size="10.00">gtkmm/separator.h</text>
</a>
</g>
</g>
<!-- Node5&#45;&gt;Node9 -->
<g id="edge9" class="edge">
<title>Node5&#45;&gt;Node9</title>
<path fill="none" stroke="midnightblue" d="M358.69,-180.6C415.89,-171.16 515.15,-154.77 579.41,-144.16"/>
<polygon fill="midnightblue" stroke="midnightblue" points="580.11,-147.59 589.41,-142.51 578.97,-140.68 580.11,-147.59"/>
</g>
<!-- Node10 -->
<g id="node10" class="node">
<title>Node10</title>
<g id="a_node10"><a xlink:title=" ">
<polygon fill="white" stroke="#bfbfbf" points="123.91,-123.5 123.91,-142.5 247.91,-142.5 247.91,-123.5 123.91,-123.5"/>
<text text-anchor="middle" x="185.91" y="-130.5" font-family="Helvetica,sans-Serif" font-size="10.00">gtkmm/checkbutton.h</text>
</a>
</g>
</g>
<!-- Node5&#45;&gt;Node10 -->
<g id="edge10" class="edge">
<title>Node5&#45;&gt;Node10</title>
<path fill="none" stroke="midnightblue" d="M293.63,-179.44C272.56,-170.56 239.4,-156.56 215.43,-146.45"/>
<polygon fill="midnightblue" stroke="midnightblue" points="216.67,-143.18 206.1,-142.52 213.95,-149.63 216.67,-143.18"/>
</g>
<!-- Node11 -->
<g id="node11" class="node">
<title>Node11</title>
<g id="a_node11"><a xlink:title=" ">
<polygon fill="white" stroke="#bfbfbf" points="731.91,-62 731.91,-81 869.91,-81 869.91,-62 731.91,-62"/>
<text text-anchor="middle" x="800.91" y="-69" font-family="Helvetica,sans-Serif" font-size="10.00">gtkmm/messagedialog.h</text>
</a>
</g>
</g>
<!-- Node5&#45;&gt;Node11 -->
<g id="edge11" class="edge">
<title>Node5&#45;&gt;Node11</title>
<path fill="none" stroke="midnightblue" d="M313.64,-179.23C313.71,-164.99 316.14,-137.04 332.91,-123 347.59,-110.71 591.63,-89.35 721.32,-78.78"/>
<polygon fill="midnightblue" stroke="midnightblue" points="721.91,-82.25 731.6,-77.95 721.35,-75.27 721.91,-82.25"/>
</g>
<!-- Node12 -->
<g id="node12" class="node">
<title>Node12</title>
<g id="a_node12"><a xlink:title=" ">
<polygon fill="white" stroke="#bfbfbf" points="341.91,-123.5 341.91,-142.5 409.91,-142.5 409.91,-123.5 341.91,-123.5"/>
<text text-anchor="middle" x="375.91" y="-130.5" font-family="Helvetica,sans-Serif" font-size="10.00">filesystem</text>
</a>
</g>
</g>
<!-- Node5&#45;&gt;Node12 -->
<g id="edge12" class="edge">
<title>Node5&#45;&gt;Node12</title>
<path fill="none" stroke="midnightblue" d="M323.87,-179.32C333.04,-171.34 346.85,-159.31 357.94,-149.65"/>
<polygon fill="midnightblue" stroke="midnightblue" points="360.53,-152.04 365.77,-142.83 355.93,-146.76 360.53,-152.04"/>
</g>
<!-- Node13&#45;&gt;Node2 -->
<g id="edge14" class="edge">
<title>Node13&#45;&gt;Node2</title>
<path fill="none" stroke="midnightblue" d="M689.88,-179.32C701.41,-165.7 719.81,-139.22 704.91,-123 686.28,-102.72 288.63,-81.31 154.01,-74.62"/>
<polygon fill="midnightblue" stroke="midnightblue" points="153.82,-71.11 143.66,-74.11 153.48,-78.1 153.82,-71.11"/>
</g>
<!-- Node13&#45;&gt;Node7 -->
<g id="edge27" class="edge">
<title>Node13&#45;&gt;Node7</title>
<path fill="none" stroke="midnightblue" d="M652.76,-179.44C621.4,-170.24 571.38,-155.56 536.72,-145.39"/>
<polygon fill="midnightblue" stroke="midnightblue" points="537.51,-141.97 526.93,-142.52 535.54,-148.69 537.51,-141.97"/>
</g>
<!-- Node13&#45;&gt;Node9 -->
<g id="edge24" class="edge">
<title>Node13&#45;&gt;Node9</title>
<path fill="none" stroke="midnightblue" d="M675.14,-179.08C669.35,-171.46 660.85,-160.26 653.77,-150.94"/>
<polygon fill="midnightblue" stroke="midnightblue" points="656.39,-148.6 647.56,-142.75 650.82,-152.83 656.39,-148.6"/>
</g>
<!-- Node13&#45;&gt;Node12 -->
<g id="edge29" class="edge">
<title>Node13&#45;&gt;Node12</title>
<path fill="none" stroke="midnightblue" d="M641,-181.38C589.38,-172.94 497.93,-157.67 419.91,-143 419.81,-142.98 419.71,-142.96 419.61,-142.94"/>
<polygon fill="midnightblue" stroke="midnightblue" points="420.48,-139.55 410,-141.08 419.15,-146.42 420.48,-139.55"/>
</g>
<!-- Node14 -->
<g id="node14" class="node">
<title>Node14</title>
<g id="a_node14"><a xlink:href="quiz__set_8hpp.html" target="_top" xlink:title="クイズセットと統計情報の管理">
<polygon fill="white" stroke="black" points="1117.91,-123.5 1117.91,-142.5 1195.91,-142.5 1195.91,-123.5 1117.91,-123.5"/>
<text text-anchor="middle" x="1156.91" y="-130.5" font-family="Helvetica,sans-Serif" font-size="10.00">quiz_set.hpp</text>
</a>
</g>
</g>
<!-- Node13&#45;&gt;Node14 -->
<g id="edge15" class="edge">
<title>Node13&#45;&gt;Node14</title>
<path fill="none" stroke="midnightblue" d="M722.53,-180.4C725.7,-179.89 728.85,-179.42 731.91,-179 895.4,-156.52 940.5,-166.14 1107.54,-143.07"/>
<polygon fill="midnightblue" stroke="midnightblue" points="1108.25,-146.51 1117.67,-141.66 1107.28,-139.58 1108.25,-146.51"/>
</g>
<!-- Node20 -->
<g id="node20" class="node">
<title>Node20</title>
<g id="a_node20"><a xlink:title=" ">
<polygon fill="white" stroke="#bfbfbf" points="751.91,-123.5 751.91,-142.5 845.91,-142.5 845.91,-123.5 751.91,-123.5"/>
<text text-anchor="middle" x="798.91" y="-130.5" font-family="Helvetica,sans-Serif" font-size="10.00">gtkmm/paned.h</text>
</a>
</g>
</g>
<!-- Node13&#45;&gt;Node20 -->
<g id="edge25" class="edge">
<title>Node13&#45;&gt;Node20</title>
<path fill="none" stroke="midnightblue" d="M700.45,-179.44C719.53,-170.64 749.49,-156.81 771.35,-146.72"/>
<polygon fill="midnightblue" stroke="midnightblue" points="772.85,-149.88 780.46,-142.52 769.91,-143.53 772.85,-149.88"/>
</g>
<!-- Node21 -->
<g id="node21" class="node">
<title>Node21</title>
<g id="a_node21"><a xlink:title=" ">
<polygon fill="white" stroke="#bfbfbf" points="863.91,-123.5 863.91,-142.5 973.91,-142.5 973.91,-123.5 863.91,-123.5"/>
<text text-anchor="middle" x="918.91" y="-130.5" font-family="Helvetica,sans-Serif" font-size="10.00">gtkmm/notebook.h</text>
</a>
</g>
</g>
<!-- Node13&#45;&gt;Node21 -->
<g id="edge26" class="edge">
<title>Node13&#45;&gt;Node21</title>
<path fill="none" stroke="midnightblue" d="M719.47,-179.44C760.72,-170.04 827.06,-154.93 871.78,-144.74"/>
<polygon fill="midnightblue" stroke="midnightblue" points="872.56,-148.15 881.53,-142.52 871.01,-141.33 872.56,-148.15"/>
</g>
<!-- Node22 -->
<g id="node22" class="node">
<title>Node22</title>
<g id="a_node22"><a xlink:title=" ">
<polygon fill="white" stroke="#bfbfbf" points="992.41,-123.5 992.41,-142.5 1099.41,-142.5 1099.41,-123.5 992.41,-123.5"/>
<text text-anchor="middle" x="1045.91" y="-130.5" font-family="Helvetica,sans-Serif" font-size="10.00">webkit2/webkit2.h</text>
</a>
</g>
</g>
<!-- Node13&#45;&gt;Node22 -->
<g id="edge28" class="edge">
<title>Node13&#45;&gt;Node22</title>
<path fill="none" stroke="midnightblue" d="M722.55,-180.56C725.72,-180.02 728.86,-179.49 731.91,-179 738.05,-178.01 892.11,-155.98 982.11,-143.11"/>
<polygon fill="midnightblue" stroke="midnightblue" points="982.81,-146.55 992.22,-141.67 981.82,-139.62 982.81,-146.55"/>
</g>
<!-- Node14&#45;&gt;Node2 -->
<g id="edge16" class="edge">
<title>Node14&#45;&gt;Node2</title>
<path fill="none" stroke="midnightblue" d="M1117.69,-124.2C1114.72,-123.75 1111.77,-123.34 1108.91,-123 1013.33,-111.68 334.01,-82.09 153.74,-74.37"/>
<polygon fill="midnightblue" stroke="midnightblue" points="153.71,-70.86 143.57,-73.93 153.41,-77.86 153.71,-70.86"/>
</g>
<!-- Node14&#45;&gt;Node6 -->
<g id="edge17" class="edge">
<title>Node14&#45;&gt;Node6</title>
<path fill="none" stroke="midnightblue" d="M1117.67,-124.31C1114.71,-123.83 1111.77,-123.39 1108.91,-123 1005.55,-108.95 696.66,-85.72 570.01,-76.47"/>
<polygon fill="midnightblue" stroke="midnightblue" points="570,-72.96 559.77,-75.73 569.49,-79.94 570,-72.96"/>
</g>
<!-- Node14&#45;&gt;Node11 -->
<g id="edge21" class="edge">
<title>Node14&#45;&gt;Node11</title>
<path fill="none" stroke="midnightblue" d="M1117.89,-124.61C1114.86,-124.05 1111.83,-123.51 1108.91,-123 1024.87,-108.23 927.67,-92.52 865.3,-82.62"/>
<polygon fill="midnightblue" stroke="midnightblue" points="865.65,-79.13 855.22,-81.02 864.55,-86.04 865.65,-79.13"/>
</g>
<!-- Node15 -->
<g id="node15" class="node">
<title>Node15</title>
<g id="a_node15"><a xlink:href="quiz__data_8hpp.html" target="_top" xlink:title="クイズデータ">
<polygon fill="white" stroke="black" points="1238.41,-62 1238.41,-81 1323.41,-81 1323.41,-62 1238.41,-62"/>
<text text-anchor="middle" x="1280.91" y="-69" font-family="Helvetica,sans-Serif" font-size="10.00">quiz_data.hpp</text>
</a>
</g>
</g>
<!-- Node14&#45;&gt;Node15 -->
<g id="edge18" class="edge">
<title>Node14&#45;&gt;Node15</title>
<path fill="none" stroke="midnightblue" d="M1174.68,-123.48C1195.4,-113.53 1229.86,-96.99 1253.9,-85.46"/>
<polygon fill="midnightblue" stroke="midnightblue" points="1255.68,-88.49 1263.18,-81.01 1252.65,-82.18 1255.68,-88.49"/>
</g>
<!-- Node17 -->
<g id="node17" class="node">
<title>Node17</title>
<g id="a_node17"><a xlink:title=" ">
<polygon fill="white" stroke="#bfbfbf" points="965.41,-56.5 965.41,-86.5 1074.41,-86.5 1074.41,-56.5 965.41,-56.5"/>
<text text-anchor="start" x="973.41" y="-74.5" font-family="Helvetica,sans-Serif" font-size="10.00">../library/nlohmann</text>
<text text-anchor="middle" x="1019.91" y="-63.5" font-family="Helvetica,sans-Serif" font-size="10.00">/json.hpp</text>
</a>
</g>
</g>
<!-- Node14&#45;&gt;Node17 -->
<g id="edge20" class="edge">
<title>Node14&#45;&gt;Node17</title>
<path fill="none" stroke="midnightblue" d="M1137.28,-123.48C1117.6,-114.93 1086.69,-101.5 1061.53,-90.57"/>
<polygon fill="midnightblue" stroke="midnightblue" points="1062.77,-87.3 1052.2,-86.52 1059.98,-93.72 1062.77,-87.3"/>
</g>
<!-- Node18 -->
<g id="node18" class="node">
<title>Node18</title>
<g id="a_node18"><a xlink:title=" ">
<polygon fill="white" stroke="#bfbfbf" points="1092.41,-62 1092.41,-81 1147.41,-81 1147.41,-62 1092.41,-62"/>
<text text-anchor="middle" x="1119.91" y="-69" font-family="Helvetica,sans-Serif" font-size="10.00">fstream</text>
</a>
</g>
</g>
<!-- Node14&#45;&gt;Node18 -->
<g id="edge22" class="edge">
<title>Node14&#45;&gt;Node18</title>
<path fill="none" stroke="midnightblue" d="M1151.61,-123.48C1146.17,-114.73 1137.55,-100.87 1130.68,-89.81"/>
<polygon fill="midnightblue" stroke="midnightblue" points="1133.46,-87.65 1125.2,-81.01 1127.51,-91.35 1133.46,-87.65"/>
</g>
<!-- Node19 -->
<g id="node19" class="node">
<title>Node19</title>
<g id="a_node19"><a xlink:title=" ">
<polygon fill="white" stroke="#bfbfbf" points="1165.91,-62 1165.91,-81 1219.91,-81 1219.91,-62 1165.91,-62"/>
<text text-anchor="middle" x="1192.91" y="-69" font-family="Helvetica,sans-Serif" font-size="10.00">random</text>
</a>
</g>
</g>
<!-- Node14&#45;&gt;Node19 -->
<g id="edge23" class="edge">
<title>Node14&#45;&gt;Node19</title>
<path fill="none" stroke="midnightblue" d="M1162.07,-123.48C1167.36,-114.73 1175.75,-100.87 1182.44,-89.81"/>
<polygon fill="midnightblue" stroke="midnightblue" points="1185.58,-91.38 1187.76,-81.01 1179.59,-87.75 1185.58,-91.38"/>
</g>
<!-- Node16 -->
<g id="node16" class="node">
<title>Node16</title>
<g id="a_node16"><a xlink:title=" ">
<polygon fill="white" stroke="#bfbfbf" points="1229.41,-0.5 1229.41,-19.5 1332.41,-19.5 1332.41,-0.5 1229.41,-0.5"/>
<text text-anchor="middle" x="1280.91" y="-7.5" font-family="Helvetica,sans-Serif" font-size="10.00">glibmm/convert.h</text>
</a>
</g>
</g>
<!-- Node15&#45;&gt;Node16 -->
<g id="edge19" class="edge">
<title>Node15&#45;&gt;Node16</title>
<path fill="none" stroke="midnightblue" d="M1280.91,-61.98C1280.91,-53.58 1280.91,-40.48 1280.91,-29.66"/>
<polygon fill="midnightblue" stroke="midnightblue" points="1284.41,-29.51 1280.91,-19.51 1277.41,-29.51 1284.41,-29.51"/>
</g>
</g>
</svg>
        <g id="navigator" transform="translate(0 0)" fill="#404254">
                <rect fill="#f2f5e9" fill-opacity="0.5" stroke="#606060" stroke-width=".5" x="0" y="0" width="60" height="60"/>
                <use id="zoomplus" xlink:href="#zoomPlus" x="17" y="9" onmousedown="handleZoom(evt,'in')"/>
                <use id="zoomminus" xlink:href="#zoomMin" x="42" y="9" onmousedown="handleZoom(evt,'out')"/>
                <use id="reset" xlink:href="#resetDef" x="30" y="36" onmousedown="handleReset()"/>
                <g id="arrowUp" xlink:href="#dirArrow" transform="translate(30 24)" onmousedown="handlePan(0,-1)">
                  <use xlink:href="#rim" fill="#404040">
                        <set attributeName="fill" to="#808080" begin="arrowUp.mouseover" end="arrowUp.mouseout"/>
                  </use>
                  <path fill="none" stroke="white" stroke-width="1.5" d="M0,-3.0v7 M-2.5,-0.5L0,-3.0L2.5,-0.5"/>
                </g>
                <g id="arrowRight" xlink:href="#dirArrow" transform="rotate(90) translate(36 -43)" onmousedown="handlePan(1,0)">
                  <use xlink:href="#rim" fill="#404040">
                        <set attributeName="fill" to="#808080" begin="arrowRight.mouseover" end="arrowRight.mouseout"/>
                  </use>
                  <path fill="none" stroke="white" stroke-width="1.5" d="M0,-3.0v7 M-2.5,-0.5L0,-3.0L2.5,-0.5"/>
                </g>
                <g id="arrowDown" xlink:href="#dirArrow" transform="rotate(180) translate(-30 -48)" onmousedown="handlePan(0,1)">
                  <use xlink:href="#rim" fill="#404040">
                        <set attributeName="fill" to="#808080" begin="arrowDown.mouseover" end="arrowDown.mouseout"/>
                  </use>
                  <path fill="none" stroke="white" stroke-width="1.5" d="M0,-3.0v7 M-2.5,-0.5L0,-3.0L2.5,-0.5"/>
                </g>
                <g id="arrowLeft" xlink:href="#dirArrow" transform="rotate(270) translate(-36 17)" onmousedown="handlePan(-1,0)">
                  <use xlink:href="#rim" fill="#404040">
                        <set attributeName="fill" to="#808080" begin="arrowLeft.mouseover" end="arrowLeft.mouseout"/>
                  </use>
                  <path fill="none" stroke="white" stroke-width="1.5" d="M0,-3.0v7 M-2.5,-0.5L0,-3.0L2.5,-0.5"/>
                </g>
        </g>
        <svg viewBox="0 0 15 15" width="100%" height="30px" preserveAspectRatio="xMaxYMin meet">
         <g id="arrow_out" transform="scale(0.3 0.3)">
          <a xlink:href="app__window_8hpp__incl_org.svg" target="_base">
           <rect id="button" ry="5" rx="5" y="6" x="6" height="38" width="38"
                fill="#f2f5e9" fill-opacity="0.5" stroke="#606060" stroke-width="1.0"/>
           <path id="arrow"
             d="M 11.500037,31.436501 C 11.940474,20.09759 22.043105,11.32322 32.158766,21.979434 L 37.068811,17.246167 C 37.068811,17.246167 37.088388,32 37.088388,32 L 22.160133,31.978069 C 22.160133,31.978069 26.997745,27.140456 26.997745,27.140456 C 18.528582,18.264221 13.291696,25.230495 11.500037,31.436501 z"
             style="fill:#404040;"/>
          </a>
         </g>
        </svg>
</svg>
