<?xml version="1.0" encoding="UTF-8" standalone="no"?>
<!DOCTYPE svg PUBLIC "-//W3C//DTD SVG 1.1//EN"
 "http://www.w3.org/Graphics/SVG/1.1/DTD/svg11.dtd">
<!-- Generated by graphviz version 2.43.0 (0)
 -->
<!-- Title: src/app_window.cpp Pages: 1 -->
<svg width="3295pt" height="308pt"
 viewBox="0.00 0.00 3294.75 308.00" xmlns="http://www.w3.org/2000/svg" xmlns:xlink="http://www.w3.org/1999/xlink">
<g id="graph0" class="graph" transform="scale(1 1) rotate(0) translate(4 304)">
<title>src/app_window.cpp</title>
<polygon fill="white" stroke="transparent" points="-4,4 -4,-304 3290.75,-304 3290.75,4 -4,4"/>
<!-- Node1 -->
<g id="node1" class="node">
<title>Node1</title>
<g id="a_node1"><a xlink:title=" ">
<polygon fill="#bfbfbf" stroke="black" points="2058.25,-280.5 2058.25,-299.5 2172.25,-299.5 2172.25,-280.5 2058.25,-280.5"/>
<text text-anchor="middle" x="2115.25" y="-287.5" font-family="Helvetica,sans-Serif" font-size="10.00">src/app_window.cpp</text>
</a>
</g>
</g>
<!-- Node2 -->
<g id="node2" class="node">
<title>Node2</title>
<g id="a_node2"><a xlink:href="app__window_8hpp.html" target="_top" xlink:title="rootウィンドウクラス">
<polygon fill="white" stroke="black" points="274.25,-224.5 274.25,-243.5 372.25,-243.5 372.25,-224.5 274.25,-224.5"/>
<text text-anchor="middle" x="323.25" y="-231.5" font-family="Helvetica,sans-Serif" font-size="10.00">app_window.hpp</text>
</a>
</g>
</g>
<!-- Node1&#45;&gt;Node2 -->
<g id="edge1" class="edge">
<title>Node1&#45;&gt;Node2</title>
<path fill="none" stroke="midnightblue" d="M2058.16,-287.28C1789.82,-279.19 655.59,-245.01 382.55,-236.79"/>
<polygon fill="midnightblue" stroke="midnightblue" points="382.55,-233.29 372.45,-236.48 382.34,-240.28 382.55,-233.29"/>
</g>
<!-- Node5 -->
<g id="node5" class="node">
<title>Node5</title>
<g id="a_node5"><a xlink:title=" ">
<polygon fill="white" stroke="#bfbfbf" points="643.75,-0.5 643.75,-19.5 690.75,-19.5 690.75,-0.5 643.75,-0.5"/>
<text text-anchor="middle" x="667.25" y="-7.5" font-family="Helvetica,sans-Serif" font-size="10.00">vector</text>
</a>
</g>
</g>
<!-- Node1&#45;&gt;Node5 -->
<g id="edge37" class="edge">
<title>Node1&#45;&gt;Node5</title>
<path fill="none" stroke="midnightblue" d="M2057.9,-288.44C1840.69,-286.1 1078.66,-275.63 1038.25,-244 1014.55,-225.45 1019.25,-209.1 1019.25,-179 1019.25,-179 1019.25,-179 1019.25,-121 1019.25,-54.71 788.92,-23.69 700.89,-14.25"/>
<polygon fill="midnightblue" stroke="midnightblue" points="701.2,-10.77 690.89,-13.21 700.47,-17.73 701.2,-10.77"/>
</g>
<!-- Node27 -->
<g id="node20" class="node">
<title>Node27</title>
<g id="a_node20"><a xlink:title=" ">
<polygon fill="white" stroke="#bfbfbf" points="1047.25,-224.5 1047.25,-243.5 1111.25,-243.5 1111.25,-224.5 1047.25,-224.5"/>
<text text-anchor="middle" x="1079.25" y="-231.5" font-family="Helvetica,sans-Serif" font-size="10.00">algorithm</text>
</a>
</g>
</g>
<!-- Node1&#45;&gt;Node27 -->
<g id="edge27" class="edge">
<title>Node1&#45;&gt;Node27</title>
<path fill="none" stroke="midnightblue" d="M2058.09,-289.72C1905.35,-290.91 1475.26,-289.62 1121.25,-244 1121.15,-243.99 1121.04,-243.97 1120.94,-243.96"/>
<polygon fill="midnightblue" stroke="midnightblue" points="1121.68,-240.53 1111.26,-242.43 1120.59,-247.45 1121.68,-240.53"/>
</g>
<!-- Node28 -->
<g id="node21" class="node">
<title>Node28</title>
<g id="a_node21"><a xlink:title=" ">
<polygon fill="white" stroke="#bfbfbf" points="1129.75,-224.5 1129.75,-243.5 1182.75,-243.5 1182.75,-224.5 1129.75,-224.5"/>
<text text-anchor="middle" x="1156.25" y="-231.5" font-family="Helvetica,sans-Serif" font-size="10.00">cstddef</text>
</a>
</g>
</g>
<!-- Node1&#45;&gt;Node28 -->
<g id="edge28" class="edge">
<title>Node1&#45;&gt;Node28</title>
<path fill="none" stroke="midnightblue" d="M2058.04,-287.68C1886.83,-283.51 1379.36,-269.42 1192.83,-243.7"/>
<polygon fill="midnightblue" stroke="midnightblue" points="1193.26,-240.23 1182.87,-242.27 1192.27,-247.16 1193.26,-240.23"/>
</g>
<!-- Node29 -->
<g id="node22" class="node">
<title>Node29</title>
<g id="a_node22"><a xlink:title=" ">
<polygon fill="white" stroke="#bfbfbf" points="1200.75,-224.5 1200.75,-243.5 1265.75,-243.5 1265.75,-224.5 1200.75,-224.5"/>
<text text-anchor="middle" x="1233.25" y="-231.5" font-family="Helvetica,sans-Serif" font-size="10.00">functional</text>
</a>
</g>
</g>
<!-- Node1&#45;&gt;Node29 -->
<g id="edge29" class="edge">
<title>Node1&#45;&gt;Node29</title>
<path fill="none" stroke="midnightblue" d="M2058.18,-289.03C1923.58,-288.45 1575.78,-283.06 1276.36,-243.92"/>
<polygon fill="midnightblue" stroke="midnightblue" points="1276.55,-240.41 1266.18,-242.57 1275.63,-247.35 1276.55,-240.41"/>
</g>
<!-- Node30 -->
<g id="node23" class="node">
<title>Node30</title>
<g id="a_node23"><a xlink:title=" ">
<polygon fill="white" stroke="#bfbfbf" points="1283.75,-224.5 1283.75,-243.5 1366.75,-243.5 1366.75,-224.5 1283.75,-224.5"/>
<text text-anchor="middle" x="1325.25" y="-231.5" font-family="Helvetica,sans-Serif" font-size="10.00">initializer_list</text>
</a>
</g>
</g>
<!-- Node1&#45;&gt;Node30 -->
<g id="edge30" class="edge">
<title>Node1&#45;&gt;Node30</title>
<path fill="none" stroke="midnightblue" d="M2058.03,-287.73C1935.19,-284.53 1637,-274.2 1376.95,-243.93"/>
<polygon fill="midnightblue" stroke="midnightblue" points="1377.28,-240.45 1366.94,-242.76 1376.46,-247.4 1377.28,-240.45"/>
</g>
<!-- Node31 -->
<g id="node24" class="node">
<title>Node31</title>
<g id="a_node24"><a xlink:title=" ">
<polygon fill="white" stroke="#bfbfbf" points="1385.25,-224.5 1385.25,-243.5 1433.25,-243.5 1433.25,-224.5 1385.25,-224.5"/>
<text text-anchor="middle" x="1409.25" y="-231.5" font-family="Helvetica,sans-Serif" font-size="10.00">iosfwd</text>
</a>
</g>
</g>
<!-- Node1&#45;&gt;Node31 -->
<g id="edge31" class="edge">
<title>Node1&#45;&gt;Node31</title>
<path fill="none" stroke="midnightblue" d="M2058.19,-288.86C1941.77,-287.76 1668.82,-281.05 1443.25,-244 1443.15,-243.98 1443.04,-243.97 1442.94,-243.95"/>
<polygon fill="midnightblue" stroke="midnightblue" points="1443.77,-240.55 1433.27,-241.97 1442.36,-247.4 1443.77,-240.55"/>
</g>
<!-- Node32 -->
<g id="node25" class="node">
<title>Node32</title>
<g id="a_node25"><a xlink:title=" ">
<polygon fill="white" stroke="#bfbfbf" points="1451.75,-224.5 1451.75,-243.5 1504.75,-243.5 1504.75,-224.5 1451.75,-224.5"/>
<text text-anchor="middle" x="1478.25" y="-231.5" font-family="Helvetica,sans-Serif" font-size="10.00">iterator</text>
</a>
</g>
</g>
<!-- Node1&#45;&gt;Node32 -->
<g id="edge32" class="edge">
<title>Node1&#45;&gt;Node32</title>
<path fill="none" stroke="midnightblue" d="M2058.11,-287.95C1952.58,-285.32 1719.98,-276.24 1514.93,-243.81"/>
<polygon fill="midnightblue" stroke="midnightblue" points="1515.31,-240.32 1504.88,-242.19 1514.2,-247.23 1515.31,-240.32"/>
</g>
<!-- Node33 -->
<g id="node26" class="node">
<title>Node33</title>
<g id="a_node26"><a xlink:title=" ">
<polygon fill="white" stroke="#bfbfbf" points="1523.25,-224.5 1523.25,-243.5 1581.25,-243.5 1581.25,-224.5 1523.25,-224.5"/>
<text text-anchor="middle" x="1552.25" y="-231.5" font-family="Helvetica,sans-Serif" font-size="10.00">memory</text>
</a>
</g>
</g>
<!-- Node1&#45;&gt;Node33 -->
<g id="edge33" class="edge">
<title>Node1&#45;&gt;Node33</title>
<path fill="none" stroke="midnightblue" d="M2058.2,-286.86C1963.23,-282.69 1766.63,-271.52 1591.53,-243.99"/>
<polygon fill="midnightblue" stroke="midnightblue" points="1592.05,-240.53 1581.62,-242.41 1590.95,-247.44 1592.05,-240.53"/>
</g>
<!-- Node34 -->
<g id="node27" class="node">
<title>Node34</title>
<g id="a_node27"><a xlink:title=" ">
<polygon fill="white" stroke="#bfbfbf" points="1599.25,-224.5 1599.25,-243.5 1655.25,-243.5 1655.25,-224.5 1599.25,-224.5"/>
<text text-anchor="middle" x="1627.25" y="-231.5" font-family="Helvetica,sans-Serif" font-size="10.00">numeric</text>
</a>
</g>
</g>
<!-- Node1&#45;&gt;Node34 -->
<g id="edge34" class="edge">
<title>Node1&#45;&gt;Node34</title>
<path fill="none" stroke="midnightblue" d="M2057.95,-285.85C1973.89,-280.65 1812.12,-268.52 1665.52,-244"/>
<polygon fill="midnightblue" stroke="midnightblue" points="1665.89,-240.51 1655.45,-242.29 1664.72,-247.41 1665.89,-240.51"/>
</g>
<!-- Node35 -->
<g id="node28" class="node">
<title>Node35</title>
<g id="a_node28"><a xlink:title=" ">
<polygon fill="white" stroke="#bfbfbf" points="1673.25,-224.5 1673.25,-243.5 1717.25,-243.5 1717.25,-224.5 1673.25,-224.5"/>
<text text-anchor="middle" x="1695.25" y="-231.5" font-family="Helvetica,sans-Serif" font-size="10.00">string</text>
</a>
</g>
</g>
<!-- Node1&#45;&gt;Node35 -->
<g id="edge35" class="edge">
<title>Node1&#45;&gt;Node35</title>
<path fill="none" stroke="midnightblue" d="M2057.94,-285.21C1983.85,-279.68 1850.76,-267.6 1727.51,-243.72"/>
<polygon fill="midnightblue" stroke="midnightblue" points="1728.01,-240.25 1717.52,-241.75 1726.65,-247.12 1728.01,-240.25"/>
</g>
<!-- Node36 -->
<g id="node29" class="node">
<title>Node36</title>
<g id="a_node29"><a xlink:title=" ">
<polygon fill="white" stroke="#bfbfbf" points="1735.75,-224.5 1735.75,-243.5 1780.75,-243.5 1780.75,-224.5 1735.75,-224.5"/>
<text text-anchor="middle" x="1758.25" y="-231.5" font-family="Helvetica,sans-Serif" font-size="10.00">utility</text>
</a>
</g>
</g>
<!-- Node1&#45;&gt;Node36 -->
<g id="edge36" class="edge">
<title>Node1&#45;&gt;Node36</title>
<path fill="none" stroke="midnightblue" d="M2058.19,-283.49C1995.07,-276.85 1890.25,-264.26 1790.8,-243.84"/>
<polygon fill="midnightblue" stroke="midnightblue" points="1791.38,-240.39 1780.88,-241.78 1789.95,-247.24 1791.38,-240.39"/>
</g>
<!-- Node37 -->
<g id="node30" class="node">
<title>Node37</title>
<g id="a_node30"><a xlink:title=" ">
<polygon fill="white" stroke="#bfbfbf" points="1798.75,-224.5 1798.75,-243.5 1867.75,-243.5 1867.75,-224.5 1798.75,-224.5"/>
<text text-anchor="middle" x="1833.25" y="-231.5" font-family="Helvetica,sans-Serif" font-size="10.00">type_traits</text>
</a>
</g>
</g>
<!-- Node1&#45;&gt;Node37 -->
<g id="edge38" class="edge">
<title>Node1&#45;&gt;Node37</title>
<path fill="none" stroke="midnightblue" d="M2069.14,-280.49C2023.32,-271.99 1950.77,-258.4 1878.08,-244.14"/>
<polygon fill="midnightblue" stroke="midnightblue" points="1878.31,-240.62 1867.83,-242.12 1876.96,-247.49 1878.31,-240.62"/>
</g>
<!-- Node38 -->
<g id="node31" class="node">
<title>Node38</title>
<g id="a_node31"><a xlink:title=" ">
<polygon fill="white" stroke="#bfbfbf" points="1886.25,-224.5 1886.25,-243.5 1928.25,-243.5 1928.25,-224.5 1886.25,-224.5"/>
<text text-anchor="middle" x="1907.25" y="-231.5" font-family="Helvetica,sans-Serif" font-size="10.00">array</text>
</a>
</g>
</g>
<!-- Node1&#45;&gt;Node38 -->
<g id="edge39" class="edge">
<title>Node1&#45;&gt;Node38</title>
<path fill="none" stroke="midnightblue" d="M2079.67,-280.49C2045.69,-272.26 1992.82,-259.17 1938.35,-244.22"/>
<polygon fill="midnightblue" stroke="midnightblue" points="1939.09,-240.79 1928.52,-241.51 1937.23,-247.54 1939.09,-240.79"/>
</g>
<!-- Node39 -->
<g id="node32" class="node">
<title>Node39</title>
<g id="a_node32"><a xlink:title=" ">
<polygon fill="white" stroke="#bfbfbf" points="1946.25,-224.5 1946.25,-243.5 2020.25,-243.5 2020.25,-224.5 1946.25,-224.5"/>
<text text-anchor="middle" x="1983.25" y="-231.5" font-family="Helvetica,sans-Serif" font-size="10.00">forward_list</text>
</a>
</g>
</g>
<!-- Node1&#45;&gt;Node39 -->
<g id="edge40" class="edge">
<title>Node1&#45;&gt;Node39</title>
<path fill="none" stroke="midnightblue" d="M2094.33,-280.44C2072.51,-271.52 2038.1,-257.44 2013.36,-247.32"/>
<polygon fill="midnightblue" stroke="midnightblue" points="2014.65,-244.06 2004.07,-243.52 2012,-250.54 2014.65,-244.06"/>
</g>
<!-- Node40 -->
<g id="node33" class="node">
<title>Node40</title>
<g id="a_node33"><a xlink:title=" ">
<polygon fill="white" stroke="#bfbfbf" points="2038.25,-224.5 2038.25,-243.5 2076.25,-243.5 2076.25,-224.5 2038.25,-224.5"/>
<text text-anchor="middle" x="2057.25" y="-231.5" font-family="Helvetica,sans-Serif" font-size="10.00">map</text>
</a>
</g>
</g>
<!-- Node1&#45;&gt;Node40 -->
<g id="edge41" class="edge">
<title>Node1&#45;&gt;Node40</title>
<path fill="none" stroke="midnightblue" d="M2105.93,-280.32C2097.36,-272.34 2084.44,-260.31 2074.06,-250.65"/>
<polygon fill="midnightblue" stroke="midnightblue" points="2076.44,-248.09 2066.74,-243.83 2071.67,-253.21 2076.44,-248.09"/>
</g>
<!-- Node41 -->
<g id="node34" class="node">
<title>Node41</title>
<g id="a_node34"><a xlink:title=" ">
<polygon fill="white" stroke="#bfbfbf" points="2094.75,-224.5 2094.75,-243.5 2135.75,-243.5 2135.75,-224.5 2094.75,-224.5"/>
<text text-anchor="middle" x="2115.25" y="-231.5" font-family="Helvetica,sans-Serif" font-size="10.00">tuple</text>
</a>
</g>
</g>
<!-- Node1&#45;&gt;Node41 -->
<g id="edge42" class="edge">
<title>Node1&#45;&gt;Node41</title>
<path fill="none" stroke="midnightblue" d="M2115.25,-280.08C2115.25,-273.01 2115.25,-262.86 2115.25,-253.99"/>
<polygon fill="midnightblue" stroke="midnightblue" points="2118.75,-253.75 2115.25,-243.75 2111.75,-253.75 2118.75,-253.75"/>
</g>
<!-- Node42 -->
<g id="node35" class="node">
<title>Node42</title>
<g id="a_node35"><a xlink:title=" ">
<polygon fill="white" stroke="#bfbfbf" points="2153.75,-224.5 2153.75,-243.5 2246.75,-243.5 2246.75,-224.5 2153.75,-224.5"/>
<text text-anchor="middle" x="2200.25" y="-231.5" font-family="Helvetica,sans-Serif" font-size="10.00">unordered_map</text>
</a>
</g>
</g>
<!-- Node1&#45;&gt;Node42 -->
<g id="edge43" class="edge">
<title>Node1&#45;&gt;Node42</title>
<path fill="none" stroke="midnightblue" d="M2128.9,-280.32C2142.16,-271.9 2162.52,-258.97 2178.09,-249.07"/>
<polygon fill="midnightblue" stroke="midnightblue" points="2180.06,-251.97 2186.62,-243.65 2176.31,-246.06 2180.06,-251.97"/>
</g>
<!-- Node43 -->
<g id="node36" class="node">
<title>Node43</title>
<g id="a_node36"><a xlink:title=" ">
<polygon fill="white" stroke="#bfbfbf" points="2264.75,-224.5 2264.75,-243.5 2321.75,-243.5 2321.75,-224.5 2264.75,-224.5"/>
<text text-anchor="middle" x="2293.25" y="-231.5" font-family="Helvetica,sans-Serif" font-size="10.00">valarray</text>
</a>
</g>
</g>
<!-- Node1&#45;&gt;Node43 -->
<g id="edge44" class="edge">
<title>Node1&#45;&gt;Node43</title>
<path fill="none" stroke="midnightblue" d="M2143.45,-280.44C2173.66,-271.28 2221.76,-256.69 2255.28,-246.52"/>
<polygon fill="midnightblue" stroke="midnightblue" points="2256.62,-249.77 2265.18,-243.52 2254.59,-243.07 2256.62,-249.77"/>
</g>
<!-- Node44 -->
<g id="node37" class="node">
<title>Node44</title>
<g id="a_node37"><a xlink:title=" ">
<polygon fill="white" stroke="#bfbfbf" points="2339.75,-224.5 2339.75,-243.5 2404.75,-243.5 2404.75,-224.5 2339.75,-224.5"/>
<text text-anchor="middle" x="2372.25" y="-231.5" font-family="Helvetica,sans-Serif" font-size="10.00">exception</text>
</a>
</g>
</g>
<!-- Node1&#45;&gt;Node44 -->
<g id="edge45" class="edge">
<title>Node1&#45;&gt;Node44</title>
<path fill="none" stroke="midnightblue" d="M2157.09,-280.42C2198.5,-271.9 2263.97,-258.35 2329.49,-244.36"/>
<polygon fill="midnightblue" stroke="midnightblue" points="2330.53,-247.72 2339.58,-242.2 2329.07,-240.87 2330.53,-247.72"/>
</g>
<!-- Node45 -->
<g id="node38" class="node">
<title>Node45</title>
<g id="a_node38"><a xlink:title=" ">
<polygon fill="white" stroke="#bfbfbf" points="2422.75,-224.5 2422.75,-243.5 2487.75,-243.5 2487.75,-224.5 2422.75,-224.5"/>
<text text-anchor="middle" x="2455.25" y="-231.5" font-family="Helvetica,sans-Serif" font-size="10.00">stdexcept</text>
</a>
</g>
</g>
<!-- Node1&#45;&gt;Node45 -->
<g id="edge46" class="edge">
<title>Node1&#45;&gt;Node45</title>
<path fill="none" stroke="midnightblue" d="M2172.48,-281.54C2230.62,-273.71 2323.48,-260.48 2412.61,-244.21"/>
<polygon fill="midnightblue" stroke="midnightblue" points="2413.41,-247.62 2422.61,-242.37 2412.15,-240.74 2413.41,-247.62"/>
</g>
<!-- Node46 -->
<g id="node39" class="node">
<title>Node46</title>
<g id="a_node39"><a xlink:title=" ">
<polygon fill="white" stroke="#bfbfbf" points="2506.25,-224.5 2506.25,-243.5 2556.25,-243.5 2556.25,-224.5 2506.25,-224.5"/>
<text text-anchor="middle" x="2531.25" y="-231.5" font-family="Helvetica,sans-Serif" font-size="10.00">cstdint</text>
</a>
</g>
</g>
<!-- Node1&#45;&gt;Node46 -->
<g id="edge47" class="edge">
<title>Node1&#45;&gt;Node46</title>
<path fill="none" stroke="midnightblue" d="M2172.26,-284.82C2245.21,-278.91 2375.56,-266.45 2495.96,-244"/>
<polygon fill="midnightblue" stroke="midnightblue" points="2496.91,-247.38 2506.09,-242.08 2495.61,-240.51 2496.91,-247.38"/>
</g>
<!-- Node47 -->
<g id="node40" class="node">
<title>Node47</title>
<g id="a_node40"><a xlink:title=" ">
<polygon fill="white" stroke="#bfbfbf" points="2574.75,-224.5 2574.75,-243.5 2623.75,-243.5 2623.75,-224.5 2574.75,-224.5"/>
<text text-anchor="middle" x="2599.25" y="-231.5" font-family="Helvetica,sans-Serif" font-size="10.00">cstdlib</text>
</a>
</g>
</g>
<!-- Node1&#45;&gt;Node47 -->
<g id="edge48" class="edge">
<title>Node1&#45;&gt;Node47</title>
<path fill="none" stroke="midnightblue" d="M2172.48,-286.2C2256.43,-281.45 2417.95,-269.87 2564.4,-243.86"/>
<polygon fill="midnightblue" stroke="midnightblue" points="2565.25,-247.27 2574.47,-242.05 2564.01,-240.38 2565.25,-247.27"/>
</g>
<!-- Node48 -->
<g id="node41" class="node">
<title>Node48</title>
<g id="a_node41"><a xlink:title=" ">
<polygon fill="white" stroke="#bfbfbf" points="2642.25,-224.5 2642.25,-243.5 2694.25,-243.5 2694.25,-224.5 2642.25,-224.5"/>
<text text-anchor="middle" x="2668.25" y="-231.5" font-family="Helvetica,sans-Serif" font-size="10.00">cassert</text>
</a>
</g>
</g>
<!-- Node1&#45;&gt;Node48 -->
<g id="edge49" class="edge">
<title>Node1&#45;&gt;Node48</title>
<path fill="none" stroke="midnightblue" d="M2172.36,-287.12C2266.4,-283.35 2459.75,-272.76 2631.97,-243.95"/>
<polygon fill="midnightblue" stroke="midnightblue" points="2632.7,-247.38 2641.97,-242.25 2631.53,-240.47 2632.7,-247.38"/>
</g>
<!-- Node49 -->
<g id="node42" class="node">
<title>Node49</title>
<g id="a_node42"><a xlink:title=" ">
<polygon fill="white" stroke="#bfbfbf" points="2712.25,-224.5 2712.25,-243.5 2756.25,-243.5 2756.25,-224.5 2712.25,-224.5"/>
<text text-anchor="middle" x="2734.25" y="-231.5" font-family="Helvetica,sans-Serif" font-size="10.00">limits</text>
</a>
</g>
</g>
<!-- Node1&#45;&gt;Node49 -->
<g id="edge50" class="edge">
<title>Node1&#45;&gt;Node49</title>
<path fill="none" stroke="midnightblue" d="M2172.51,-288.52C2276.47,-286.8 2503.15,-279.17 2701.98,-243.86"/>
<polygon fill="midnightblue" stroke="midnightblue" points="2702.81,-247.27 2712.03,-242.05 2701.57,-240.38 2702.81,-247.27"/>
</g>
<!-- Node50 -->
<g id="node43" class="node">
<title>Node50</title>
<g id="a_node43"><a xlink:title=" ">
<polygon fill="white" stroke="#bfbfbf" points="2774.75,-224.5 2774.75,-243.5 2821.75,-243.5 2821.75,-224.5 2774.75,-224.5"/>
<text text-anchor="middle" x="2798.25" y="-231.5" font-family="Helvetica,sans-Serif" font-size="10.00">cmath</text>
</a>
</g>
</g>
<!-- Node1&#45;&gt;Node50 -->
<g id="edge51" class="edge">
<title>Node1&#45;&gt;Node50</title>
<path fill="none" stroke="midnightblue" d="M2172.64,-288.81C2284.82,-287.62 2540.95,-280.88 2764.63,-243.73"/>
<polygon fill="midnightblue" stroke="midnightblue" points="2765.3,-247.17 2774.58,-242.06 2764.14,-240.26 2765.3,-247.17"/>
</g>
<!-- Node51 -->
<g id="node44" class="node">
<title>Node51</title>
<g id="a_node44"><a xlink:title=" ">
<polygon fill="white" stroke="#bfbfbf" points="2840.25,-224.5 2840.25,-243.5 2886.25,-243.5 2886.25,-224.5 2840.25,-224.5"/>
<text text-anchor="middle" x="2863.25" y="-231.5" font-family="Helvetica,sans-Serif" font-size="10.00">cstdio</text>
</a>
</g>
</g>
<!-- Node1&#45;&gt;Node51 -->
<g id="edge52" class="edge">
<title>Node1&#45;&gt;Node51</title>
<path fill="none" stroke="midnightblue" d="M2172.34,-289.49C2292.65,-289.63 2581.01,-285.36 2830,-243.85"/>
<polygon fill="midnightblue" stroke="midnightblue" points="2830.68,-247.28 2839.96,-242.16 2829.52,-240.38 2830.68,-247.28"/>
</g>
<!-- Node52 -->
<g id="node45" class="node">
<title>Node52</title>
<g id="a_node45"><a xlink:title=" ">
<polygon fill="white" stroke="#bfbfbf" points="2904.25,-224.5 2904.25,-243.5 2954.25,-243.5 2954.25,-224.5 2904.25,-224.5"/>
<text text-anchor="middle" x="2929.25" y="-231.5" font-family="Helvetica,sans-Serif" font-size="10.00">cstring</text>
</a>
</g>
</g>
<!-- Node1&#45;&gt;Node52 -->
<g id="edge53" class="edge">
<title>Node1&#45;&gt;Node52</title>
<path fill="none" stroke="midnightblue" d="M2172.43,-289.62C2300.39,-290.16 2619.44,-286.82 2893.96,-243.87"/>
<polygon fill="midnightblue" stroke="midnightblue" points="2894.79,-247.28 2904.12,-242.25 2893.69,-240.36 2894.79,-247.28"/>
</g>
<!-- Node53 -->
<g id="node46" class="node">
<title>Node53</title>
<g id="a_node46"><a xlink:title=" ">
<polygon fill="white" stroke="#bfbfbf" points="2972.25,-224.5 2972.25,-243.5 3026.25,-243.5 3026.25,-224.5 2972.25,-224.5"/>
<text text-anchor="middle" x="2999.25" y="-231.5" font-family="Helvetica,sans-Serif" font-size="10.00">istream</text>
</a>
</g>
</g>
<!-- Node1&#45;&gt;Node53 -->
<g id="edge54" class="edge">
<title>Node1&#45;&gt;Node53</title>
<path fill="none" stroke="midnightblue" d="M2172.45,-289.73C2308.15,-290.67 2660.17,-288.34 2961.97,-243.88"/>
<polygon fill="midnightblue" stroke="midnightblue" points="2962.86,-247.28 2972.23,-242.34 2961.83,-240.36 2962.86,-247.28"/>
</g>
<!-- Node54 -->
<g id="node47" class="node">
<title>Node54</title>
<g id="a_node47"><a xlink:title=" ">
<polygon fill="white" stroke="#bfbfbf" points="3044.75,-224.5 3044.75,-243.5 3095.75,-243.5 3095.75,-224.5 3044.75,-224.5"/>
<text text-anchor="middle" x="3070.25" y="-231.5" font-family="Helvetica,sans-Serif" font-size="10.00">clocale</text>
</a>
</g>
</g>
<!-- Node1&#45;&gt;Node54 -->
<g id="edge55" class="edge">
<title>Node1&#45;&gt;Node54</title>
<path fill="none" stroke="midnightblue" d="M2172.28,-287.73C2342.95,-283.68 2848.82,-269.9 3034.46,-243.73"/>
<polygon fill="midnightblue" stroke="midnightblue" points="3034.99,-247.19 3044.37,-242.28 3033.97,-240.27 3034.99,-247.19"/>
</g>
<!-- Node55 -->
<g id="node48" class="node">
<title>Node55</title>
<g id="a_node48"><a xlink:title=" ">
<polygon fill="white" stroke="#bfbfbf" points="3113.75,-224.5 3113.75,-243.5 3162.75,-243.5 3162.75,-224.5 3113.75,-224.5"/>
<text text-anchor="middle" x="3138.25" y="-231.5" font-family="Helvetica,sans-Serif" font-size="10.00">cctype</text>
</a>
</g>
</g>
<!-- Node1&#45;&gt;Node55 -->
<g id="edge56" class="edge">
<title>Node1&#45;&gt;Node55</title>
<path fill="none" stroke="midnightblue" d="M2172.4,-288.06C2351.98,-284.85 2904.28,-272.96 3103.44,-243.91"/>
<polygon fill="midnightblue" stroke="midnightblue" points="3104.15,-247.34 3113.51,-242.38 3103.1,-240.42 3104.15,-247.34"/>
</g>
<!-- Node56 -->
<g id="node49" class="node">
<title>Node56</title>
<g id="a_node49"><a xlink:title=" ">
<polygon fill="white" stroke="#bfbfbf" points="3180.75,-224.5 3180.75,-243.5 3211.75,-243.5 3211.75,-224.5 3180.75,-224.5"/>
<text text-anchor="middle" x="3196.25" y="-231.5" font-family="Helvetica,sans-Serif" font-size="10.00">ios</text>
</a>
</g>
</g>
<!-- Node1&#45;&gt;Node56 -->
<g id="edge57" class="edge">
<title>Node1&#45;&gt;Node56</title>
<path fill="none" stroke="midnightblue" d="M2172.34,-288.94C2360.22,-288.37 2958.82,-283.56 3170.62,-243.63"/>
<polygon fill="midnightblue" stroke="midnightblue" points="3171.57,-247 3180.71,-241.64 3170.22,-240.14 3171.57,-247"/>
</g>
<!-- Node57 -->
<g id="node50" class="node">
<title>Node57</title>
<g id="a_node50"><a xlink:title=" ">
<polygon fill="white" stroke="#bfbfbf" points="3229.75,-224.5 3229.75,-243.5 3286.75,-243.5 3286.75,-224.5 3229.75,-224.5"/>
<text text-anchor="middle" x="3258.25" y="-231.5" font-family="Helvetica,sans-Serif" font-size="10.00">ostream</text>
</a>
</g>
</g>
<!-- Node1&#45;&gt;Node57 -->
<g id="edge58" class="edge">
<title>Node1&#45;&gt;Node57</title>
<path fill="none" stroke="midnightblue" d="M2172.42,-288.17C2365.92,-285.12 2996.13,-273.27 3219.66,-243.91"/>
<polygon fill="midnightblue" stroke="midnightblue" points="3220.24,-247.36 3229.67,-242.54 3219.29,-240.43 3220.24,-247.36"/>
</g>
<!-- Node3 -->
<g id="node3" class="node">
<title>Node3</title>
<g id="a_node3"><a xlink:href="config_8hpp.html" target="_top" xlink:title="設定値管理ファイル">
<polygon fill="white" stroke="black" points="190.75,-56.5 190.75,-75.5 257.75,-75.5 257.75,-56.5 190.75,-56.5"/>
<text text-anchor="middle" x="224.25" y="-63.5" font-family="Helvetica,sans-Serif" font-size="10.00">config.hpp</text>
</a>
</g>
</g>
<!-- Node2&#45;&gt;Node3 -->
<g id="edge2" class="edge">
<title>Node2&#45;&gt;Node3</title>
<path fill="none" stroke="midnightblue" d="M274.15,-233.48C194.17,-233.11 41.2,-227.13 7.25,-188 -9.04,-169.23 6.29,-129.99 26.25,-112 48.6,-91.85 129.21,-78.56 180.43,-71.94"/>
<polygon fill="midnightblue" stroke="midnightblue" points="181.08,-75.39 190.56,-70.67 180.21,-68.45 181.08,-75.39"/>
</g>
<!-- Node6 -->
<g id="node6" class="node">
<title>Node6</title>
<g id="a_node6"><a xlink:href="home__box_8hpp.html" target="_top" xlink:title="home画面のルートにあたるGtk::Boxの派生クラス">
<polygon fill="white" stroke="black" points="618.75,-168.5 618.75,-187.5 707.75,-187.5 707.75,-168.5 618.75,-168.5"/>
<text text-anchor="middle" x="663.25" y="-175.5" font-family="Helvetica,sans-Serif" font-size="10.00">home_box.hpp</text>
</a>
</g>
</g>
<!-- Node2&#45;&gt;Node6 -->
<g id="edge5" class="edge">
<title>Node2&#45;&gt;Node6</title>
<path fill="none" stroke="midnightblue" d="M372.32,-225.21C434.99,-215.25 543.11,-198.08 608.42,-187.71"/>
<polygon fill="midnightblue" stroke="midnightblue" points="609.2,-191.13 618.52,-186.1 608.1,-184.22 609.2,-191.13"/>
</g>
<!-- Node14 -->
<g id="node14" class="node">
<title>Node14</title>
<g id="a_node14"><a xlink:href="quiz__box_8hpp.html" target="_top" xlink:title="quiz画面のルートにあたるGtk::Boxの派生クラス">
<polygon fill="white" stroke="red" points="402.75,-168.5 402.75,-187.5 483.75,-187.5 483.75,-168.5 402.75,-168.5"/>
<text text-anchor="middle" x="443.25" y="-175.5" font-family="Helvetica,sans-Serif" font-size="10.00">quiz_box.hpp</text>
</a>
</g>
</g>
<!-- Node2&#45;&gt;Node14 -->
<g id="edge14" class="edge">
<title>Node2&#45;&gt;Node14</title>
<path fill="none" stroke="midnightblue" d="M342.26,-224.44C361.84,-215.64 392.56,-201.81 414.98,-191.72"/>
<polygon fill="midnightblue" stroke="midnightblue" points="416.64,-194.81 424.32,-187.52 413.77,-188.43 416.64,-194.81"/>
</g>
<!-- Node24 -->
<g id="node17" class="node">
<title>Node24</title>
<g id="a_node17"><a xlink:title=" ">
<polygon fill="white" stroke="#bfbfbf" points="16.25,-168.5 16.25,-187.5 106.25,-187.5 106.25,-168.5 16.25,-168.5"/>
<text text-anchor="middle" x="61.25" y="-175.5" font-family="Helvetica,sans-Serif" font-size="10.00">gtkmm/stack.h</text>
</a>
</g>
</g>
<!-- Node2&#45;&gt;Node24 -->
<g id="edge24" class="edge">
<title>Node2&#45;&gt;Node24</title>
<path fill="none" stroke="midnightblue" d="M281.73,-224.44C235.84,-214.98 161.87,-199.74 112.42,-189.55"/>
<polygon fill="midnightblue" stroke="midnightblue" points="113.07,-186.11 102.57,-187.52 111.66,-192.96 113.07,-186.11"/>
</g>
<!-- Node25 -->
<g id="node18" class="node">
<title>Node25</title>
<g id="a_node18"><a xlink:title=" ">
<polygon fill="white" stroke="#bfbfbf" points="124.75,-168.5 124.75,-187.5 243.75,-187.5 243.75,-168.5 124.75,-168.5"/>
<text text-anchor="middle" x="184.25" y="-175.5" font-family="Helvetica,sans-Serif" font-size="10.00">gtkmm/cssprovider.h</text>
</a>
</g>
</g>
<!-- Node2&#45;&gt;Node25 -->
<g id="edge25" class="edge">
<title>Node2&#45;&gt;Node25</title>
<path fill="none" stroke="midnightblue" d="M301.22,-224.44C278.14,-215.48 241.69,-201.31 215.61,-191.18"/>
<polygon fill="midnightblue" stroke="midnightblue" points="216.76,-187.88 206.17,-187.52 214.22,-194.4 216.76,-187.88"/>
</g>
<!-- Node26 -->
<g id="node19" class="node">
<title>Node26</title>
<g id="a_node19"><a xlink:title=" ">
<polygon fill="white" stroke="#bfbfbf" points="262.25,-168.5 262.25,-187.5 384.25,-187.5 384.25,-168.5 262.25,-168.5"/>
<text text-anchor="middle" x="323.25" y="-175.5" font-family="Helvetica,sans-Serif" font-size="10.00">gtkmm/aboutdialog.h</text>
</a>
</g>
</g>
<!-- Node2&#45;&gt;Node26 -->
<g id="edge26" class="edge">
<title>Node2&#45;&gt;Node26</title>
<path fill="none" stroke="midnightblue" d="M323.25,-224.08C323.25,-217.01 323.25,-206.86 323.25,-197.99"/>
<polygon fill="midnightblue" stroke="midnightblue" points="326.75,-197.75 323.25,-187.75 319.75,-197.75 326.75,-197.75"/>
</g>
<!-- Node4 -->
<g id="node4" class="node">
<title>Node4</title>
<g id="a_node4"><a xlink:title=" ">
<polygon fill="white" stroke="#bfbfbf" points="174.25,-0.5 174.25,-19.5 274.25,-19.5 274.25,-0.5 174.25,-0.5"/>
<text text-anchor="middle" x="224.25" y="-7.5" font-family="Helvetica,sans-Serif" font-size="10.00">glibmm/ustring.h</text>
</a>
</g>
</g>
<!-- Node3&#45;&gt;Node4 -->
<g id="edge3" class="edge">
<title>Node3&#45;&gt;Node4</title>
<path fill="none" stroke="midnightblue" d="M224.25,-56.08C224.25,-49.01 224.25,-38.86 224.25,-29.99"/>
<polygon fill="midnightblue" stroke="midnightblue" points="227.75,-29.75 224.25,-19.75 220.75,-29.75 227.75,-29.75"/>
</g>
<!-- Node3&#45;&gt;Node5 -->
<g id="edge4" class="edge">
<title>Node3&#45;&gt;Node5</title>
<path fill="none" stroke="midnightblue" d="M257.91,-60.9C340.22,-50.86 550.93,-25.18 633.42,-15.12"/>
<polygon fill="midnightblue" stroke="midnightblue" points="634,-18.58 643.5,-13.89 633.15,-11.63 634,-18.58"/>
</g>
<!-- Node6&#45;&gt;Node3 -->
<g id="edge6" class="edge">
<title>Node6&#45;&gt;Node3</title>
<path fill="none" stroke="midnightblue" d="M663.53,-168.23C663.45,-153.99 661.02,-126.03 644.25,-112 615.79,-88.2 369.94,-73.91 268.12,-68.97"/>
<polygon fill="midnightblue" stroke="midnightblue" points="268.02,-65.46 257.87,-68.48 267.69,-72.45 268.02,-65.46"/>
</g>
<!-- Node7 -->
<g id="node7" class="node">
<title>Node7</title>
<g id="a_node7"><a xlink:href="option__key_8hpp.html" target="_top" xlink:title="Home画面のオプションのチェックボックス識別用">
<polygon fill="white" stroke="black" points="466.75,-56.5 466.75,-75.5 555.75,-75.5 555.75,-56.5 466.75,-56.5"/>
<text text-anchor="middle" x="511.25" y="-63.5" font-family="Helvetica,sans-Serif" font-size="10.00">option_key.hpp</text>
</a>
</g>
</g>
<!-- Node6&#45;&gt;Node7 -->
<g id="edge7" class="edge">
<title>Node6&#45;&gt;Node7</title>
<path fill="none" stroke="midnightblue" d="M669.01,-168.47C677.27,-155.07 690.15,-128.87 677.25,-112 663.64,-94.22 609,-81.82 566.08,-74.61"/>
<polygon fill="midnightblue" stroke="midnightblue" points="566.44,-71.12 556.01,-72.98 565.32,-78.03 566.44,-71.12"/>
</g>
<!-- Node8 -->
<g id="node8" class="node">
<title>Node8</title>
<g id="a_node8"><a xlink:title=" ">
<polygon fill="white" stroke="#bfbfbf" points="495.75,-112.5 495.75,-131.5 634.75,-131.5 634.75,-112.5 495.75,-112.5"/>
<text text-anchor="middle" x="565.25" y="-119.5" font-family="Helvetica,sans-Serif" font-size="10.00">gtkmm/scrolledwindow.h</text>
</a>
</g>
</g>
<!-- Node6&#45;&gt;Node8 -->
<g id="edge8" class="edge">
<title>Node6&#45;&gt;Node8</title>
<path fill="none" stroke="midnightblue" d="M647.5,-168.32C631.93,-159.74 607.87,-146.49 589.79,-136.52"/>
<polygon fill="midnightblue" stroke="midnightblue" points="591.4,-133.42 580.95,-131.65 588.02,-139.55 591.4,-133.42"/>
</g>
<!-- Node9 -->
<g id="node9" class="node">
<title>Node9</title>
<g id="a_node9"><a xlink:title=" ">
<polygon fill="white" stroke="#bfbfbf" points="729.25,-112.5 729.25,-131.5 811.25,-131.5 811.25,-112.5 729.25,-112.5"/>
<text text-anchor="middle" x="770.25" y="-119.5" font-family="Helvetica,sans-Serif" font-size="10.00">gtkmm/box.h</text>
</a>
</g>
</g>
<!-- Node6&#45;&gt;Node9 -->
<g id="edge9" class="edge">
<title>Node6&#45;&gt;Node9</title>
<path fill="none" stroke="midnightblue" d="M680.44,-168.32C697.6,-159.66 724.19,-146.24 744,-136.25"/>
<polygon fill="midnightblue" stroke="midnightblue" points="745.75,-139.28 753.1,-131.65 742.59,-133.04 745.75,-139.28"/>
</g>
<!-- Node10 -->
<g id="node10" class="node">
<title>Node10</title>
<g id="a_node10"><a xlink:title=" ">
<polygon fill="white" stroke="#bfbfbf" points="281.25,-112.5 281.25,-131.5 391.25,-131.5 391.25,-112.5 281.25,-112.5"/>
<text text-anchor="middle" x="336.25" y="-119.5" font-family="Helvetica,sans-Serif" font-size="10.00">gtkmm/separator.h</text>
</a>
</g>
</g>
<!-- Node6&#45;&gt;Node10 -->
<g id="edge10" class="edge">
<title>Node6&#45;&gt;Node10</title>
<path fill="none" stroke="midnightblue" d="M618.47,-169.6C561.27,-160.16 462.01,-143.77 397.75,-133.16"/>
<polygon fill="midnightblue" stroke="midnightblue" points="398.19,-129.68 387.75,-131.51 397.05,-136.59 398.19,-129.68"/>
</g>
<!-- Node11 -->
<g id="node11" class="node">
<title>Node11</title>
<g id="a_node11"><a xlink:title=" ">
<polygon fill="white" stroke="#bfbfbf" points="829.25,-112.5 829.25,-131.5 953.25,-131.5 953.25,-112.5 829.25,-112.5"/>
<text text-anchor="middle" x="891.25" y="-119.5" font-family="Helvetica,sans-Serif" font-size="10.00">gtkmm/checkbutton.h</text>
</a>
</g>
</g>
<!-- Node6&#45;&gt;Node11 -->
<g id="edge11" class="edge">
<title>Node6&#45;&gt;Node11</title>
<path fill="none" stroke="midnightblue" d="M699.38,-168.44C738.9,-159.08 802.34,-144.06 845.36,-133.87"/>
<polygon fill="midnightblue" stroke="midnightblue" points="846.37,-137.23 855.29,-131.52 844.75,-130.42 846.37,-137.23"/>
</g>
<!-- Node12 -->
<g id="node12" class="node">
<title>Node12</title>
<g id="a_node12"><a xlink:title=" ">
<polygon fill="white" stroke="#bfbfbf" points="714.25,-56.5 714.25,-75.5 852.25,-75.5 852.25,-56.5 714.25,-56.5"/>
<text text-anchor="middle" x="783.25" y="-63.5" font-family="Helvetica,sans-Serif" font-size="10.00">gtkmm/messagedialog.h</text>
</a>
</g>
</g>
<!-- Node6&#45;&gt;Node12 -->
<g id="edge12" class="edge">
<title>Node6&#45;&gt;Node12</title>
<path fill="none" stroke="midnightblue" d="M707.92,-177.09C783.12,-176.17 929.97,-169.5 962.25,-132 995.3,-93.61 924.66,-77.89 862.62,-71.45"/>
<polygon fill="midnightblue" stroke="midnightblue" points="862.65,-67.94 852.36,-70.46 861.97,-74.91 862.65,-67.94"/>
</g>
<!-- Node13 -->
<g id="node13" class="node">
<title>Node13</title>
<g id="a_node13"><a xlink:title=" ">
<polygon fill="white" stroke="#bfbfbf" points="409.25,-112.5 409.25,-131.5 477.25,-131.5 477.25,-112.5 409.25,-112.5"/>
<text text-anchor="middle" x="443.25" y="-119.5" font-family="Helvetica,sans-Serif" font-size="10.00">filesystem</text>
</a>
</g>
</g>
<!-- Node6&#45;&gt;Node13 -->
<g id="edge13" class="edge">
<title>Node6&#45;&gt;Node13</title>
<path fill="none" stroke="midnightblue" d="M628.39,-168.44C590.22,-159.07 528.93,-144.03 487.42,-133.84"/>
<polygon fill="midnightblue" stroke="midnightblue" points="488.13,-130.41 477.58,-131.43 486.46,-137.21 488.13,-130.41"/>
</g>
<!-- Node14&#45;&gt;Node3 -->
<g id="edge15" class="edge">
<title>Node14&#45;&gt;Node3</title>
<path fill="none" stroke="midnightblue" d="M402.6,-169.63C399.43,-169.08 396.29,-168.53 393.25,-168 345.08,-159.67 207.86,-169.29 176.25,-132 162.15,-115.37 182.85,-94.98 201.3,-81.52"/>
<polygon fill="midnightblue" stroke="midnightblue" points="203.51,-84.25 209.75,-75.69 199.53,-78.49 203.51,-84.25"/>
</g>
<!-- Node14&#45;&gt;Node8 -->
<g id="edge22" class="edge">
<title>Node14&#45;&gt;Node8</title>
<path fill="none" stroke="midnightblue" d="M462.58,-168.44C482.57,-159.6 513.99,-145.69 536.81,-135.59"/>
<polygon fill="midnightblue" stroke="midnightblue" points="538.28,-138.76 546.01,-131.52 535.45,-132.36 538.28,-138.76"/>
</g>
<!-- Node14&#45;&gt;Node10 -->
<g id="edge20" class="edge">
<title>Node14&#45;&gt;Node10</title>
<path fill="none" stroke="midnightblue" d="M426.06,-168.32C408.9,-159.66 382.3,-146.24 362.5,-136.25"/>
<polygon fill="midnightblue" stroke="midnightblue" points="363.9,-133.04 353.4,-131.65 360.75,-139.28 363.9,-133.04"/>
</g>
<!-- Node14&#45;&gt;Node13 -->
<g id="edge23" class="edge">
<title>Node14&#45;&gt;Node13</title>
<path fill="none" stroke="midnightblue" d="M443.25,-168.08C443.25,-161.01 443.25,-150.86 443.25,-141.99"/>
<polygon fill="midnightblue" stroke="midnightblue" points="446.75,-141.75 443.25,-131.75 439.75,-141.75 446.75,-141.75"/>
</g>
<!-- Node15 -->
<g id="node15" class="node">
<title>Node15</title>
<g id="a_node15"><a xlink:href="quiz__set_8hpp.html" target="_top" xlink:title="クイズセットと統計情報の管理">
<polygon fill="white" stroke="red" points="185.25,-112.5 185.25,-131.5 263.25,-131.5 263.25,-112.5 185.25,-112.5"/>
<text text-anchor="middle" x="224.25" y="-119.5" font-family="Helvetica,sans-Serif" font-size="10.00">quiz_set.hpp</text>
</a>
</g>
</g>
<!-- Node14&#45;&gt;Node15 -->
<g id="edge16" class="edge">
<title>Node14&#45;&gt;Node15</title>
<path fill="none" stroke="midnightblue" d="M408.55,-168.44C370.66,-159.1 309.9,-144.12 268.59,-133.93"/>
<polygon fill="midnightblue" stroke="midnightblue" points="269.33,-130.51 258.79,-131.52 267.66,-137.31 269.33,-130.51"/>
</g>
<!-- Node21 -->
<g id="node16" class="node">
<title>Node21</title>
<g id="a_node16"><a xlink:title=" ">
<polygon fill="white" stroke="#bfbfbf" points="35.25,-112.5 35.25,-131.5 129.25,-131.5 129.25,-112.5 35.25,-112.5"/>
<text text-anchor="middle" x="82.25" y="-119.5" font-family="Helvetica,sans-Serif" font-size="10.00">gtkmm/paned.h</text>
</a>
</g>
</g>
<!-- Node14&#45;&gt;Node21 -->
<g id="edge21" class="edge">
<title>Node14&#45;&gt;Node21</title>
<path fill="none" stroke="midnightblue" d="M402.61,-169.56C399.44,-169.02 396.3,-168.49 393.25,-168 282.43,-150.05 254.33,-148.19 143.25,-132 142,-131.82 140.73,-131.63 139.45,-131.45"/>
<polygon fill="midnightblue" stroke="midnightblue" points="139.94,-127.98 129.53,-129.99 138.92,-134.91 139.94,-127.98"/>
</g>
<!-- Node15&#45;&gt;Node3 -->
<g id="edge17" class="edge">
<title>Node15&#45;&gt;Node3</title>
<path fill="none" stroke="midnightblue" d="M224.25,-112.08C224.25,-105.01 224.25,-94.86 224.25,-85.99"/>
<polygon fill="midnightblue" stroke="midnightblue" points="227.75,-85.75 224.25,-75.75 220.75,-85.75 227.75,-85.75"/>
</g>
<!-- Node15&#45;&gt;Node7 -->
<g id="edge18" class="edge">
<title>Node15&#45;&gt;Node7</title>
<path fill="none" stroke="midnightblue" d="M263.25,-113.66C313.28,-104.25 400.31,-87.87 456.83,-77.24"/>
<polygon fill="midnightblue" stroke="midnightblue" points="457.49,-80.68 466.67,-75.39 456.19,-73.8 457.49,-80.68"/>
</g>
<!-- Node15&#45;&gt;Node12 -->
<g id="edge19" class="edge">
<title>Node15&#45;&gt;Node12</title>
<path fill="none" stroke="midnightblue" d="M263.49,-113.32C266.45,-112.84 269.39,-112.39 272.25,-112 424.29,-91.1 603.2,-77.95 703.9,-71.58"/>
<polygon fill="midnightblue" stroke="midnightblue" points="704.23,-75.07 713.99,-70.95 703.79,-68.08 704.23,-75.07"/>
</g>
</g>
</svg>
