<?xml version="1.0" encoding="UTF-8" standalone="no"?>
<!DOCTYPE svg PUBLIC "-//W3C//DTD SVG 1.1//EN"
 "http://www.w3.org/Graphics/SVG/1.1/DTD/svg11.dtd">
<!-- Generated by graphviz version 2.43.0 (0)
 -->
<!-- Title: AppWindow Pages: 1 -->
<svg width="517pt" height="782pt"
 viewBox="0.00 0.00 516.50 782.00" xmlns="http://www.w3.org/2000/svg" xmlns:xlink="http://www.w3.org/1999/xlink">
<g id="graph0" class="graph" transform="scale(1 1) rotate(0) translate(4 778)">
<title>AppWindow</title>
<polygon fill="white" stroke="transparent" points="-4,4 -4,-778 512.5,-778 512.5,4 -4,4"/>
<!-- Node1 -->
<g id="node1" class="node">
<title>Node1</title>
<g id="a_node1"><a xlink:title="rootウィンドウクラス">
<polygon fill="#bfbfbf" stroke="black" points="88,-0.5 88,-134.5 277,-134.5 277,-0.5 88,-0.5"/>
<text text-anchor="middle" x="182.5" y="-122.5" font-family="Helvetica,sans-Serif" font-size="10.00">AppWindow</text>
<polyline fill="none" stroke="black" points="88,-115.5 277,-115.5 "/>
<text text-anchor="start" x="96" y="-103.5" font-family="Helvetica,sans-Serif" font-size="10.00">&#45; app_stack</text>
<text text-anchor="start" x="96" y="-92.5" font-family="Helvetica,sans-Serif" font-size="10.00">&#45; header_bar</text>
<text text-anchor="start" x="96" y="-81.5" font-family="Helvetica,sans-Serif" font-size="10.00">&#45; about_button</text>
<text text-anchor="start" x="96" y="-70.5" font-family="Helvetica,sans-Serif" font-size="10.00">&#45; about_dialog</text>
<polyline fill="none" stroke="black" points="88,-63.5 277,-63.5 "/>
<text text-anchor="start" x="96" y="-51.5" font-family="Helvetica,sans-Serif" font-size="10.00">+ AppWindow()</text>
<text text-anchor="start" x="96" y="-40.5" font-family="Helvetica,sans-Serif" font-size="10.00">&#45; onQuizSetButtonClickedIn</text>
<text text-anchor="start" x="96" y="-29.5" font-family="Helvetica,sans-Serif" font-size="10.00">HomeBox()</text>
<text text-anchor="start" x="96" y="-18.5" font-family="Helvetica,sans-Serif" font-size="10.00">&#45; onHomeButtonClickedInQuizBox()</text>
<text text-anchor="start" x="96" y="-7.5" font-family="Helvetica,sans-Serif" font-size="10.00">&#45; onAboutButtonClicked()</text>
</a>
</g>
</g>
<!-- Node2 -->
<g id="node2" class="node">
<title>Node2</title>
<g id="a_node2"><a xlink:title=" ">
<polygon fill="white" stroke="#bfbfbf" points="0,-309 0,-366 79,-366 79,-309 0,-309"/>
<text text-anchor="middle" x="39.5" y="-354" font-family="Helvetica,sans-Serif" font-size="10.00">Gtk::Window</text>
<polyline fill="none" stroke="#bfbfbf" points="0,-347 79,-347 "/>
<text text-anchor="middle" x="39.5" y="-335" font-family="Helvetica,sans-Serif" font-size="10.00"> </text>
<polyline fill="none" stroke="#bfbfbf" points="0,-328 79,-328 "/>
<text text-anchor="middle" x="39.5" y="-316" font-family="Helvetica,sans-Serif" font-size="10.00"> </text>
</a>
</g>
</g>
<!-- Node2&#45;&gt;Node1 -->
<g id="edge1" class="edge">
<title>Node2&#45;&gt;Node1</title>
<path fill="none" stroke="midnightblue" d="M47.11,-299.05C54.65,-266.72 68.07,-219.45 88.5,-182 97.38,-165.72 108.77,-149.55 120.54,-134.75"/>
<polygon fill="none" stroke="midnightblue" points="43.65,-298.47 44.86,-308.99 50.48,-300.01 43.65,-298.47"/>
</g>
<!-- Node3 -->
<g id="node3" class="node">
<title>Node3</title>
<g id="a_node3"><a xlink:href="classHomeBox.html" target="_top" xlink:title="home画面のルートにあたるGtk::Boxの派生クラス">
<polygon fill="white" stroke="black" points="97.5,-254 97.5,-421 267.5,-421 267.5,-254 97.5,-254"/>
<text text-anchor="middle" x="182.5" y="-409" font-family="Helvetica,sans-Serif" font-size="10.00">HomeBox</text>
<polyline fill="none" stroke="black" points="97.5,-402 267.5,-402 "/>
<text text-anchor="start" x="105.5" y="-390" font-family="Helvetica,sans-Serif" font-size="10.00">&#45; quiz_set_button_scrolled</text>
<text text-anchor="start" x="105.5" y="-379" font-family="Helvetica,sans-Serif" font-size="10.00">_window</text>
<text text-anchor="start" x="105.5" y="-368" font-family="Helvetica,sans-Serif" font-size="10.00">&#45; quiz_set_button_box</text>
<text text-anchor="start" x="105.5" y="-357" font-family="Helvetica,sans-Serif" font-size="10.00">&#45; quiz_set_button_vector</text>
<text text-anchor="start" x="105.5" y="-346" font-family="Helvetica,sans-Serif" font-size="10.00">&#45; vertical_separator</text>
<text text-anchor="start" x="105.5" y="-335" font-family="Helvetica,sans-Serif" font-size="10.00">&#45; option_button_box</text>
<text text-anchor="start" x="105.5" y="-324" font-family="Helvetica,sans-Serif" font-size="10.00">&#45; option_button_map</text>
<text text-anchor="start" x="105.5" y="-313" font-family="Helvetica,sans-Serif" font-size="10.00">&#45; signal_quiz_set_button</text>
<text text-anchor="start" x="105.5" y="-302" font-family="Helvetica,sans-Serif" font-size="10.00">_clicked</text>
<polyline fill="none" stroke="black" points="97.5,-295 267.5,-295 "/>
<text text-anchor="start" x="105.5" y="-283" font-family="Helvetica,sans-Serif" font-size="10.00">+ HomeBox()</text>
<text text-anchor="start" x="105.5" y="-272" font-family="Helvetica,sans-Serif" font-size="10.00">+ signalQuizSetButtonClicked()</text>
<text text-anchor="start" x="105.5" y="-261" font-family="Helvetica,sans-Serif" font-size="10.00">&#45; onQuizSetButtonClicked()</text>
</a>
</g>
</g>
<!-- Node3&#45;&gt;Node1 -->
<g id="edge2" class="edge">
<title>Node3&#45;&gt;Node1</title>
<path fill="none" stroke="#404040" d="M182.5,-253.9C182.5,-219.8 182.5,-180.45 182.5,-146.81"/>
<polygon fill="none" stroke="#404040" points="182.5,-146.69 178.5,-140.69 182.5,-134.69 186.5,-140.69 182.5,-146.69"/>
<text text-anchor="middle" x="211.5" y="-156" font-family="Helvetica,sans-Serif" font-size="10.00"> &#45;home_box</text>
</g>
<!-- Node4 -->
<g id="node4" class="node">
<title>Node4</title>
<g id="a_node4"><a xlink:title=" ">
<polygon fill="white" stroke="#bfbfbf" points="153,-628.5 153,-685.5 212,-685.5 212,-628.5 153,-628.5"/>
<text text-anchor="middle" x="182.5" y="-673.5" font-family="Helvetica,sans-Serif" font-size="10.00">Gtk::Box</text>
<polyline fill="none" stroke="#bfbfbf" points="153,-666.5 212,-666.5 "/>
<text text-anchor="middle" x="182.5" y="-654.5" font-family="Helvetica,sans-Serif" font-size="10.00"> </text>
<polyline fill="none" stroke="#bfbfbf" points="153,-647.5 212,-647.5 "/>
<text text-anchor="middle" x="182.5" y="-635.5" font-family="Helvetica,sans-Serif" font-size="10.00"> </text>
</a>
</g>
</g>
<!-- Node4&#45;&gt;Node3 -->
<g id="edge3" class="edge">
<title>Node4&#45;&gt;Node3</title>
<path fill="none" stroke="midnightblue" d="M182.5,-618.36C182.5,-570.05 182.5,-484.86 182.5,-421.12"/>
<polygon fill="none" stroke="midnightblue" points="179,-618.38 182.5,-628.38 186,-618.38 179,-618.38"/>
</g>
<!-- Node5 -->
<g id="node5" class="node">
<title>Node5</title>
<g id="a_node5"><a xlink:href="classQuizBox.html" target="_top" xlink:title="quiz画面のルートにあたるGtk::Boxの派生クラス">
<polygon fill="white" stroke="black" points="286,-182.5 286,-492.5 467,-492.5 467,-182.5 286,-182.5"/>
<text text-anchor="middle" x="376.5" y="-480.5" font-family="Helvetica,sans-Serif" font-size="10.00">QuizBox</text>
<polyline fill="none" stroke="black" points="286,-473.5 467,-473.5 "/>
<text text-anchor="start" x="294" y="-461.5" font-family="Helvetica,sans-Serif" font-size="10.00">&#45; header_box</text>
<text text-anchor="start" x="294" y="-450.5" font-family="Helvetica,sans-Serif" font-size="10.00">&#45; question_number_label</text>
<text text-anchor="start" x="294" y="-439.5" font-family="Helvetica,sans-Serif" font-size="10.00">&#45; statistics_label</text>
<text text-anchor="start" x="294" y="-428.5" font-family="Helvetica,sans-Serif" font-size="10.00">&#45; vertical_separator</text>
<text text-anchor="start" x="294" y="-417.5" font-family="Helvetica,sans-Serif" font-size="10.00">&#45; horizontal_paned</text>
<text text-anchor="start" x="294" y="-406.5" font-family="Helvetica,sans-Serif" font-size="10.00">&#45; qe_notebook</text>
<text text-anchor="start" x="294" y="-395.5" font-family="Helvetica,sans-Serif" font-size="10.00">&#45; question_web_view</text>
<text text-anchor="start" x="294" y="-384.5" font-family="Helvetica,sans-Serif" font-size="10.00">&#45; question_widget</text>
<text text-anchor="start" x="294" y="-373.5" font-family="Helvetica,sans-Serif" font-size="10.00">&#45; explanation_web_view</text>
<text text-anchor="start" x="294" y="-362.5" font-family="Helvetica,sans-Serif" font-size="10.00">&#45; explanation_widget</text>
<text text-anchor="start" x="294" y="-351.5" font-family="Helvetica,sans-Serif" font-size="10.00">and 11 more...</text>
<polyline fill="none" stroke="black" points="286,-344.5 467,-344.5 "/>
<text text-anchor="start" x="294" y="-332.5" font-family="Helvetica,sans-Serif" font-size="10.00">+ QuizBox()</text>
<text text-anchor="start" x="294" y="-321.5" font-family="Helvetica,sans-Serif" font-size="10.00">+ signalHomeButtonClicked()</text>
<text text-anchor="start" x="294" y="-310.5" font-family="Helvetica,sans-Serif" font-size="10.00">+ loadQuizSet()</text>
<text text-anchor="start" x="294" y="-299.5" font-family="Helvetica,sans-Serif" font-size="10.00">&#45; loadQuizData()</text>
<text text-anchor="start" x="294" y="-288.5" font-family="Helvetica,sans-Serif" font-size="10.00">&#45; setHeader()</text>
<text text-anchor="start" x="294" y="-277.5" font-family="Helvetica,sans-Serif" font-size="10.00">&#45; loadHtml()</text>
<text text-anchor="start" x="294" y="-266.5" font-family="Helvetica,sans-Serif" font-size="10.00">&#45; checkFirstOrLast()</text>
<text text-anchor="start" x="294" y="-255.5" font-family="Helvetica,sans-Serif" font-size="10.00">&#45; loadChoice()</text>
<text text-anchor="start" x="294" y="-244.5" font-family="Helvetica,sans-Serif" font-size="10.00">&#45; addChoiceButtonColorAndHide()</text>
<text text-anchor="start" x="294" y="-233.5" font-family="Helvetica,sans-Serif" font-size="10.00">&#45; onPreviousButtonClicked()</text>
<text text-anchor="start" x="294" y="-222.5" font-family="Helvetica,sans-Serif" font-size="10.00">&#45; onHomeButtonClicked()</text>
<text text-anchor="start" x="294" y="-211.5" font-family="Helvetica,sans-Serif" font-size="10.00">&#45; onNextButtonClicked()</text>
<text text-anchor="start" x="294" y="-200.5" font-family="Helvetica,sans-Serif" font-size="10.00">&#45; onChoiceButtonClicked()</text>
<text text-anchor="start" x="294" y="-189.5" font-family="Helvetica,sans-Serif" font-size="10.00">&#45; on_key_release_event()</text>
</a>
</g>
</g>
<!-- Node5&#45;&gt;Node1 -->
<g id="edge4" class="edge">
<title>Node5&#45;&gt;Node1</title>
<path fill="none" stroke="#404040" d="M285.88,-195C282.75,-190.59 279.62,-186.25 276.5,-182 267.33,-169.51 257.24,-156.57 247.18,-144.11"/>
<polygon fill="none" stroke="#404040" points="247.08,-143.98 240.19,-141.86 239.5,-134.68 246.39,-136.81 247.08,-143.98"/>
<text text-anchor="middle" x="288" y="-156" font-family="Helvetica,sans-Serif" font-size="10.00"> &#45;quiz_box</text>
</g>
<!-- Node6 -->
<g id="node6" class="node">
<title>Node6</title>
<g id="a_node6"><a xlink:title=" ">
<polygon fill="white" stroke="#bfbfbf" points="287,-628.5 287,-685.5 352,-685.5 352,-628.5 287,-628.5"/>
<text text-anchor="middle" x="319.5" y="-673.5" font-family="Helvetica,sans-Serif" font-size="10.00">Gtk::VBox</text>
<polyline fill="none" stroke="#bfbfbf" points="287,-666.5 352,-666.5 "/>
<text text-anchor="middle" x="319.5" y="-654.5" font-family="Helvetica,sans-Serif" font-size="10.00"> </text>
<polyline fill="none" stroke="#bfbfbf" points="287,-647.5 352,-647.5 "/>
<text text-anchor="middle" x="319.5" y="-635.5" font-family="Helvetica,sans-Serif" font-size="10.00"> </text>
</a>
</g>
</g>
<!-- Node6&#45;&gt;Node5 -->
<g id="edge5" class="edge">
<title>Node6&#45;&gt;Node5</title>
<path fill="none" stroke="midnightblue" d="M326.27,-618.31C331.93,-586.77 340.41,-539.54 348.8,-492.82"/>
<polygon fill="none" stroke="midnightblue" points="322.78,-617.92 324.46,-628.38 329.67,-619.16 322.78,-617.92"/>
</g>
<!-- Node7 -->
<g id="node7" class="node">
<title>Node7</title>
<g id="a_node7"><a xlink:href="classQuizSet.html" target="_top" xlink:title="クイズセットと統計情報の管理">
<polygon fill="white" stroke="black" points="370.5,-540.5 370.5,-773.5 508.5,-773.5 508.5,-540.5 370.5,-540.5"/>
<text text-anchor="middle" x="439.5" y="-761.5" font-family="Helvetica,sans-Serif" font-size="10.00">QuizSet</text>
<polyline fill="none" stroke="black" points="370.5,-754.5 508.5,-754.5 "/>
<text text-anchor="start" x="378.5" y="-742.5" font-family="Helvetica,sans-Serif" font-size="10.00">&#45; filepath</text>
<text text-anchor="start" x="378.5" y="-731.5" font-family="Helvetica,sans-Serif" font-size="10.00">&#45; quiz_data_vector</text>
<text text-anchor="start" x="378.5" y="-720.5" font-family="Helvetica,sans-Serif" font-size="10.00">&#45; quiz_set_length</text>
<text text-anchor="start" x="378.5" y="-709.5" font-family="Helvetica,sans-Serif" font-size="10.00">&#45; current_num</text>
<text text-anchor="start" x="378.5" y="-698.5" font-family="Helvetica,sans-Serif" font-size="10.00">&#45; correct_sum</text>
<text text-anchor="start" x="378.5" y="-687.5" font-family="Helvetica,sans-Serif" font-size="10.00">&#45; question_sum</text>
<polyline fill="none" stroke="black" points="370.5,-680.5 508.5,-680.5 "/>
<text text-anchor="start" x="378.5" y="-668.5" font-family="Helvetica,sans-Serif" font-size="10.00">+ QuizSet()</text>
<text text-anchor="start" x="378.5" y="-657.5" font-family="Helvetica,sans-Serif" font-size="10.00">+ QuizSet()</text>
<text text-anchor="start" x="378.5" y="-646.5" font-family="Helvetica,sans-Serif" font-size="10.00">+ shuffleQuizSet()</text>
<text text-anchor="start" x="378.5" y="-635.5" font-family="Helvetica,sans-Serif" font-size="10.00">+ getQuizData()</text>
<text text-anchor="start" x="378.5" y="-624.5" font-family="Helvetica,sans-Serif" font-size="10.00">+ getPreviousQuizData()</text>
<text text-anchor="start" x="378.5" y="-613.5" font-family="Helvetica,sans-Serif" font-size="10.00">+ getNextQuizData()</text>
<text text-anchor="start" x="378.5" y="-602.5" font-family="Helvetica,sans-Serif" font-size="10.00">+ getFilepath()</text>
<text text-anchor="start" x="378.5" y="-591.5" font-family="Helvetica,sans-Serif" font-size="10.00">+ getStatistics()</text>
<text text-anchor="start" x="378.5" y="-580.5" font-family="Helvetica,sans-Serif" font-size="10.00">+ isFirst()</text>
<text text-anchor="start" x="378.5" y="-569.5" font-family="Helvetica,sans-Serif" font-size="10.00">+ isLast()</text>
<text text-anchor="start" x="378.5" y="-558.5" font-family="Helvetica,sans-Serif" font-size="10.00">+ answer()</text>
<text text-anchor="start" x="378.5" y="-547.5" font-family="Helvetica,sans-Serif" font-size="10.00">&#45; parseJson()</text>
</a>
</g>
</g>
<!-- Node7&#45;&gt;Node5 -->
<g id="edge6" class="edge">
<title>Node7&#45;&gt;Node5</title>
<path fill="none" stroke="#404040" d="M416.58,-540.48C414.26,-528.77 411.87,-516.73 409.47,-504.63"/>
<polygon fill="none" stroke="#404040" points="409.4,-504.3 404.31,-499.19 407.06,-492.53 412.15,-497.63 409.4,-504.3"/>
<text text-anchor="middle" x="436.5" y="-514" font-family="Helvetica,sans-Serif" font-size="10.00"> &#45;quiz_set</text>
</g>
</g>
</svg>
