<?xml version="1.0" encoding="UTF-8" standalone="no"?>
<!DOCTYPE svg PUBLIC "-//W3C//DTD SVG 1.1//EN"
 "http://www.w3.org/Graphics/SVG/1.1/DTD/svg11.dtd">
<!-- Generated by graphviz version 2.43.0 (0)
 -->
<!-- Title: AppWindow Pages: 1 -->
<svg width="197pt" height="259pt"
 viewBox="0.00 0.00 197.00 259.00" xmlns="http://www.w3.org/2000/svg" xmlns:xlink="http://www.w3.org/1999/xlink">
<g id="graph0" class="graph" transform="scale(1 1) rotate(0) translate(4 255)">
<title>AppWindow</title>
<polygon fill="white" stroke="transparent" points="-4,4 -4,-255 193,-255 193,4 -4,4"/>
<!-- Node1 -->
<g id="node1" class="node">
<title>Node1</title>
<g id="a_node1"><a xlink:title="rootウィンドウクラス">
<polygon fill="#bfbfbf" stroke="black" points="0,-0.5 0,-156.5 189,-156.5 189,-0.5 0,-0.5"/>
<text text-anchor="middle" x="94.5" y="-144.5" font-family="Helvetica,sans-Serif" font-size="10.00">AppWindow</text>
<polyline fill="none" stroke="black" points="0,-137.5 189,-137.5 "/>
<text text-anchor="start" x="8" y="-125.5" font-family="Helvetica,sans-Serif" font-size="10.00">&#45; app_stack</text>
<text text-anchor="start" x="8" y="-114.5" font-family="Helvetica,sans-Serif" font-size="10.00">&#45; home_box</text>
<text text-anchor="start" x="8" y="-103.5" font-family="Helvetica,sans-Serif" font-size="10.00">&#45; quiz_box</text>
<text text-anchor="start" x="8" y="-92.5" font-family="Helvetica,sans-Serif" font-size="10.00">&#45; header_bar</text>
<text text-anchor="start" x="8" y="-81.5" font-family="Helvetica,sans-Serif" font-size="10.00">&#45; about_button</text>
<text text-anchor="start" x="8" y="-70.5" font-family="Helvetica,sans-Serif" font-size="10.00">&#45; about_dialog</text>
<polyline fill="none" stroke="black" points="0,-63.5 189,-63.5 "/>
<text text-anchor="start" x="8" y="-51.5" font-family="Helvetica,sans-Serif" font-size="10.00">+ AppWindow()</text>
<text text-anchor="start" x="8" y="-40.5" font-family="Helvetica,sans-Serif" font-size="10.00">&#45; onQuizSetButtonClickedIn</text>
<text text-anchor="start" x="8" y="-29.5" font-family="Helvetica,sans-Serif" font-size="10.00">HomeBox()</text>
<text text-anchor="start" x="8" y="-18.5" font-family="Helvetica,sans-Serif" font-size="10.00">&#45; onHomeButtonClickedInQuizBox()</text>
<text text-anchor="start" x="8" y="-7.5" font-family="Helvetica,sans-Serif" font-size="10.00">&#45; onAboutButtonClicked()</text>
</a>
</g>
</g>
<!-- Node2 -->
<g id="node2" class="node">
<title>Node2</title>
<g id="a_node2"><a xlink:title=" ">
<polygon fill="white" stroke="#bfbfbf" points="55,-193.5 55,-250.5 134,-250.5 134,-193.5 55,-193.5"/>
<text text-anchor="middle" x="94.5" y="-238.5" font-family="Helvetica,sans-Serif" font-size="10.00">Gtk::Window</text>
<polyline fill="none" stroke="#bfbfbf" points="55,-231.5 134,-231.5 "/>
<text text-anchor="middle" x="94.5" y="-219.5" font-family="Helvetica,sans-Serif" font-size="10.00"> </text>
<polyline fill="none" stroke="#bfbfbf" points="55,-212.5 134,-212.5 "/>
<text text-anchor="middle" x="94.5" y="-200.5" font-family="Helvetica,sans-Serif" font-size="10.00"> </text>
</a>
</g>
</g>
<!-- Node2&#45;&gt;Node1 -->
<g id="edge1" class="edge">
<title>Node2&#45;&gt;Node1</title>
<path fill="none" stroke="midnightblue" d="M94.5,-183.34C94.5,-175.04 94.5,-165.96 94.5,-156.74"/>
<polygon fill="none" stroke="midnightblue" points="91,-183.38 94.5,-193.38 98,-183.38 91,-183.38"/>
</g>
</g>
</svg>
