<?xml version="1.0" encoding="UTF-8" standalone="no"?>
<!DOCTYPE svg PUBLIC "-//W3C//DTD SVG 1.1//EN"
 "http://www.w3.org/Graphics/SVG/1.1/DTD/svg11.dtd">
<!-- Generated by graphviz version 2.43.0 (0)
 -->
<!-- Title: src/config.hpp Pages: 1 -->
<svg width="492pt" height="252pt"
 viewBox="0.00 0.00 492.00 252.00" xmlns="http://www.w3.org/2000/svg" xmlns:xlink="http://www.w3.org/1999/xlink">
<g id="graph0" class="graph" transform="scale(1 1) rotate(0) translate(4 248)">
<title>src/config.hpp</title>
<polygon fill="white" stroke="transparent" points="-4,4 -4,-248 488,-248 488,4 -4,4"/>
<!-- Node1 -->
<g id="node1" class="node">
<title>Node1</title>
<g id="a_node1"><a xlink:title="設定値管理ファイル">
<polygon fill="#bfbfbf" stroke="black" points="122.5,-224.5 122.5,-243.5 206.5,-243.5 206.5,-224.5 122.5,-224.5"/>
<text text-anchor="middle" x="164.5" y="-231.5" font-family="Helvetica,sans-Serif" font-size="10.00">src/config.hpp</text>
</a>
</g>
</g>
<!-- Node2 -->
<g id="node2" class="node">
<title>Node2</title>
<g id="a_node2"><a xlink:href="app__window_8hpp.html" target="_top" xlink:title="rootウィンドウクラス">
<polygon fill="white" stroke="black" points="68,-56.5 68,-75.5 183,-75.5 183,-56.5 68,-56.5"/>
<text text-anchor="middle" x="125.5" y="-63.5" font-family="Helvetica,sans-Serif" font-size="10.00">src/app_window.hpp</text>
</a>
</g>
</g>
<!-- Node1&#45;&gt;Node2 -->
<g id="edge1" class="edge">
<title>Node1&#45;&gt;Node2</title>
<path fill="none" stroke="midnightblue" d="M135.4,-219.65C122.87,-212.25 109.5,-201.73 102.5,-188 82.88,-149.52 108.54,-96.43 120.24,-75.74"/>
<polygon fill="midnightblue" stroke="midnightblue" points="133.82,-222.78 144.28,-224.49 137.17,-216.63 133.82,-222.78"/>
</g>
<!-- Node4 -->
<g id="node4" class="node">
<title>Node4</title>
<g id="a_node4"><a xlink:href="main_8cpp.html" target="_top" xlink:title=" ">
<polygon fill="white" stroke="black" points="0,-0.5 0,-19.5 79,-19.5 79,-0.5 0,-0.5"/>
<text text-anchor="middle" x="39.5" y="-7.5" font-family="Helvetica,sans-Serif" font-size="10.00">src/main.cpp</text>
</a>
</g>
</g>
<!-- Node1&#45;&gt;Node4 -->
<g id="edge13" class="edge">
<title>Node1&#45;&gt;Node4</title>
<path fill="none" stroke="midnightblue" d="M133.55,-219.93C119.23,-212.47 103.09,-201.83 92.5,-188 50.96,-133.75 41.86,-47.24 39.97,-19.71"/>
<polygon fill="midnightblue" stroke="midnightblue" points="132.1,-223.12 142.62,-224.37 135.18,-216.83 132.1,-223.12"/>
</g>
<!-- Node5 -->
<g id="node5" class="node">
<title>Node5</title>
<g id="a_node5"><a xlink:href="home__box_8hpp.html" target="_top" xlink:title="home画面のルートにあたるGtk::Boxの派生クラス">
<polygon fill="white" stroke="black" points="111.5,-168.5 111.5,-187.5 217.5,-187.5 217.5,-168.5 111.5,-168.5"/>
<text text-anchor="middle" x="164.5" y="-175.5" font-family="Helvetica,sans-Serif" font-size="10.00">src/home_box.hpp</text>
</a>
</g>
</g>
<!-- Node1&#45;&gt;Node5 -->
<g id="edge4" class="edge">
<title>Node1&#45;&gt;Node5</title>
<path fill="none" stroke="midnightblue" d="M164.5,-213.8C164.5,-204.91 164.5,-194.78 164.5,-187.75"/>
<polygon fill="midnightblue" stroke="midnightblue" points="161,-214.08 164.5,-224.08 168,-214.08 161,-214.08"/>
</g>
<!-- Node7 -->
<g id="node7" class="node">
<title>Node7</title>
<g id="a_node7"><a xlink:href="quiz__box_8hpp.html" target="_top" xlink:title="quiz画面のルートにあたるGtk::Boxの派生クラス">
<polygon fill="white" stroke="black" points="272.5,-112.5 272.5,-131.5 370.5,-131.5 370.5,-112.5 272.5,-112.5"/>
<text text-anchor="middle" x="321.5" y="-119.5" font-family="Helvetica,sans-Serif" font-size="10.00">src/quiz_box.hpp</text>
</a>
</g>
</g>
<!-- Node1&#45;&gt;Node7 -->
<g id="edge7" class="edge">
<title>Node1&#45;&gt;Node7</title>
<path fill="none" stroke="midnightblue" d="M185.31,-218.42C218.52,-195.15 282.46,-150.35 309.24,-131.59"/>
<polygon fill="midnightblue" stroke="midnightblue" points="183,-215.76 176.82,-224.37 187.02,-221.5 183,-215.76"/>
</g>
<!-- Node9 -->
<g id="node9" class="node">
<title>Node9</title>
<g id="a_node9"><a xlink:href="quiz__set_8hpp.html" target="_top" xlink:title="クイズセットと統計情報の管理">
<polygon fill="white" stroke="black" points="274,-168.5 274,-187.5 369,-187.5 369,-168.5 274,-168.5"/>
<text text-anchor="middle" x="321.5" y="-175.5" font-family="Helvetica,sans-Serif" font-size="10.00">src/quiz_set.hpp</text>
</a>
</g>
</g>
<!-- Node1&#45;&gt;Node9 -->
<g id="edge10" class="edge">
<title>Node1&#45;&gt;Node9</title>
<path fill="none" stroke="midnightblue" d="M198.89,-221.17C228.45,-211 270.37,-196.59 296.74,-187.52"/>
<polygon fill="midnightblue" stroke="midnightblue" points="197.7,-217.88 189.38,-224.44 199.97,-224.5 197.7,-217.88"/>
</g>
<!-- Node3 -->
<g id="node3" class="node">
<title>Node3</title>
<g id="a_node3"><a xlink:href="app__window_8cpp.html" target="_top" xlink:title=" ">
<polygon fill="white" stroke="black" points="97.5,-0.5 97.5,-19.5 211.5,-19.5 211.5,-0.5 97.5,-0.5"/>
<text text-anchor="middle" x="154.5" y="-7.5" font-family="Helvetica,sans-Serif" font-size="10.00">src/app_window.cpp</text>
</a>
</g>
</g>
<!-- Node2&#45;&gt;Node3 -->
<g id="edge2" class="edge">
<title>Node2&#45;&gt;Node3</title>
<path fill="none" stroke="midnightblue" d="M135.18,-46.98C140.1,-37.82 145.86,-27.09 149.8,-19.75"/>
<polygon fill="midnightblue" stroke="midnightblue" points="131.94,-45.62 130.29,-56.08 138.1,-48.93 131.94,-45.62"/>
</g>
<!-- Node2&#45;&gt;Node4 -->
<g id="edge3" class="edge">
<title>Node2&#45;&gt;Node4</title>
<path fill="none" stroke="midnightblue" d="M103.05,-50.9C87.28,-41 66.69,-28.07 53.28,-19.65"/>
<polygon fill="midnightblue" stroke="midnightblue" points="101.35,-53.97 111.68,-56.32 105.07,-48.04 101.35,-53.97"/>
</g>
<!-- Node5&#45;&gt;Node2 -->
<g id="edge5" class="edge">
<title>Node5&#45;&gt;Node2</title>
<path fill="none" stroke="midnightblue" d="M153.39,-159.84C148.53,-151.68 143.12,-141.62 139.5,-132 132.19,-112.55 128.24,-88.32 126.54,-75.64"/>
<polygon fill="midnightblue" stroke="midnightblue" points="150.47,-161.76 158.71,-168.41 156.41,-158.07 150.47,-161.76"/>
</g>
<!-- Node6 -->
<g id="node6" class="node">
<title>Node6</title>
<g id="a_node6"><a xlink:href="home__box_8cpp.html" target="_top" xlink:title=" ">
<polygon fill="white" stroke="black" points="149,-112.5 149,-131.5 254,-131.5 254,-112.5 149,-112.5"/>
<text text-anchor="middle" x="201.5" y="-119.5" font-family="Helvetica,sans-Serif" font-size="10.00">src/home_box.cpp</text>
</a>
</g>
</g>
<!-- Node5&#45;&gt;Node6 -->
<g id="edge6" class="edge">
<title>Node5&#45;&gt;Node6</title>
<path fill="none" stroke="midnightblue" d="M176.45,-159.57C182.81,-150.27 190.37,-139.25 195.5,-131.75"/>
<polygon fill="midnightblue" stroke="midnightblue" points="173.37,-157.86 170.61,-168.08 179.15,-161.81 173.37,-157.86"/>
</g>
<!-- Node7&#45;&gt;Node2 -->
<g id="edge8" class="edge">
<title>Node7&#45;&gt;Node2</title>
<path fill="none" stroke="midnightblue" d="M280.48,-109.7C243.49,-99.51 189.9,-84.74 156.41,-75.52"/>
<polygon fill="midnightblue" stroke="midnightblue" points="279.87,-113.16 290.44,-112.44 281.73,-106.41 279.87,-113.16"/>
</g>
<!-- Node8 -->
<g id="node8" class="node">
<title>Node8</title>
<g id="a_node8"><a xlink:href="quiz__box_8cpp.html" target="_top" xlink:title=" ">
<polygon fill="white" stroke="black" points="272.5,-56.5 272.5,-75.5 370.5,-75.5 370.5,-56.5 272.5,-56.5"/>
<text text-anchor="middle" x="321.5" y="-63.5" font-family="Helvetica,sans-Serif" font-size="10.00">src/quiz_box.cpp</text>
</a>
</g>
</g>
<!-- Node7&#45;&gt;Node8 -->
<g id="edge9" class="edge">
<title>Node7&#45;&gt;Node8</title>
<path fill="none" stroke="midnightblue" d="M321.5,-101.8C321.5,-92.91 321.5,-82.78 321.5,-75.75"/>
<polygon fill="midnightblue" stroke="midnightblue" points="318,-102.08 321.5,-112.08 325,-102.08 318,-102.08"/>
</g>
<!-- Node9&#45;&gt;Node7 -->
<g id="edge11" class="edge">
<title>Node9&#45;&gt;Node7</title>
<path fill="none" stroke="midnightblue" d="M321.5,-157.8C321.5,-148.91 321.5,-138.78 321.5,-131.75"/>
<polygon fill="midnightblue" stroke="midnightblue" points="318,-158.08 321.5,-168.08 325,-158.08 318,-158.08"/>
</g>
<!-- Node10 -->
<g id="node10" class="node">
<title>Node10</title>
<g id="a_node10"><a xlink:href="quiz__set_8cpp.html" target="_top" xlink:title=" ">
<polygon fill="white" stroke="black" points="389,-112.5 389,-131.5 484,-131.5 484,-112.5 389,-112.5"/>
<text text-anchor="middle" x="436.5" y="-119.5" font-family="Helvetica,sans-Serif" font-size="10.00">src/quiz_set.cpp</text>
</a>
</g>
</g>
<!-- Node9&#45;&gt;Node10 -->
<g id="edge12" class="edge">
<title>Node9&#45;&gt;Node10</title>
<path fill="none" stroke="midnightblue" d="M348.98,-164.1C370.47,-154.01 399.72,-140.27 418.36,-131.52"/>
<polygon fill="midnightblue" stroke="midnightblue" points="347.29,-161.02 339.72,-168.44 350.26,-167.36 347.29,-161.02"/>
</g>
</g>
</svg>
