<?xml version="1.0" encoding="UTF-8" standalone="no"?>
<!DOCTYPE svg PUBLIC "-//W3C//DTD SVG 1.1//EN"
 "http://www.w3.org/Graphics/SVG/1.1/DTD/svg11.dtd">
<!-- Generated by graphviz version 2.43.0 (0)
 -->
<!-- Title: src/home_box.cpp Pages: 1 -->
<svg width="1014pt" height="196pt"
 viewBox="0.00 0.00 1014.00 196.00" xmlns="http://www.w3.org/2000/svg" xmlns:xlink="http://www.w3.org/1999/xlink">
<g id="graph0" class="graph" transform="scale(1 1) rotate(0) translate(4 192)">
<title>src/home_box.cpp</title>
<polygon fill="white" stroke="transparent" points="-4,4 -4,-192 1010,-192 1010,4 -4,4"/>
<!-- Node1 -->
<g id="node1" class="node">
<title>Node1</title>
<g id="a_node1"><a xlink:title=" ">
<polygon fill="#bfbfbf" stroke="black" points="457.5,-168.5 457.5,-187.5 562.5,-187.5 562.5,-168.5 457.5,-168.5"/>
<text text-anchor="middle" x="510" y="-175.5" font-family="Helvetica,sans-Serif" font-size="10.00">src/home_box.cpp</text>
</a>
</g>
</g>
<!-- Node2 -->
<g id="node2" class="node">
<title>Node2</title>
<g id="a_node2"><a xlink:href="home__box_8hpp.html" target="_top" xlink:title="home画面のルートにあたるGtk::Boxの派生クラス">
<polygon fill="white" stroke="black" points="465.5,-112.5 465.5,-131.5 554.5,-131.5 554.5,-112.5 465.5,-112.5"/>
<text text-anchor="middle" x="510" y="-119.5" font-family="Helvetica,sans-Serif" font-size="10.00">home_box.hpp</text>
</a>
</g>
</g>
<!-- Node1&#45;&gt;Node2 -->
<g id="edge1" class="edge">
<title>Node1&#45;&gt;Node2</title>
<path fill="none" stroke="midnightblue" d="M510,-168.08C510,-161.01 510,-150.86 510,-141.99"/>
<polygon fill="midnightblue" stroke="midnightblue" points="513.5,-141.75 510,-131.75 506.5,-141.75 513.5,-141.75"/>
</g>
<!-- Node3 -->
<g id="node3" class="node">
<title>Node3</title>
<g id="a_node3"><a xlink:href="config_8hpp.html" target="_top" xlink:title="設定値管理ファイル">
<polygon fill="white" stroke="black" points="62.5,-56.5 62.5,-75.5 129.5,-75.5 129.5,-56.5 62.5,-56.5"/>
<text text-anchor="middle" x="96" y="-63.5" font-family="Helvetica,sans-Serif" font-size="10.00">config.hpp</text>
</a>
</g>
</g>
<!-- Node2&#45;&gt;Node3 -->
<g id="edge2" class="edge">
<title>Node2&#45;&gt;Node3</title>
<path fill="none" stroke="midnightblue" d="M465.28,-116.82C397.24,-110.2 263.44,-96.1 139.77,-76"/>
<polygon fill="midnightblue" stroke="midnightblue" points="140.18,-72.52 129.75,-74.35 139.05,-79.42 140.18,-72.52"/>
</g>
<!-- Node6 -->
<g id="node6" class="node">
<title>Node6</title>
<g id="a_node6"><a xlink:href="option__key_8hpp.html" target="_top" xlink:title="Home画面のオプションのチェックボックス識別用">
<polygon fill="white" stroke="black" points="147.5,-56.5 147.5,-75.5 236.5,-75.5 236.5,-56.5 147.5,-56.5"/>
<text text-anchor="middle" x="192" y="-63.5" font-family="Helvetica,sans-Serif" font-size="10.00">option_key.hpp</text>
</a>
</g>
</g>
<!-- Node2&#45;&gt;Node6 -->
<g id="edge5" class="edge">
<title>Node2&#45;&gt;Node6</title>
<path fill="none" stroke="midnightblue" d="M465.45,-113.43C408.05,-103.69 308.31,-86.75 246.47,-76.25"/>
<polygon fill="midnightblue" stroke="midnightblue" points="246.95,-72.78 236.51,-74.56 245.78,-79.68 246.95,-72.78"/>
</g>
<!-- Node7 -->
<g id="node7" class="node">
<title>Node7</title>
<g id="a_node7"><a xlink:title=" ">
<polygon fill="white" stroke="#bfbfbf" points="254.5,-56.5 254.5,-75.5 393.5,-75.5 393.5,-56.5 254.5,-56.5"/>
<text text-anchor="middle" x="324" y="-63.5" font-family="Helvetica,sans-Serif" font-size="10.00">gtkmm/scrolledwindow.h</text>
</a>
</g>
</g>
<!-- Node2&#45;&gt;Node7 -->
<g id="edge6" class="edge">
<title>Node2&#45;&gt;Node7</title>
<path fill="none" stroke="midnightblue" d="M480.53,-112.44C448.83,-103.24 398.27,-88.56 363.23,-78.39"/>
<polygon fill="midnightblue" stroke="midnightblue" points="363.91,-74.94 353.33,-75.52 361.96,-81.67 363.91,-74.94"/>
</g>
<!-- Node8 -->
<g id="node8" class="node">
<title>Node8</title>
<g id="a_node8"><a xlink:title=" ">
<polygon fill="white" stroke="#bfbfbf" points="412,-56.5 412,-75.5 494,-75.5 494,-56.5 412,-56.5"/>
<text text-anchor="middle" x="453" y="-63.5" font-family="Helvetica,sans-Serif" font-size="10.00">gtkmm/box.h</text>
</a>
</g>
</g>
<!-- Node2&#45;&gt;Node8 -->
<g id="edge7" class="edge">
<title>Node2&#45;&gt;Node8</title>
<path fill="none" stroke="midnightblue" d="M500.84,-112.32C492.5,-104.42 479.97,-92.55 469.82,-82.94"/>
<polygon fill="midnightblue" stroke="midnightblue" points="471.99,-80.17 462.32,-75.83 467.18,-85.25 471.99,-80.17"/>
</g>
<!-- Node9 -->
<g id="node9" class="node">
<title>Node9</title>
<g id="a_node9"><a xlink:title=" ">
<polygon fill="white" stroke="#bfbfbf" points="512,-56.5 512,-75.5 622,-75.5 622,-56.5 512,-56.5"/>
<text text-anchor="middle" x="567" y="-63.5" font-family="Helvetica,sans-Serif" font-size="10.00">gtkmm/separator.h</text>
</a>
</g>
</g>
<!-- Node2&#45;&gt;Node9 -->
<g id="edge8" class="edge">
<title>Node2&#45;&gt;Node9</title>
<path fill="none" stroke="midnightblue" d="M519.16,-112.32C527.5,-104.42 540.03,-92.55 550.18,-82.94"/>
<polygon fill="midnightblue" stroke="midnightblue" points="552.82,-85.25 557.68,-75.83 548.01,-80.17 552.82,-85.25"/>
</g>
<!-- Node10 -->
<g id="node10" class="node">
<title>Node10</title>
<g id="a_node10"><a xlink:title=" ">
<polygon fill="white" stroke="#bfbfbf" points="640,-56.5 640,-75.5 764,-75.5 764,-56.5 640,-56.5"/>
<text text-anchor="middle" x="702" y="-63.5" font-family="Helvetica,sans-Serif" font-size="10.00">gtkmm/checkbutton.h</text>
</a>
</g>
</g>
<!-- Node2&#45;&gt;Node10 -->
<g id="edge9" class="edge">
<title>Node2&#45;&gt;Node10</title>
<path fill="none" stroke="midnightblue" d="M540.42,-112.44C573.28,-103.2 625.78,-88.44 661.97,-78.26"/>
<polygon fill="midnightblue" stroke="midnightblue" points="663.04,-81.59 671.72,-75.52 661.15,-74.85 663.04,-81.59"/>
</g>
<!-- Node11 -->
<g id="node11" class="node">
<title>Node11</title>
<g id="a_node11"><a xlink:title=" ">
<polygon fill="white" stroke="#bfbfbf" points="782,-56.5 782,-75.5 920,-75.5 920,-56.5 782,-56.5"/>
<text text-anchor="middle" x="851" y="-63.5" font-family="Helvetica,sans-Serif" font-size="10.00">gtkmm/messagedialog.h</text>
</a>
</g>
</g>
<!-- Node2&#45;&gt;Node11 -->
<g id="edge10" class="edge">
<title>Node2&#45;&gt;Node11</title>
<path fill="none" stroke="midnightblue" d="M554.58,-113.94C613.91,-104.55 719.19,-87.87 787,-77.13"/>
<polygon fill="midnightblue" stroke="midnightblue" points="787.81,-80.55 797.14,-75.53 786.71,-73.64 787.81,-80.55"/>
</g>
<!-- Node12 -->
<g id="node12" class="node">
<title>Node12</title>
<g id="a_node12"><a xlink:title=" ">
<polygon fill="white" stroke="#bfbfbf" points="938,-56.5 938,-75.5 1006,-75.5 1006,-56.5 938,-56.5"/>
<text text-anchor="middle" x="972" y="-63.5" font-family="Helvetica,sans-Serif" font-size="10.00">filesystem</text>
</a>
</g>
</g>
<!-- Node2&#45;&gt;Node12 -->
<g id="edge11" class="edge">
<title>Node2&#45;&gt;Node12</title>
<path fill="none" stroke="midnightblue" d="M554.53,-117.68C629.49,-111.77 785.77,-98.09 927.6,-76.08"/>
<polygon fill="midnightblue" stroke="midnightblue" points="928.45,-79.49 937.79,-74.48 927.37,-72.57 928.45,-79.49"/>
</g>
<!-- Node4 -->
<g id="node4" class="node">
<title>Node4</title>
<g id="a_node4"><a xlink:title=" ">
<polygon fill="white" stroke="#bfbfbf" points="0,-0.5 0,-19.5 100,-19.5 100,-0.5 0,-0.5"/>
<text text-anchor="middle" x="50" y="-7.5" font-family="Helvetica,sans-Serif" font-size="10.00">glibmm/ustring.h</text>
</a>
</g>
</g>
<!-- Node3&#45;&gt;Node4 -->
<g id="edge3" class="edge">
<title>Node3&#45;&gt;Node4</title>
<path fill="none" stroke="midnightblue" d="M88.4,-56.08C81.77,-48.3 71.98,-36.8 63.94,-27.37"/>
<polygon fill="midnightblue" stroke="midnightblue" points="66.6,-25.09 57.45,-19.75 61.27,-29.63 66.6,-25.09"/>
</g>
<!-- Node5 -->
<g id="node5" class="node">
<title>Node5</title>
<g id="a_node5"><a xlink:title=" ">
<polygon fill="white" stroke="#bfbfbf" points="118.5,-0.5 118.5,-19.5 165.5,-19.5 165.5,-0.5 118.5,-0.5"/>
<text text-anchor="middle" x="142" y="-7.5" font-family="Helvetica,sans-Serif" font-size="10.00">vector</text>
</a>
</g>
</g>
<!-- Node3&#45;&gt;Node5 -->
<g id="edge4" class="edge">
<title>Node3&#45;&gt;Node5</title>
<path fill="none" stroke="midnightblue" d="M103.6,-56.08C110.23,-48.3 120.02,-36.8 128.06,-27.37"/>
<polygon fill="midnightblue" stroke="midnightblue" points="130.73,-29.63 134.55,-19.75 125.4,-25.09 130.73,-29.63"/>
</g>
</g>
</svg>
