<?xml version="1.0" encoding="UTF-8" standalone="no"?>
<!DOCTYPE svg PUBLIC "-//W3C//DTD SVG 1.1//EN"
 "http://www.w3.org/Graphics/SVG/1.1/DTD/svg11.dtd">
<!-- Generated by graphviz version 2.43.0 (0)
 -->
<!-- Title: src/main.cpp Pages: 1 -->
<svg width="1376pt" height="319pt"
 viewBox="0.00 0.00 1376.33 319.00" xmlns="http://www.w3.org/2000/svg" xmlns:xlink="http://www.w3.org/1999/xlink">
<g id="graph0" class="graph" transform="scale(1 1) rotate(0) translate(4 315)">
<title>src/main.cpp</title>
<polygon fill="white" stroke="transparent" points="-4,4 -4,-315 1372.33,-315 1372.33,4 -4,4"/>
<!-- Node1 -->
<g id="node1" class="node">
<title>Node1</title>
<g id="a_node1"><a xlink:title=" ">
<polygon fill="#bfbfbf" stroke="black" points="1182.83,-291.5 1182.83,-310.5 1261.83,-310.5 1261.83,-291.5 1182.83,-291.5"/>
<text text-anchor="middle" x="1222.33" y="-298.5" font-family="Helvetica,sans-Serif" font-size="10.00">src/main.cpp</text>
</a>
</g>
</g>
<!-- Node2 -->
<g id="node2" class="node">
<title>Node2</title>
<g id="a_node2"><a xlink:href="config_8hpp.html" target="_top" xlink:title="設定値管理ファイル">
<polygon fill="white" stroke="black" points="1112.83,-62 1112.83,-81 1179.83,-81 1179.83,-62 1112.83,-62"/>
<text text-anchor="middle" x="1146.33" y="-69" font-family="Helvetica,sans-Serif" font-size="10.00">config.hpp</text>
</a>
</g>
</g>
<!-- Node1&#45;&gt;Node2 -->
<g id="edge1" class="edge">
<title>Node1&#45;&gt;Node2</title>
<path fill="none" stroke="midnightblue" d="M1221.99,-291.45C1220.65,-265.11 1214.36,-183.28 1186.33,-123 1180.42,-110.29 1170.71,-97.93 1162.34,-88.61"/>
<polygon fill="midnightblue" stroke="midnightblue" points="1164.85,-86.18 1155.46,-81.28 1159.75,-90.97 1164.85,-86.18"/>
</g>
<!-- Node5 -->
<g id="node5" class="node">
<title>Node5</title>
<g id="a_node5"><a xlink:href="app__window_8hpp.html" target="_top" xlink:title="rootウィンドウクラス">
<polygon fill="white" stroke="black" points="907.33,-235.5 907.33,-254.5 1005.33,-254.5 1005.33,-235.5 907.33,-235.5"/>
<text text-anchor="middle" x="956.33" y="-242.5" font-family="Helvetica,sans-Serif" font-size="10.00">app_window.hpp</text>
</a>
</g>
</g>
<!-- Node1&#45;&gt;Node5 -->
<g id="edge4" class="edge">
<title>Node1&#45;&gt;Node5</title>
<path fill="none" stroke="midnightblue" d="M1182.79,-291.97C1136.39,-282.55 1059.3,-266.9 1008.15,-256.52"/>
<polygon fill="midnightblue" stroke="midnightblue" points="1008.78,-253.08 998.28,-254.52 1007.38,-259.94 1008.78,-253.08"/>
</g>
<!-- Node27 -->
<g id="node27" class="node">
<title>Node27</title>
<g id="a_node27"><a xlink:title=" ">
<polygon fill="white" stroke="#bfbfbf" points="1250.33,-235.5 1250.33,-254.5 1368.33,-254.5 1368.33,-235.5 1250.33,-235.5"/>
<text text-anchor="middle" x="1309.33" y="-242.5" font-family="Helvetica,sans-Serif" font-size="10.00">gtkmm/application.h</text>
</a>
</g>
</g>
<!-- Node1&#45;&gt;Node27 -->
<g id="edge35" class="edge">
<title>Node1&#45;&gt;Node27</title>
<path fill="none" stroke="midnightblue" d="M1236.31,-291.32C1249.88,-282.9 1270.71,-269.97 1286.65,-260.07"/>
<polygon fill="midnightblue" stroke="midnightblue" points="1288.73,-262.9 1295.39,-254.65 1285.04,-256.95 1288.73,-262.9"/>
</g>
<!-- Node3 -->
<g id="node3" class="node">
<title>Node3</title>
<g id="a_node3"><a xlink:title=" ">
<polygon fill="white" stroke="#bfbfbf" points="1050.33,-0.5 1050.33,-19.5 1150.33,-19.5 1150.33,-0.5 1050.33,-0.5"/>
<text text-anchor="middle" x="1100.33" y="-7.5" font-family="Helvetica,sans-Serif" font-size="10.00">glibmm/ustring.h</text>
</a>
</g>
</g>
<!-- Node2&#45;&gt;Node3 -->
<g id="edge2" class="edge">
<title>Node2&#45;&gt;Node3</title>
<path fill="none" stroke="midnightblue" d="M1139.74,-61.98C1132.84,-53.05 1121.83,-38.81 1113.2,-27.64"/>
<polygon fill="midnightblue" stroke="midnightblue" points="1115.79,-25.28 1106.91,-19.51 1110.25,-29.56 1115.79,-25.28"/>
</g>
<!-- Node4 -->
<g id="node4" class="node">
<title>Node4</title>
<g id="a_node4"><a xlink:title=" ">
<polygon fill="white" stroke="#bfbfbf" points="1168.83,-0.5 1168.83,-19.5 1215.83,-19.5 1215.83,-0.5 1168.83,-0.5"/>
<text text-anchor="middle" x="1192.33" y="-7.5" font-family="Helvetica,sans-Serif" font-size="10.00">vector</text>
</a>
</g>
</g>
<!-- Node2&#45;&gt;Node4 -->
<g id="edge3" class="edge">
<title>Node2&#45;&gt;Node4</title>
<path fill="none" stroke="midnightblue" d="M1152.92,-61.98C1159.82,-53.05 1170.83,-38.81 1179.46,-27.64"/>
<polygon fill="midnightblue" stroke="midnightblue" points="1182.4,-29.56 1185.75,-19.51 1176.87,-25.28 1182.4,-29.56"/>
</g>
<!-- Node5&#45;&gt;Node2 -->
<g id="edge5" class="edge">
<title>Node5&#45;&gt;Node2</title>
<path fill="none" stroke="midnightblue" d="M1005.51,-240.39C1060.85,-235.2 1145.62,-223.4 1165.33,-199 1190.82,-167.44 1170.26,-116.51 1156.39,-89.93"/>
<polygon fill="midnightblue" stroke="midnightblue" points="1159.38,-88.11 1151.51,-81.02 1153.24,-91.47 1159.38,-88.11"/>
</g>
<!-- Node6 -->
<g id="node6" class="node">
<title>Node6</title>
<g id="a_node6"><a xlink:href="home__box_8hpp.html" target="_top" xlink:title="home画面のルートにあたるGtk::Boxの派生クラス">
<polygon fill="white" stroke="black" points="253.83,-179.5 253.83,-198.5 342.83,-198.5 342.83,-179.5 253.83,-179.5"/>
<text text-anchor="middle" x="298.33" y="-186.5" font-family="Helvetica,sans-Serif" font-size="10.00">home_box.hpp</text>
</a>
</g>
</g>
<!-- Node5&#45;&gt;Node6 -->
<g id="edge6" class="edge">
<title>Node5&#45;&gt;Node6</title>
<path fill="none" stroke="midnightblue" d="M907.14,-239.96C787,-230.1 479.25,-204.85 353.31,-194.51"/>
<polygon fill="midnightblue" stroke="midnightblue" points="353.38,-191.01 343.13,-193.68 352.81,-197.98 353.38,-191.01"/>
</g>
<!-- Node14 -->
<g id="node14" class="node">
<title>Node14</title>
<g id="a_node14"><a xlink:href="quiz__box_8hpp.html" target="_top" xlink:title="quiz画面のルートにあたるGtk::Boxの派生クラス">
<polygon fill="white" stroke="black" points="688.83,-179.5 688.83,-198.5 769.83,-198.5 769.83,-179.5 688.83,-179.5"/>
<text text-anchor="middle" x="729.33" y="-186.5" font-family="Helvetica,sans-Serif" font-size="10.00">quiz_box.hpp</text>
</a>
</g>
</g>
<!-- Node5&#45;&gt;Node14 -->
<g id="edge15" class="edge">
<title>Node5&#45;&gt;Node14</title>
<path fill="none" stroke="midnightblue" d="M920.36,-235.44C881.01,-226.08 817.84,-211.06 775.01,-200.87"/>
<polygon fill="midnightblue" stroke="midnightblue" points="775.67,-197.43 765.13,-198.52 774.05,-204.24 775.67,-197.43"/>
</g>
<!-- Node24 -->
<g id="node24" class="node">
<title>Node24</title>
<g id="a_node24"><a xlink:title=" ">
<polygon fill="white" stroke="#bfbfbf" points="788.33,-179.5 788.33,-198.5 878.33,-198.5 878.33,-179.5 788.33,-179.5"/>
<text text-anchor="middle" x="833.33" y="-186.5" font-family="Helvetica,sans-Serif" font-size="10.00">gtkmm/stack.h</text>
</a>
</g>
</g>
<!-- Node5&#45;&gt;Node24 -->
<g id="edge32" class="edge">
<title>Node5&#45;&gt;Node24</title>
<path fill="none" stroke="midnightblue" d="M936.84,-235.44C916.69,-226.6 885.01,-212.69 862,-202.59"/>
<polygon fill="midnightblue" stroke="midnightblue" points="863.29,-199.33 852.73,-198.52 860.48,-205.74 863.29,-199.33"/>
</g>
<!-- Node25 -->
<g id="node25" class="node">
<title>Node25</title>
<g id="a_node25"><a xlink:title=" ">
<polygon fill="white" stroke="#bfbfbf" points="896.83,-179.5 896.83,-198.5 1015.83,-198.5 1015.83,-179.5 896.83,-179.5"/>
<text text-anchor="middle" x="956.33" y="-186.5" font-family="Helvetica,sans-Serif" font-size="10.00">gtkmm/cssprovider.h</text>
</a>
</g>
</g>
<!-- Node5&#45;&gt;Node25 -->
<g id="edge33" class="edge">
<title>Node5&#45;&gt;Node25</title>
<path fill="none" stroke="midnightblue" d="M956.33,-235.08C956.33,-228.01 956.33,-217.86 956.33,-208.99"/>
<polygon fill="midnightblue" stroke="midnightblue" points="959.83,-208.75 956.33,-198.75 952.83,-208.75 959.83,-208.75"/>
</g>
<!-- Node26 -->
<g id="node26" class="node">
<title>Node26</title>
<g id="a_node26"><a xlink:title=" ">
<polygon fill="white" stroke="#bfbfbf" points="1034.33,-179.5 1034.33,-198.5 1156.33,-198.5 1156.33,-179.5 1034.33,-179.5"/>
<text text-anchor="middle" x="1095.33" y="-186.5" font-family="Helvetica,sans-Serif" font-size="10.00">gtkmm/aboutdialog.h</text>
</a>
</g>
</g>
<!-- Node5&#45;&gt;Node26 -->
<g id="edge34" class="edge">
<title>Node5&#45;&gt;Node26</title>
<path fill="none" stroke="midnightblue" d="M978.35,-235.44C1001.43,-226.48 1037.89,-212.31 1063.97,-202.18"/>
<polygon fill="midnightblue" stroke="midnightblue" points="1065.35,-205.4 1073.41,-198.52 1062.82,-198.88 1065.35,-205.4"/>
</g>
<!-- Node6&#45;&gt;Node2 -->
<g id="edge7" class="edge">
<title>Node6&#45;&gt;Node2</title>
<path fill="none" stroke="midnightblue" d="M343.12,-188.6C421.78,-188.48 589.12,-183 723.33,-143 742,-137.44 743.73,-128.8 762.33,-123 881.63,-85.79 1030.11,-75.99 1102.51,-73.42"/>
<polygon fill="midnightblue" stroke="midnightblue" points="1102.75,-76.91 1112.63,-73.09 1102.52,-69.91 1102.75,-76.91"/>
</g>
<!-- Node7 -->
<g id="node7" class="node">
<title>Node7</title>
<g id="a_node7"><a xlink:href="option__key_8hpp.html" target="_top" xlink:title="Home画面のオプションのチェックボックス識別用">
<polygon fill="white" stroke="black" points="22.83,-62 22.83,-81 111.83,-81 111.83,-62 22.83,-62"/>
<text text-anchor="middle" x="67.33" y="-69" font-family="Helvetica,sans-Serif" font-size="10.00">option_key.hpp</text>
</a>
</g>
</g>
<!-- Node6&#45;&gt;Node7 -->
<g id="edge8" class="edge">
<title>Node6&#45;&gt;Node7</title>
<path fill="none" stroke="midnightblue" d="M253.67,-187.93C179.7,-186.75 36.79,-179.66 5.33,-143 -11.8,-123.04 17.31,-100.23 41.16,-86.09"/>
<polygon fill="midnightblue" stroke="midnightblue" points="42.96,-89.1 49.94,-81.12 39.51,-83 42.96,-89.1"/>
</g>
<!-- Node8 -->
<g id="node8" class="node">
<title>Node8</title>
<g id="a_node8"><a xlink:title=" ">
<polygon fill="white" stroke="#bfbfbf" points="350.83,-123.5 350.83,-142.5 489.83,-142.5 489.83,-123.5 350.83,-123.5"/>
<text text-anchor="middle" x="420.33" y="-130.5" font-family="Helvetica,sans-Serif" font-size="10.00">gtkmm/scrolledwindow.h</text>
</a>
</g>
</g>
<!-- Node6&#45;&gt;Node8 -->
<g id="edge9" class="edge">
<title>Node6&#45;&gt;Node8</title>
<path fill="none" stroke="midnightblue" d="M317.66,-179.44C337.65,-170.6 369.07,-156.69 391.89,-146.59"/>
<polygon fill="midnightblue" stroke="midnightblue" points="393.36,-149.76 401.09,-142.52 390.53,-143.36 393.36,-149.76"/>
</g>
<!-- Node9 -->
<g id="node9" class="node">
<title>Node9</title>
<g id="a_node9"><a xlink:title=" ">
<polygon fill="white" stroke="#bfbfbf" points="22.33,-123.5 22.33,-142.5 104.33,-142.5 104.33,-123.5 22.33,-123.5"/>
<text text-anchor="middle" x="63.33" y="-130.5" font-family="Helvetica,sans-Serif" font-size="10.00">gtkmm/box.h</text>
</a>
</g>
</g>
<!-- Node6&#45;&gt;Node9 -->
<g id="edge10" class="edge">
<title>Node6&#45;&gt;Node9</title>
<path fill="none" stroke="midnightblue" d="M261.09,-179.44C220.27,-170.06 154.69,-154.99 110.34,-144.8"/>
<polygon fill="midnightblue" stroke="midnightblue" points="110.92,-141.34 100.39,-142.52 109.35,-148.17 110.92,-141.34"/>
</g>
<!-- Node10 -->
<g id="node10" class="node">
<title>Node10</title>
<g id="a_node10"><a xlink:title=" ">
<polygon fill="white" stroke="#bfbfbf" points="508.33,-123.5 508.33,-142.5 618.33,-142.5 618.33,-123.5 508.33,-123.5"/>
<text text-anchor="middle" x="563.33" y="-130.5" font-family="Helvetica,sans-Serif" font-size="10.00">gtkmm/separator.h</text>
</a>
</g>
</g>
<!-- Node6&#45;&gt;Node10 -->
<g id="edge11" class="edge">
<title>Node6&#45;&gt;Node10</title>
<path fill="none" stroke="midnightblue" d="M340.32,-179.44C386.74,-169.98 461.56,-154.74 511.57,-144.55"/>
<polygon fill="midnightblue" stroke="midnightblue" points="512.44,-147.94 521.54,-142.52 511.04,-141.08 512.44,-147.94"/>
</g>
<!-- Node11 -->
<g id="node11" class="node">
<title>Node11</title>
<g id="a_node11"><a xlink:title=" ">
<polygon fill="white" stroke="#bfbfbf" points="122.33,-123.5 122.33,-142.5 246.33,-142.5 246.33,-123.5 122.33,-123.5"/>
<text text-anchor="middle" x="184.33" y="-130.5" font-family="Helvetica,sans-Serif" font-size="10.00">gtkmm/checkbutton.h</text>
</a>
</g>
</g>
<!-- Node6&#45;&gt;Node11 -->
<g id="edge12" class="edge">
<title>Node6&#45;&gt;Node11</title>
<path fill="none" stroke="midnightblue" d="M280.27,-179.44C261.75,-170.68 232.75,-156.94 211.47,-146.86"/>
<polygon fill="midnightblue" stroke="midnightblue" points="212.84,-143.63 202.31,-142.52 209.85,-149.96 212.84,-143.63"/>
</g>
<!-- Node12 -->
<g id="node12" class="node">
<title>Node12</title>
<g id="a_node12"><a xlink:title=" ">
<polygon fill="white" stroke="#bfbfbf" points="251.33,-62 251.33,-81 389.33,-81 389.33,-62 251.33,-62"/>
<text text-anchor="middle" x="320.33" y="-69" font-family="Helvetica,sans-Serif" font-size="10.00">gtkmm/messagedialog.h</text>
</a>
</g>
</g>
<!-- Node6&#45;&gt;Node12 -->
<g id="edge13" class="edge">
<title>Node6&#45;&gt;Node12</title>
<path fill="none" stroke="midnightblue" d="M253.72,-187.71C181.43,-186.19 43.71,-178.56 13.33,-143 7.55,-136.24 7.58,-129.78 13.33,-123 27.98,-105.75 155.05,-89.44 241.05,-80.23"/>
<polygon fill="midnightblue" stroke="midnightblue" points="241.49,-83.71 251.06,-79.17 240.75,-76.74 241.49,-83.71"/>
</g>
<!-- Node13 -->
<g id="node13" class="node">
<title>Node13</title>
<g id="a_node13"><a xlink:title=" ">
<polygon fill="white" stroke="#bfbfbf" points="264.33,-123.5 264.33,-142.5 332.33,-142.5 332.33,-123.5 264.33,-123.5"/>
<text text-anchor="middle" x="298.33" y="-130.5" font-family="Helvetica,sans-Serif" font-size="10.00">filesystem</text>
</a>
</g>
</g>
<!-- Node6&#45;&gt;Node13 -->
<g id="edge14" class="edge">
<title>Node6&#45;&gt;Node13</title>
<path fill="none" stroke="midnightblue" d="M298.33,-179.08C298.33,-172.01 298.33,-161.86 298.33,-152.99"/>
<polygon fill="midnightblue" stroke="midnightblue" points="301.83,-152.75 298.33,-142.75 294.83,-152.75 301.83,-152.75"/>
</g>
<!-- Node14&#45;&gt;Node2 -->
<g id="edge16" class="edge">
<title>Node14&#45;&gt;Node2</title>
<path fill="none" stroke="midnightblue" d="M769.95,-180.43C773.12,-179.92 776.27,-179.43 779.33,-179 856.31,-168.11 1068.13,-193.4 1127.33,-143 1142.09,-130.44 1145.99,-107.73 1146.75,-91.48"/>
<polygon fill="midnightblue" stroke="midnightblue" points="1150.25,-91.06 1146.85,-81.03 1143.25,-90.99 1150.25,-91.06"/>
</g>
<!-- Node14&#45;&gt;Node8 -->
<g id="edge29" class="edge">
<title>Node14&#45;&gt;Node8</title>
<path fill="none" stroke="midnightblue" d="M688.61,-180.88C634.98,-171.51 540.29,-154.96 478.95,-144.24"/>
<polygon fill="midnightblue" stroke="midnightblue" points="479.48,-140.78 469.03,-142.51 478.28,-147.68 479.48,-140.78"/>
</g>
<!-- Node14&#45;&gt;Node10 -->
<g id="edge26" class="edge">
<title>Node14&#45;&gt;Node10</title>
<path fill="none" stroke="midnightblue" d="M703.03,-179.44C674.98,-170.32 630.38,-155.81 599.14,-145.65"/>
<polygon fill="midnightblue" stroke="midnightblue" points="600.1,-142.28 589.51,-142.52 597.94,-148.94 600.1,-142.28"/>
</g>
<!-- Node14&#45;&gt;Node13 -->
<g id="edge31" class="edge">
<title>Node14&#45;&gt;Node13</title>
<path fill="none" stroke="midnightblue" d="M688.66,-184.51C619.56,-178.31 474.64,-164.16 342.44,-143.05"/>
<polygon fill="midnightblue" stroke="midnightblue" points="342.97,-139.59 332.54,-141.45 341.86,-146.5 342.97,-139.59"/>
</g>
<!-- Node15 -->
<g id="node15" class="node">
<title>Node15</title>
<g id="a_node15"><a xlink:href="quiz__set_8hpp.html" target="_top" xlink:title="クイズセットと統計情報の管理">
<polygon fill="white" stroke="black" points="636.33,-123.5 636.33,-142.5 714.33,-142.5 714.33,-123.5 636.33,-123.5"/>
<text text-anchor="middle" x="675.33" y="-130.5" font-family="Helvetica,sans-Serif" font-size="10.00">quiz_set.hpp</text>
</a>
</g>
</g>
<!-- Node14&#45;&gt;Node15 -->
<g id="edge17" class="edge">
<title>Node14&#45;&gt;Node15</title>
<path fill="none" stroke="midnightblue" d="M720.41,-179.08C712.55,-171.22 700.9,-159.57 691.41,-150.08"/>
<polygon fill="midnightblue" stroke="midnightblue" points="693.63,-147.35 684.08,-142.75 688.68,-152.3 693.63,-147.35"/>
</g>
<!-- Node21 -->
<g id="node21" class="node">
<title>Node21</title>
<g id="a_node21"><a xlink:title=" ">
<polygon fill="white" stroke="#bfbfbf" points="896.33,-123.5 896.33,-142.5 990.33,-142.5 990.33,-123.5 896.33,-123.5"/>
<text text-anchor="middle" x="943.33" y="-130.5" font-family="Helvetica,sans-Serif" font-size="10.00">gtkmm/paned.h</text>
</a>
</g>
</g>
<!-- Node14&#45;&gt;Node21 -->
<g id="edge27" class="edge">
<title>Node14&#45;&gt;Node21</title>
<path fill="none" stroke="midnightblue" d="M763.24,-179.44C800.18,-170.12 859.38,-155.18 899.75,-145"/>
<polygon fill="midnightblue" stroke="midnightblue" points="900.74,-148.36 909.58,-142.52 899.03,-141.57 900.74,-148.36"/>
</g>
<!-- Node22 -->
<g id="node22" class="node">
<title>Node22</title>
<g id="a_node22"><a xlink:title=" ">
<polygon fill="white" stroke="#bfbfbf" points="1008.33,-123.5 1008.33,-142.5 1118.33,-142.5 1118.33,-123.5 1008.33,-123.5"/>
<text text-anchor="middle" x="1063.33" y="-130.5" font-family="Helvetica,sans-Serif" font-size="10.00">gtkmm/notebook.h</text>
</a>
</g>
</g>
<!-- Node14&#45;&gt;Node22 -->
<g id="edge28" class="edge">
<title>Node14&#45;&gt;Node22</title>
<path fill="none" stroke="midnightblue" d="M769.98,-180.61C773.14,-180.06 776.29,-179.52 779.33,-179 854.32,-166.31 940.64,-152.79 998.24,-143.92"/>
<polygon fill="midnightblue" stroke="midnightblue" points="998.95,-147.35 1008.3,-142.37 997.88,-140.43 998.95,-147.35"/>
</g>
<!-- Node23 -->
<g id="node23" class="node">
<title>Node23</title>
<g id="a_node23"><a xlink:title=" ">
<polygon fill="white" stroke="#bfbfbf" points="770.83,-123.5 770.83,-142.5 877.83,-142.5 877.83,-123.5 770.83,-123.5"/>
<text text-anchor="middle" x="824.33" y="-130.5" font-family="Helvetica,sans-Serif" font-size="10.00">webkit2/webkit2.h</text>
</a>
</g>
</g>
<!-- Node14&#45;&gt;Node23 -->
<g id="edge30" class="edge">
<title>Node14&#45;&gt;Node23</title>
<path fill="none" stroke="midnightblue" d="M744.59,-179.32C759.55,-170.82 782.58,-157.73 800.06,-147.8"/>
<polygon fill="midnightblue" stroke="midnightblue" points="802.14,-150.64 809.1,-142.65 798.68,-144.55 802.14,-150.64"/>
</g>
<!-- Node15&#45;&gt;Node2 -->
<g id="edge18" class="edge">
<title>Node15&#45;&gt;Node2</title>
<path fill="none" stroke="midnightblue" d="M714.37,-125.15C719.07,-124.39 723.8,-123.66 728.33,-123 864.43,-103.23 1026.27,-85.24 1102.49,-77.1"/>
<polygon fill="midnightblue" stroke="midnightblue" points="1103.09,-80.55 1112.66,-76.01 1102.35,-73.59 1103.09,-80.55"/>
</g>
<!-- Node15&#45;&gt;Node7 -->
<g id="edge19" class="edge">
<title>Node15&#45;&gt;Node7</title>
<path fill="none" stroke="midnightblue" d="M636.09,-124.33C633.13,-123.84 630.18,-123.4 627.33,-123 578.14,-116.19 253.32,-88.3 122.14,-77.14"/>
<polygon fill="midnightblue" stroke="midnightblue" points="122.18,-73.63 111.92,-76.27 121.58,-80.61 122.18,-73.63"/>
</g>
<!-- Node15&#45;&gt;Node12 -->
<g id="edge23" class="edge">
<title>Node15&#45;&gt;Node12</title>
<path fill="none" stroke="midnightblue" d="M636.31,-124.61C633.27,-124.06 630.25,-123.51 627.33,-123 543.55,-108.26 446.67,-92.54 384.51,-82.63"/>
<polygon fill="midnightblue" stroke="midnightblue" points="384.89,-79.15 374.46,-81.03 383.79,-86.06 384.89,-79.15"/>
</g>
<!-- Node16 -->
<g id="node16" class="node">
<title>Node16</title>
<g id="a_node16"><a xlink:href="quiz__data_8hpp.html" target="_top" xlink:title="クイズデータ">
<polygon fill="white" stroke="black" points="467.83,-62 467.83,-81 552.83,-81 552.83,-62 467.83,-62"/>
<text text-anchor="middle" x="510.33" y="-69" font-family="Helvetica,sans-Serif" font-size="10.00">quiz_data.hpp</text>
</a>
</g>
</g>
<!-- Node15&#45;&gt;Node16 -->
<g id="edge20" class="edge">
<title>Node15&#45;&gt;Node16</title>
<path fill="none" stroke="midnightblue" d="M651.69,-123.48C623.39,-113.27 575.8,-96.11 543.74,-84.55"/>
<polygon fill="midnightblue" stroke="midnightblue" points="544.52,-81.11 533.93,-81.01 542.15,-87.69 544.52,-81.11"/>
</g>
<!-- Node18 -->
<g id="node18" class="node">
<title>Node18</title>
<g id="a_node18"><a xlink:title=" ">
<polygon fill="white" stroke="#bfbfbf" points="570.83,-56.5 570.83,-86.5 679.83,-86.5 679.83,-56.5 570.83,-56.5"/>
<text text-anchor="start" x="578.83" y="-74.5" font-family="Helvetica,sans-Serif" font-size="10.00">../library/nlohmann</text>
<text text-anchor="middle" x="625.33" y="-63.5" font-family="Helvetica,sans-Serif" font-size="10.00">/json.hpp</text>
</a>
</g>
</g>
<!-- Node15&#45;&gt;Node18 -->
<g id="edge22" class="edge">
<title>Node15&#45;&gt;Node18</title>
<path fill="none" stroke="midnightblue" d="M668.17,-123.48C661.77,-115.87 652.14,-104.4 643.62,-94.26"/>
<polygon fill="midnightblue" stroke="midnightblue" points="646.23,-91.93 637.11,-86.52 640.87,-96.43 646.23,-91.93"/>
</g>
<!-- Node19 -->
<g id="node19" class="node">
<title>Node19</title>
<g id="a_node19"><a xlink:title=" ">
<polygon fill="white" stroke="#bfbfbf" points="697.83,-62 697.83,-81 752.83,-81 752.83,-62 697.83,-62"/>
<text text-anchor="middle" x="725.33" y="-69" font-family="Helvetica,sans-Serif" font-size="10.00">fstream</text>
</a>
</g>
</g>
<!-- Node15&#45;&gt;Node19 -->
<g id="edge24" class="edge">
<title>Node15&#45;&gt;Node19</title>
<path fill="none" stroke="midnightblue" d="M682.49,-123.48C690.07,-114.46 702.2,-100.02 711.62,-88.81"/>
<polygon fill="midnightblue" stroke="midnightblue" points="714.42,-90.92 718.18,-81.01 709.07,-86.41 714.42,-90.92"/>
</g>
<!-- Node20 -->
<g id="node20" class="node">
<title>Node20</title>
<g id="a_node20"><a xlink:title=" ">
<polygon fill="white" stroke="#bfbfbf" points="771.33,-62 771.33,-81 825.33,-81 825.33,-62 771.33,-62"/>
<text text-anchor="middle" x="798.33" y="-69" font-family="Helvetica,sans-Serif" font-size="10.00">random</text>
</a>
</g>
</g>
<!-- Node15&#45;&gt;Node20 -->
<g id="edge25" class="edge">
<title>Node15&#45;&gt;Node20</title>
<path fill="none" stroke="midnightblue" d="M692.95,-123.48C713.5,-113.53 747.69,-96.99 771.54,-85.46"/>
<polygon fill="midnightblue" stroke="midnightblue" points="773.26,-88.51 780.74,-81.01 770.21,-82.21 773.26,-88.51"/>
</g>
<!-- Node17 -->
<g id="node17" class="node">
<title>Node17</title>
<g id="a_node17"><a xlink:title=" ">
<polygon fill="white" stroke="#bfbfbf" points="458.83,-0.5 458.83,-19.5 561.83,-19.5 561.83,-0.5 458.83,-0.5"/>
<text text-anchor="middle" x="510.33" y="-7.5" font-family="Helvetica,sans-Serif" font-size="10.00">glibmm/convert.h</text>
</a>
</g>
</g>
<!-- Node16&#45;&gt;Node17 -->
<g id="edge21" class="edge">
<title>Node16&#45;&gt;Node17</title>
<path fill="none" stroke="midnightblue" d="M510.33,-61.98C510.33,-53.58 510.33,-40.48 510.33,-29.66"/>
<polygon fill="midnightblue" stroke="midnightblue" points="513.83,-29.51 510.33,-19.51 506.83,-29.51 513.83,-29.51"/>
</g>
</g>
</svg>
