<?xml version="1.0" encoding="UTF-8" standalone="no"?>
<!DOCTYPE svg PUBLIC "-//W3C//DTD SVG 1.1//EN"
 "http://www.w3.org/Graphics/SVG/1.1/DTD/svg11.dtd">
<!-- Generated by graphviz version 2.43.0 (0)
 -->
<!-- Title: src/option_key.hpp Pages: 1 -->
<svg width="448pt" height="252pt"
 viewBox="0.00 0.00 447.50 252.00" xmlns="http://www.w3.org/2000/svg" xmlns:xlink="http://www.w3.org/1999/xlink">
<g id="graph0" class="graph" transform="scale(1 1) rotate(0) translate(4 248)">
<title>src/option_key.hpp</title>
<polygon fill="white" stroke="transparent" points="-4,4 -4,-248 443.5,-248 443.5,4 -4,4"/>
<!-- Node1 -->
<g id="node1" class="node">
<title>Node1</title>
<g id="a_node1"><a xlink:title="Home画面のオプションのチェックボックス識別用">
<polygon fill="#bfbfbf" stroke="black" points="163.5,-224.5 163.5,-243.5 270.5,-243.5 270.5,-224.5 163.5,-224.5"/>
<text text-anchor="middle" x="217" y="-231.5" font-family="Helvetica,sans-Serif" font-size="10.00">src/option_key.hpp</text>
</a>
</g>
</g>
<!-- Node2 -->
<g id="node2" class="node">
<title>Node2</title>
<g id="a_node2"><a xlink:href="home__box_8hpp.html" target="_top" xlink:title="home画面のルートにあたるGtk::Boxの派生クラス">
<polygon fill="white" stroke="black" points="104,-168.5 104,-187.5 210,-187.5 210,-168.5 104,-168.5"/>
<text text-anchor="middle" x="157" y="-175.5" font-family="Helvetica,sans-Serif" font-size="10.00">src/home_box.hpp</text>
</a>
</g>
</g>
<!-- Node1&#45;&gt;Node2 -->
<g id="edge1" class="edge">
<title>Node1&#45;&gt;Node2</title>
<path fill="none" stroke="midnightblue" d="M199.82,-217.54C189.12,-207.91 175.74,-195.87 166.82,-187.83"/>
<polygon fill="midnightblue" stroke="midnightblue" points="197.59,-220.24 207.36,-224.32 202.27,-215.03 197.59,-220.24"/>
</g>
<!-- Node7 -->
<g id="node7" class="node">
<title>Node7</title>
<g id="a_node7"><a xlink:href="quiz__set_8hpp.html" target="_top" xlink:title="クイズセットと統計情報の管理">
<polygon fill="white" stroke="black" points="229.5,-168.5 229.5,-187.5 324.5,-187.5 324.5,-168.5 229.5,-168.5"/>
<text text-anchor="middle" x="277" y="-175.5" font-family="Helvetica,sans-Serif" font-size="10.00">src/quiz_set.hpp</text>
</a>
</g>
</g>
<!-- Node1&#45;&gt;Node7 -->
<g id="edge6" class="edge">
<title>Node1&#45;&gt;Node7</title>
<path fill="none" stroke="midnightblue" d="M234.18,-217.54C244.88,-207.91 258.26,-195.87 267.18,-187.83"/>
<polygon fill="midnightblue" stroke="midnightblue" points="231.73,-215.03 226.64,-224.32 236.41,-220.24 231.73,-215.03"/>
</g>
<!-- Node3 -->
<g id="node3" class="node">
<title>Node3</title>
<g id="a_node3"><a xlink:href="app__window_8hpp.html" target="_top" xlink:title="rootウィンドウクラス">
<polygon fill="white" stroke="black" points="56.5,-56.5 56.5,-75.5 171.5,-75.5 171.5,-56.5 56.5,-56.5"/>
<text text-anchor="middle" x="114" y="-63.5" font-family="Helvetica,sans-Serif" font-size="10.00">src/app_window.hpp</text>
</a>
</g>
</g>
<!-- Node2&#45;&gt;Node3 -->
<g id="edge2" class="edge">
<title>Node2&#45;&gt;Node3</title>
<path fill="none" stroke="midnightblue" d="M127.9,-163.65C115.37,-156.25 102,-145.73 95,-132 85.39,-113.15 98.69,-88.67 107.43,-75.8"/>
<polygon fill="midnightblue" stroke="midnightblue" points="126.32,-166.78 136.78,-168.49 129.67,-160.63 126.32,-166.78"/>
</g>
<!-- Node6 -->
<g id="node6" class="node">
<title>Node6</title>
<g id="a_node6"><a xlink:href="home__box_8cpp.html" target="_top" xlink:title=" ">
<polygon fill="white" stroke="black" points="104.5,-112.5 104.5,-131.5 209.5,-131.5 209.5,-112.5 104.5,-112.5"/>
<text text-anchor="middle" x="157" y="-119.5" font-family="Helvetica,sans-Serif" font-size="10.00">src/home_box.cpp</text>
</a>
</g>
</g>
<!-- Node2&#45;&gt;Node6 -->
<g id="edge5" class="edge">
<title>Node2&#45;&gt;Node6</title>
<path fill="none" stroke="midnightblue" d="M157,-157.8C157,-148.91 157,-138.78 157,-131.75"/>
<polygon fill="midnightblue" stroke="midnightblue" points="153.5,-158.08 157,-168.08 160.5,-158.08 153.5,-158.08"/>
</g>
<!-- Node4 -->
<g id="node4" class="node">
<title>Node4</title>
<g id="a_node4"><a xlink:href="app__window_8cpp.html" target="_top" xlink:title=" ">
<polygon fill="white" stroke="black" points="0,-0.5 0,-19.5 114,-19.5 114,-0.5 0,-0.5"/>
<text text-anchor="middle" x="57" y="-7.5" font-family="Helvetica,sans-Serif" font-size="10.00">src/app_window.cpp</text>
</a>
</g>
</g>
<!-- Node3&#45;&gt;Node4 -->
<g id="edge3" class="edge">
<title>Node3&#45;&gt;Node4</title>
<path fill="none" stroke="midnightblue" d="M97.38,-49.25C87.27,-39.67 74.72,-27.79 66.32,-19.83"/>
<polygon fill="midnightblue" stroke="midnightblue" points="95.18,-51.99 104.84,-56.32 99.99,-46.91 95.18,-51.99"/>
</g>
<!-- Node5 -->
<g id="node5" class="node">
<title>Node5</title>
<g id="a_node5"><a xlink:href="main_8cpp.html" target="_top" xlink:title=" ">
<polygon fill="white" stroke="black" points="132.5,-0.5 132.5,-19.5 211.5,-19.5 211.5,-0.5 132.5,-0.5"/>
<text text-anchor="middle" x="172" y="-7.5" font-family="Helvetica,sans-Serif" font-size="10.00">src/main.cpp</text>
</a>
</g>
</g>
<!-- Node3&#45;&gt;Node5 -->
<g id="edge4" class="edge">
<title>Node3&#45;&gt;Node5</title>
<path fill="none" stroke="midnightblue" d="M130.91,-49.25C141.2,-39.67 153.97,-27.79 162.51,-19.83"/>
<polygon fill="midnightblue" stroke="midnightblue" points="128.25,-46.95 123.32,-56.32 133.02,-52.07 128.25,-46.95"/>
</g>
<!-- Node8 -->
<g id="node8" class="node">
<title>Node8</title>
<g id="a_node8"><a xlink:href="quiz__box_8hpp.html" target="_top" xlink:title="quiz画面のルートにあたるGtk::Boxの派生クラス">
<polygon fill="white" stroke="black" points="228,-112.5 228,-131.5 326,-131.5 326,-112.5 228,-112.5"/>
<text text-anchor="middle" x="277" y="-119.5" font-family="Helvetica,sans-Serif" font-size="10.00">src/quiz_box.hpp</text>
</a>
</g>
</g>
<!-- Node7&#45;&gt;Node8 -->
<g id="edge7" class="edge">
<title>Node7&#45;&gt;Node8</title>
<path fill="none" stroke="midnightblue" d="M277,-157.8C277,-148.91 277,-138.78 277,-131.75"/>
<polygon fill="midnightblue" stroke="midnightblue" points="273.5,-158.08 277,-168.08 280.5,-158.08 273.5,-158.08"/>
</g>
<!-- Node10 -->
<g id="node10" class="node">
<title>Node10</title>
<g id="a_node10"><a xlink:href="quiz__set_8cpp.html" target="_top" xlink:title=" ">
<polygon fill="white" stroke="black" points="344.5,-112.5 344.5,-131.5 439.5,-131.5 439.5,-112.5 344.5,-112.5"/>
<text text-anchor="middle" x="392" y="-119.5" font-family="Helvetica,sans-Serif" font-size="10.00">src/quiz_set.cpp</text>
</a>
</g>
</g>
<!-- Node7&#45;&gt;Node10 -->
<g id="edge10" class="edge">
<title>Node7&#45;&gt;Node10</title>
<path fill="none" stroke="midnightblue" d="M304.48,-164.1C325.97,-154.01 355.22,-140.27 373.86,-131.52"/>
<polygon fill="midnightblue" stroke="midnightblue" points="302.79,-161.02 295.22,-168.44 305.76,-167.36 302.79,-161.02"/>
</g>
<!-- Node8&#45;&gt;Node3 -->
<g id="edge8" class="edge">
<title>Node8&#45;&gt;Node3</title>
<path fill="none" stroke="midnightblue" d="M241.3,-109.17C210.6,-99 167.08,-84.59 139.71,-75.52"/>
<polygon fill="midnightblue" stroke="midnightblue" points="240.58,-112.62 251.17,-112.44 242.78,-105.98 240.58,-112.62"/>
</g>
<!-- Node9 -->
<g id="node9" class="node">
<title>Node9</title>
<g id="a_node9"><a xlink:href="quiz__box_8cpp.html" target="_top" xlink:title=" ">
<polygon fill="white" stroke="black" points="228,-56.5 228,-75.5 326,-75.5 326,-56.5 228,-56.5"/>
<text text-anchor="middle" x="277" y="-63.5" font-family="Helvetica,sans-Serif" font-size="10.00">src/quiz_box.cpp</text>
</a>
</g>
</g>
<!-- Node8&#45;&gt;Node9 -->
<g id="edge9" class="edge">
<title>Node8&#45;&gt;Node9</title>
<path fill="none" stroke="midnightblue" d="M277,-101.8C277,-92.91 277,-82.78 277,-75.75"/>
<polygon fill="midnightblue" stroke="midnightblue" points="273.5,-102.08 277,-112.08 280.5,-102.08 273.5,-102.08"/>
</g>
</g>
</svg>
