<?xml version="1.0" encoding="UTF-8" standalone="no"?>
<!DOCTYPE svg PUBLIC "-//W3C//DTD SVG 1.1//EN"
 "http://www.w3.org/Graphics/SVG/1.1/DTD/svg11.dtd">
<!-- Generated by graphviz version 2.43.0 (0)
 -->
<!-- Title: src/quiz_box.cpp Pages: 1 -->
<svg width="1138pt" height="263pt"
 viewBox="0.00 0.00 1138.00 263.00" xmlns="http://www.w3.org/2000/svg" xmlns:xlink="http://www.w3.org/1999/xlink">
<g id="graph0" class="graph" transform="scale(1 1) rotate(0) translate(4 259)">
<title>src/quiz_box.cpp</title>
<polygon fill="white" stroke="transparent" points="-4,4 -4,-259 1134,-259 1134,4 -4,4"/>
<!-- Node1 -->
<g id="node1" class="node">
<title>Node1</title>
<g id="a_node1"><a xlink:title=" ">
<polygon fill="#bfbfbf" stroke="black" points="597,-235.5 597,-254.5 695,-254.5 695,-235.5 597,-235.5"/>
<text text-anchor="middle" x="646" y="-242.5" font-family="Helvetica,sans-Serif" font-size="10.00">src/quiz_box.cpp</text>
</a>
</g>
</g>
<!-- Node2 -->
<g id="node2" class="node">
<title>Node2</title>
<g id="a_node2"><a xlink:href="quiz__box_8hpp.html" target="_top" xlink:title="quiz画面のルートにあたるGtk::Boxの派生クラス">
<polygon fill="white" stroke="black" points="605.5,-179.5 605.5,-198.5 686.5,-198.5 686.5,-179.5 605.5,-179.5"/>
<text text-anchor="middle" x="646" y="-186.5" font-family="Helvetica,sans-Serif" font-size="10.00">quiz_box.hpp</text>
</a>
</g>
</g>
<!-- Node1&#45;&gt;Node2 -->
<g id="edge1" class="edge">
<title>Node1&#45;&gt;Node2</title>
<path fill="none" stroke="midnightblue" d="M646,-235.08C646,-228.01 646,-217.86 646,-208.99"/>
<polygon fill="midnightblue" stroke="midnightblue" points="649.5,-208.75 646,-198.75 642.5,-208.75 649.5,-208.75"/>
</g>
<!-- Node3 -->
<g id="node3" class="node">
<title>Node3</title>
<g id="a_node3"><a xlink:href="config_8hpp.html" target="_top" xlink:title="設定値管理ファイル">
<polygon fill="white" stroke="black" points="62.5,-62 62.5,-81 129.5,-81 129.5,-62 62.5,-62"/>
<text text-anchor="middle" x="96" y="-69" font-family="Helvetica,sans-Serif" font-size="10.00">config.hpp</text>
</a>
</g>
</g>
<!-- Node2&#45;&gt;Node3 -->
<g id="edge2" class="edge">
<title>Node2&#45;&gt;Node3</title>
<path fill="none" stroke="midnightblue" d="M605.25,-185.15C540.98,-180.08 412.44,-167.65 306,-143 240.72,-127.88 167.02,-100.69 126.61,-84.86"/>
<polygon fill="midnightblue" stroke="midnightblue" points="127.66,-81.51 117.07,-81.09 125.09,-88.02 127.66,-81.51"/>
</g>
<!-- Node6 -->
<g id="node6" class="node">
<title>Node6</title>
<g id="a_node6"><a xlink:href="quiz__set_8hpp.html" target="_top" xlink:title="クイズセットと統計情報の管理">
<polygon fill="white" stroke="black" points="315,-123.5 315,-142.5 393,-142.5 393,-123.5 315,-123.5"/>
<text text-anchor="middle" x="354" y="-130.5" font-family="Helvetica,sans-Serif" font-size="10.00">quiz_set.hpp</text>
</a>
</g>
</g>
<!-- Node2&#45;&gt;Node6 -->
<g id="edge5" class="edge">
<title>Node2&#45;&gt;Node6</title>
<path fill="none" stroke="midnightblue" d="M605.41,-180.55C558.97,-172.02 480.35,-157.56 402.95,-143.17"/>
<polygon fill="midnightblue" stroke="midnightblue" points="403.5,-139.72 393.03,-141.33 402.22,-146.6 403.5,-139.72"/>
</g>
<!-- Node14 -->
<g id="node14" class="node">
<title>Node14</title>
<g id="a_node14"><a xlink:title=" ">
<polygon fill="white" stroke="#bfbfbf" points="411,-123.5 411,-142.5 521,-142.5 521,-123.5 411,-123.5"/>
<text text-anchor="middle" x="466" y="-130.5" font-family="Helvetica,sans-Serif" font-size="10.00">gtkmm/separator.h</text>
</a>
</g>
</g>
<!-- Node2&#45;&gt;Node14 -->
<g id="edge14" class="edge">
<title>Node2&#45;&gt;Node14</title>
<path fill="none" stroke="midnightblue" d="M617.48,-179.44C586.93,-170.28 538.29,-155.69 504.4,-145.52"/>
<polygon fill="midnightblue" stroke="midnightblue" points="504.97,-142.04 494.39,-142.52 502.96,-148.74 504.97,-142.04"/>
</g>
<!-- Node15 -->
<g id="node15" class="node">
<title>Node15</title>
<g id="a_node15"><a xlink:title=" ">
<polygon fill="white" stroke="#bfbfbf" points="539,-123.5 539,-142.5 633,-142.5 633,-123.5 539,-123.5"/>
<text text-anchor="middle" x="586" y="-130.5" font-family="Helvetica,sans-Serif" font-size="10.00">gtkmm/paned.h</text>
</a>
</g>
</g>
<!-- Node2&#45;&gt;Node15 -->
<g id="edge15" class="edge">
<title>Node2&#45;&gt;Node15</title>
<path fill="none" stroke="midnightblue" d="M636.36,-179.32C627.49,-171.34 614.13,-159.31 603.39,-149.65"/>
<polygon fill="midnightblue" stroke="midnightblue" points="605.59,-146.92 595.82,-142.83 600.91,-152.13 605.59,-146.92"/>
</g>
<!-- Node16 -->
<g id="node16" class="node">
<title>Node16</title>
<g id="a_node16"><a xlink:title=" ">
<polygon fill="white" stroke="#bfbfbf" points="651,-123.5 651,-142.5 761,-142.5 761,-123.5 651,-123.5"/>
<text text-anchor="middle" x="706" y="-130.5" font-family="Helvetica,sans-Serif" font-size="10.00">gtkmm/notebook.h</text>
</a>
</g>
</g>
<!-- Node2&#45;&gt;Node16 -->
<g id="edge16" class="edge">
<title>Node2&#45;&gt;Node16</title>
<path fill="none" stroke="midnightblue" d="M655.64,-179.32C664.51,-171.34 677.87,-159.31 688.61,-149.65"/>
<polygon fill="midnightblue" stroke="midnightblue" points="691.09,-152.13 696.18,-142.83 686.41,-146.92 691.09,-152.13"/>
</g>
<!-- Node17 -->
<g id="node17" class="node">
<title>Node17</title>
<g id="a_node17"><a xlink:title=" ">
<polygon fill="white" stroke="#bfbfbf" points="779.5,-123.5 779.5,-142.5 918.5,-142.5 918.5,-123.5 779.5,-123.5"/>
<text text-anchor="middle" x="849" y="-130.5" font-family="Helvetica,sans-Serif" font-size="10.00">gtkmm/scrolledwindow.h</text>
</a>
</g>
</g>
<!-- Node2&#45;&gt;Node17 -->
<g id="edge17" class="edge">
<title>Node2&#45;&gt;Node17</title>
<path fill="none" stroke="midnightblue" d="M678.17,-179.44C713.06,-170.16 768.89,-155.31 807.17,-145.13"/>
<polygon fill="midnightblue" stroke="midnightblue" points="808.22,-148.47 816.98,-142.52 806.42,-141.7 808.22,-148.47"/>
</g>
<!-- Node18 -->
<g id="node18" class="node">
<title>Node18</title>
<g id="a_node18"><a xlink:title=" ">
<polygon fill="white" stroke="#bfbfbf" points="936.5,-123.5 936.5,-142.5 1043.5,-142.5 1043.5,-123.5 936.5,-123.5"/>
<text text-anchor="middle" x="990" y="-130.5" font-family="Helvetica,sans-Serif" font-size="10.00">webkit2/webkit2.h</text>
</a>
</g>
</g>
<!-- Node2&#45;&gt;Node18 -->
<g id="edge18" class="edge">
<title>Node2&#45;&gt;Node18</title>
<path fill="none" stroke="midnightblue" d="M686.81,-181.59C746.01,-172.3 856.26,-154.99 926.24,-144.01"/>
<polygon fill="midnightblue" stroke="midnightblue" points="926.93,-147.44 936.26,-142.44 925.84,-140.53 926.93,-147.44"/>
</g>
<!-- Node19 -->
<g id="node19" class="node">
<title>Node19</title>
<g id="a_node19"><a xlink:title=" ">
<polygon fill="white" stroke="#bfbfbf" points="1062,-123.5 1062,-142.5 1130,-142.5 1130,-123.5 1062,-123.5"/>
<text text-anchor="middle" x="1096" y="-130.5" font-family="Helvetica,sans-Serif" font-size="10.00">filesystem</text>
</a>
</g>
</g>
<!-- Node2&#45;&gt;Node19 -->
<g id="edge19" class="edge">
<title>Node2&#45;&gt;Node19</title>
<path fill="none" stroke="midnightblue" d="M686.61,-184.81C758.31,-178.9 912.18,-164.96 1051.76,-143.06"/>
<polygon fill="midnightblue" stroke="midnightblue" points="1052.46,-146.49 1061.79,-141.47 1051.36,-139.58 1052.46,-146.49"/>
</g>
<!-- Node4 -->
<g id="node4" class="node">
<title>Node4</title>
<g id="a_node4"><a xlink:title=" ">
<polygon fill="white" stroke="#bfbfbf" points="0,-0.5 0,-19.5 100,-19.5 100,-0.5 0,-0.5"/>
<text text-anchor="middle" x="50" y="-7.5" font-family="Helvetica,sans-Serif" font-size="10.00">glibmm/ustring.h</text>
</a>
</g>
</g>
<!-- Node3&#45;&gt;Node4 -->
<g id="edge3" class="edge">
<title>Node3&#45;&gt;Node4</title>
<path fill="none" stroke="midnightblue" d="M89.41,-61.98C82.51,-53.05 71.5,-38.81 62.87,-27.64"/>
<polygon fill="midnightblue" stroke="midnightblue" points="65.46,-25.28 56.58,-19.51 59.93,-29.56 65.46,-25.28"/>
</g>
<!-- Node5 -->
<g id="node5" class="node">
<title>Node5</title>
<g id="a_node5"><a xlink:title=" ">
<polygon fill="white" stroke="#bfbfbf" points="118.5,-0.5 118.5,-19.5 165.5,-19.5 165.5,-0.5 118.5,-0.5"/>
<text text-anchor="middle" x="142" y="-7.5" font-family="Helvetica,sans-Serif" font-size="10.00">vector</text>
</a>
</g>
</g>
<!-- Node3&#45;&gt;Node5 -->
<g id="edge4" class="edge">
<title>Node3&#45;&gt;Node5</title>
<path fill="none" stroke="midnightblue" d="M102.59,-61.98C109.49,-53.05 120.5,-38.81 129.13,-27.64"/>
<polygon fill="midnightblue" stroke="midnightblue" points="132.07,-29.56 135.42,-19.51 126.54,-25.28 132.07,-29.56"/>
</g>
<!-- Node6&#45;&gt;Node3 -->
<g id="edge6" class="edge">
<title>Node6&#45;&gt;Node3</title>
<path fill="none" stroke="midnightblue" d="M314.83,-125.25C271.48,-117.44 199.71,-103.53 139,-87 135.98,-86.18 132.86,-85.26 129.75,-84.3"/>
<polygon fill="midnightblue" stroke="midnightblue" points="130.54,-80.88 119.95,-81.14 128.39,-87.54 130.54,-80.88"/>
</g>
<!-- Node7 -->
<g id="node7" class="node">
<title>Node7</title>
<g id="a_node7"><a xlink:href="option__key_8hpp.html" target="_top" xlink:title="Home画面のオプションのチェックボックス識別用">
<polygon fill="white" stroke="black" points="147.5,-62 147.5,-81 236.5,-81 236.5,-62 147.5,-62"/>
<text text-anchor="middle" x="192" y="-69" font-family="Helvetica,sans-Serif" font-size="10.00">option_key.hpp</text>
</a>
</g>
</g>
<!-- Node6&#45;&gt;Node7 -->
<g id="edge7" class="edge">
<title>Node6&#45;&gt;Node7</title>
<path fill="none" stroke="midnightblue" d="M330.79,-123.48C303,-113.27 256.28,-96.11 224.81,-84.55"/>
<polygon fill="midnightblue" stroke="midnightblue" points="225.76,-81.17 215.17,-81.01 223.35,-87.74 225.76,-81.17"/>
</g>
<!-- Node8 -->
<g id="node8" class="node">
<title>Node8</title>
<g id="a_node8"><a xlink:href="quiz__data_8hpp.html" target="_top" xlink:title="クイズデータ">
<polygon fill="white" stroke="black" points="254.5,-62 254.5,-81 339.5,-81 339.5,-62 254.5,-62"/>
<text text-anchor="middle" x="297" y="-69" font-family="Helvetica,sans-Serif" font-size="10.00">quiz_data.hpp</text>
</a>
</g>
</g>
<!-- Node6&#45;&gt;Node8 -->
<g id="edge8" class="edge">
<title>Node6&#45;&gt;Node8</title>
<path fill="none" stroke="midnightblue" d="M345.83,-123.48C337.11,-114.37 323.1,-99.74 312.31,-88.48"/>
<polygon fill="midnightblue" stroke="midnightblue" points="314.6,-85.81 305.15,-81.01 309.54,-90.65 314.6,-85.81"/>
</g>
<!-- Node10 -->
<g id="node10" class="node">
<title>Node10</title>
<g id="a_node10"><a xlink:title=" ">
<polygon fill="white" stroke="#bfbfbf" points="357.5,-56.5 357.5,-86.5 466.5,-86.5 466.5,-56.5 357.5,-56.5"/>
<text text-anchor="start" x="365.5" y="-74.5" font-family="Helvetica,sans-Serif" font-size="10.00">../library/nlohmann</text>
<text text-anchor="middle" x="412" y="-63.5" font-family="Helvetica,sans-Serif" font-size="10.00">/json.hpp</text>
</a>
</g>
</g>
<!-- Node6&#45;&gt;Node10 -->
<g id="edge10" class="edge">
<title>Node6&#45;&gt;Node10</title>
<path fill="none" stroke="midnightblue" d="M362.31,-123.48C369.8,-115.79 381.13,-104.17 391.08,-93.96"/>
<polygon fill="midnightblue" stroke="midnightblue" points="393.86,-96.13 398.33,-86.52 388.84,-91.24 393.86,-96.13"/>
</g>
<!-- Node11 -->
<g id="node11" class="node">
<title>Node11</title>
<g id="a_node11"><a xlink:title=" ">
<polygon fill="white" stroke="#bfbfbf" points="485,-62 485,-81 623,-81 623,-62 485,-62"/>
<text text-anchor="middle" x="554" y="-69" font-family="Helvetica,sans-Serif" font-size="10.00">gtkmm/messagedialog.h</text>
</a>
</g>
</g>
<!-- Node6&#45;&gt;Node11 -->
<g id="edge11" class="edge">
<title>Node6&#45;&gt;Node11</title>
<path fill="none" stroke="midnightblue" d="M382.66,-123.48C417.56,-113.09 476.65,-95.51 515.5,-83.95"/>
<polygon fill="midnightblue" stroke="midnightblue" points="516.81,-87.22 525.4,-81.01 514.82,-80.51 516.81,-87.22"/>
</g>
<!-- Node12 -->
<g id="node12" class="node">
<title>Node12</title>
<g id="a_node12"><a xlink:title=" ">
<polygon fill="white" stroke="#bfbfbf" points="641.5,-62 641.5,-81 696.5,-81 696.5,-62 641.5,-62"/>
<text text-anchor="middle" x="669" y="-69" font-family="Helvetica,sans-Serif" font-size="10.00">fstream</text>
</a>
</g>
</g>
<!-- Node6&#45;&gt;Node12 -->
<g id="edge12" class="edge">
<title>Node6&#45;&gt;Node12</title>
<path fill="none" stroke="midnightblue" d="M393.02,-124.58C396.05,-124.04 399.08,-123.5 402,-123 503.97,-105.46 532.13,-114.04 632,-87 634.6,-86.3 637.26,-85.47 639.91,-84.58"/>
<polygon fill="midnightblue" stroke="midnightblue" points="641.11,-87.87 649.3,-81.14 638.7,-81.29 641.11,-87.87"/>
</g>
<!-- Node13 -->
<g id="node13" class="node">
<title>Node13</title>
<g id="a_node13"><a xlink:title=" ">
<polygon fill="white" stroke="#bfbfbf" points="715,-62 715,-81 769,-81 769,-62 715,-62"/>
<text text-anchor="middle" x="742" y="-69" font-family="Helvetica,sans-Serif" font-size="10.00">random</text>
</a>
</g>
</g>
<!-- Node6&#45;&gt;Node13 -->
<g id="edge13" class="edge">
<title>Node6&#45;&gt;Node13</title>
<path fill="none" stroke="midnightblue" d="M393.26,-124.42C396.21,-123.91 399.15,-123.44 402,-123 536.49,-102.45 574.19,-120.71 706,-87 708.51,-86.36 711.08,-85.58 713.64,-84.72"/>
<polygon fill="midnightblue" stroke="midnightblue" points="715.11,-87.91 723.26,-81.14 712.67,-81.35 715.11,-87.91"/>
</g>
<!-- Node9 -->
<g id="node9" class="node">
<title>Node9</title>
<g id="a_node9"><a xlink:title=" ">
<polygon fill="white" stroke="#bfbfbf" points="245.5,-0.5 245.5,-19.5 348.5,-19.5 348.5,-0.5 245.5,-0.5"/>
<text text-anchor="middle" x="297" y="-7.5" font-family="Helvetica,sans-Serif" font-size="10.00">glibmm/convert.h</text>
</a>
</g>
</g>
<!-- Node8&#45;&gt;Node9 -->
<g id="edge9" class="edge">
<title>Node8&#45;&gt;Node9</title>
<path fill="none" stroke="midnightblue" d="M297,-61.98C297,-53.58 297,-40.48 297,-29.66"/>
<polygon fill="midnightblue" stroke="midnightblue" points="300.5,-29.51 297,-19.51 293.5,-29.51 300.5,-29.51"/>
</g>
</g>
</svg>
