<?xml version="1.0" encoding="UTF-8" standalone="no"?>
<!DOCTYPE svg PUBLIC "-//W3C//DTD SVG 1.1//EN"
 "http://www.w3.org/Graphics/SVG/1.1/DTD/svg11.dtd">
<!-- Generated by graphviz version 2.43.0 (0)
 -->
<!-- Title: src/quiz_data.hpp Pages: 1 -->
<svg width="347pt" height="252pt"
 viewBox="0.00 0.00 346.50 252.00" xmlns="http://www.w3.org/2000/svg" xmlns:xlink="http://www.w3.org/1999/xlink">
<g id="graph0" class="graph" transform="scale(1 1) rotate(0) translate(4 248)">
<title>src/quiz_data.hpp</title>
<polygon fill="white" stroke="transparent" points="-4,4 -4,-248 342.5,-248 342.5,4 -4,4"/>
<!-- Node1 -->
<g id="node1" class="node">
<title>Node1</title>
<g id="a_node1"><a xlink:title="クイズデータ">
<polygon fill="#bfbfbf" stroke="black" points="182,-224.5 182,-243.5 284,-243.5 284,-224.5 182,-224.5"/>
<text text-anchor="middle" x="233" y="-231.5" font-family="Helvetica,sans-Serif" font-size="10.00">src/quiz_data.hpp</text>
</a>
</g>
</g>
<!-- Node2 -->
<g id="node2" class="node">
<title>Node2</title>
<g id="a_node2"><a xlink:href="quiz__set_8hpp.html" target="_top" xlink:title="クイズセットと統計情報の管理">
<polygon fill="white" stroke="black" points="185.5,-168.5 185.5,-187.5 280.5,-187.5 280.5,-168.5 185.5,-168.5"/>
<text text-anchor="middle" x="233" y="-175.5" font-family="Helvetica,sans-Serif" font-size="10.00">src/quiz_set.hpp</text>
</a>
</g>
</g>
<!-- Node1&#45;&gt;Node2 -->
<g id="edge1" class="edge">
<title>Node1&#45;&gt;Node2</title>
<path fill="none" stroke="midnightblue" d="M233,-213.8C233,-204.91 233,-194.78 233,-187.75"/>
<polygon fill="midnightblue" stroke="midnightblue" points="229.5,-214.08 233,-224.08 236.5,-214.08 229.5,-214.08"/>
</g>
<!-- Node3 -->
<g id="node3" class="node">
<title>Node3</title>
<g id="a_node3"><a xlink:href="quiz__box_8hpp.html" target="_top" xlink:title="quiz画面のルートにあたるGtk::Boxの派生クラス">
<polygon fill="white" stroke="black" points="127,-112.5 127,-131.5 225,-131.5 225,-112.5 127,-112.5"/>
<text text-anchor="middle" x="176" y="-119.5" font-family="Helvetica,sans-Serif" font-size="10.00">src/quiz_box.hpp</text>
</a>
</g>
</g>
<!-- Node2&#45;&gt;Node3 -->
<g id="edge2" class="edge">
<title>Node2&#45;&gt;Node3</title>
<path fill="none" stroke="midnightblue" d="M216.38,-161.25C206.27,-151.67 193.72,-139.79 185.32,-131.83"/>
<polygon fill="midnightblue" stroke="midnightblue" points="214.18,-163.99 223.84,-168.32 218.99,-158.91 214.18,-163.99"/>
</g>
<!-- Node8 -->
<g id="node8" class="node">
<title>Node8</title>
<g id="a_node8"><a xlink:href="quiz__set_8cpp.html" target="_top" xlink:title=" ">
<polygon fill="white" stroke="black" points="243.5,-112.5 243.5,-131.5 338.5,-131.5 338.5,-112.5 243.5,-112.5"/>
<text text-anchor="middle" x="291" y="-119.5" font-family="Helvetica,sans-Serif" font-size="10.00">src/quiz_set.cpp</text>
</a>
</g>
</g>
<!-- Node2&#45;&gt;Node8 -->
<g id="edge7" class="edge">
<title>Node2&#45;&gt;Node8</title>
<path fill="none" stroke="midnightblue" d="M249.91,-161.25C260.2,-151.67 272.97,-139.79 281.51,-131.83"/>
<polygon fill="midnightblue" stroke="midnightblue" points="247.25,-158.95 242.32,-168.32 252.02,-164.07 247.25,-158.95"/>
</g>
<!-- Node4 -->
<g id="node4" class="node">
<title>Node4</title>
<g id="a_node4"><a xlink:href="app__window_8hpp.html" target="_top" xlink:title="rootウィンドウクラス">
<polygon fill="white" stroke="black" points="56.5,-56.5 56.5,-75.5 171.5,-75.5 171.5,-56.5 56.5,-56.5"/>
<text text-anchor="middle" x="114" y="-63.5" font-family="Helvetica,sans-Serif" font-size="10.00">src/app_window.hpp</text>
</a>
</g>
</g>
<!-- Node3&#45;&gt;Node4 -->
<g id="edge3" class="edge">
<title>Node3&#45;&gt;Node4</title>
<path fill="none" stroke="midnightblue" d="M158.25,-105.54C147.19,-95.91 133.37,-83.87 124.14,-75.83"/>
<polygon fill="midnightblue" stroke="midnightblue" points="156.2,-108.4 166.04,-112.32 160.8,-103.12 156.2,-108.4"/>
</g>
<!-- Node7 -->
<g id="node7" class="node">
<title>Node7</title>
<g id="a_node7"><a xlink:href="quiz__box_8cpp.html" target="_top" xlink:title=" ">
<polygon fill="white" stroke="black" points="190,-56.5 190,-75.5 288,-75.5 288,-56.5 190,-56.5"/>
<text text-anchor="middle" x="239" y="-63.5" font-family="Helvetica,sans-Serif" font-size="10.00">src/quiz_box.cpp</text>
</a>
</g>
</g>
<!-- Node3&#45;&gt;Node7 -->
<g id="edge6" class="edge">
<title>Node3&#45;&gt;Node7</title>
<path fill="none" stroke="midnightblue" d="M194.04,-105.54C205.27,-95.91 219.32,-83.87 228.69,-75.83"/>
<polygon fill="midnightblue" stroke="midnightblue" points="191.44,-103.16 186.12,-112.32 195.99,-108.47 191.44,-103.16"/>
</g>
<!-- Node5 -->
<g id="node5" class="node">
<title>Node5</title>
<g id="a_node5"><a xlink:href="app__window_8cpp.html" target="_top" xlink:title=" ">
<polygon fill="white" stroke="black" points="0,-0.5 0,-19.5 114,-19.5 114,-0.5 0,-0.5"/>
<text text-anchor="middle" x="57" y="-7.5" font-family="Helvetica,sans-Serif" font-size="10.00">src/app_window.cpp</text>
</a>
</g>
</g>
<!-- Node4&#45;&gt;Node5 -->
<g id="edge4" class="edge">
<title>Node4&#45;&gt;Node5</title>
<path fill="none" stroke="midnightblue" d="M97.38,-49.25C87.27,-39.67 74.72,-27.79 66.32,-19.83"/>
<polygon fill="midnightblue" stroke="midnightblue" points="95.18,-51.99 104.84,-56.32 99.99,-46.91 95.18,-51.99"/>
</g>
<!-- Node6 -->
<g id="node6" class="node">
<title>Node6</title>
<g id="a_node6"><a xlink:href="main_8cpp.html" target="_top" xlink:title=" ">
<polygon fill="white" stroke="black" points="132.5,-0.5 132.5,-19.5 211.5,-19.5 211.5,-0.5 132.5,-0.5"/>
<text text-anchor="middle" x="172" y="-7.5" font-family="Helvetica,sans-Serif" font-size="10.00">src/main.cpp</text>
</a>
</g>
</g>
<!-- Node4&#45;&gt;Node6 -->
<g id="edge5" class="edge">
<title>Node4&#45;&gt;Node6</title>
<path fill="none" stroke="midnightblue" d="M130.91,-49.25C141.2,-39.67 153.97,-27.79 162.51,-19.83"/>
<polygon fill="midnightblue" stroke="midnightblue" points="128.25,-46.95 123.32,-56.32 133.02,-52.07 128.25,-46.95"/>
</g>
</g>
</svg>
