<?xml version="1.0" encoding="UTF-8" standalone="no"?>
<!DOCTYPE svg PUBLIC "-//W3C//DTD SVG 1.1//EN"
 "http://www.w3.org/Graphics/SVG/1.1/DTD/svg11.dtd">
<!-- Generated by graphviz version 2.43.0 (0)
 -->
<!-- Title: src/quiz_set.cpp Pages: 1 -->
<svg width="777pt" height="207pt"
 viewBox="0.00 0.00 777.00 207.00" xmlns="http://www.w3.org/2000/svg" xmlns:xlink="http://www.w3.org/1999/xlink">
<g id="graph0" class="graph" transform="scale(1 1) rotate(0) translate(4 203)">
<title>src/quiz_set.cpp</title>
<polygon fill="white" stroke="transparent" points="-4,4 -4,-203 773,-203 773,4 -4,4"/>
<!-- Node1 -->
<g id="node1" class="node">
<title>Node1</title>
<g id="a_node1"><a xlink:title=" ">
<polygon fill="#bfbfbf" stroke="black" points="364.5,-179.5 364.5,-198.5 459.5,-198.5 459.5,-179.5 364.5,-179.5"/>
<text text-anchor="middle" x="412" y="-186.5" font-family="Helvetica,sans-Serif" font-size="10.00">src/quiz_set.cpp</text>
</a>
</g>
</g>
<!-- Node2 -->
<g id="node2" class="node">
<title>Node2</title>
<g id="a_node2"><a xlink:href="quiz__set_8hpp.html" target="_top" xlink:title="クイズセットと統計情報の管理">
<polygon fill="white" stroke="black" points="373,-123.5 373,-142.5 451,-142.5 451,-123.5 373,-123.5"/>
<text text-anchor="middle" x="412" y="-130.5" font-family="Helvetica,sans-Serif" font-size="10.00">quiz_set.hpp</text>
</a>
</g>
</g>
<!-- Node1&#45;&gt;Node2 -->
<g id="edge1" class="edge">
<title>Node1&#45;&gt;Node2</title>
<path fill="none" stroke="midnightblue" d="M412,-179.08C412,-172.01 412,-161.86 412,-152.99"/>
<polygon fill="midnightblue" stroke="midnightblue" points="415.5,-152.75 412,-142.75 408.5,-152.75 415.5,-152.75"/>
</g>
<!-- Node3 -->
<g id="node3" class="node">
<title>Node3</title>
<g id="a_node3"><a xlink:href="config_8hpp.html" target="_top" xlink:title="設定値管理ファイル">
<polygon fill="white" stroke="black" points="62.5,-62 62.5,-81 129.5,-81 129.5,-62 62.5,-62"/>
<text text-anchor="middle" x="96" y="-69" font-family="Helvetica,sans-Serif" font-size="10.00">config.hpp</text>
</a>
</g>
</g>
<!-- Node2&#45;&gt;Node3 -->
<g id="edge2" class="edge">
<title>Node2&#45;&gt;Node3</title>
<path fill="none" stroke="midnightblue" d="M372.71,-127.55C319.31,-121.05 221.03,-107.45 139,-87 135.61,-86.15 132.1,-85.17 128.62,-84.11"/>
<polygon fill="midnightblue" stroke="midnightblue" points="129.6,-80.75 119.01,-81.02 127.46,-87.41 129.6,-80.75"/>
</g>
<!-- Node6 -->
<g id="node6" class="node">
<title>Node6</title>
<g id="a_node6"><a xlink:href="option__key_8hpp.html" target="_top" xlink:title="Home画面のオプションのチェックボックス識別用">
<polygon fill="white" stroke="black" points="147.5,-62 147.5,-81 236.5,-81 236.5,-62 147.5,-62"/>
<text text-anchor="middle" x="192" y="-69" font-family="Helvetica,sans-Serif" font-size="10.00">option_key.hpp</text>
</a>
</g>
</g>
<!-- Node2&#45;&gt;Node6 -->
<g id="edge5" class="edge">
<title>Node2&#45;&gt;Node6</title>
<path fill="none" stroke="midnightblue" d="M380.48,-123.48C341.76,-113 275.98,-95.21 233.26,-83.66"/>
<polygon fill="midnightblue" stroke="midnightblue" points="234.03,-80.24 223.46,-81.01 232.2,-87 234.03,-80.24"/>
</g>
<!-- Node7 -->
<g id="node7" class="node">
<title>Node7</title>
<g id="a_node7"><a xlink:href="quiz__data_8hpp.html" target="_top" xlink:title="クイズデータ">
<polygon fill="white" stroke="black" points="254.5,-62 254.5,-81 339.5,-81 339.5,-62 254.5,-62"/>
<text text-anchor="middle" x="297" y="-69" font-family="Helvetica,sans-Serif" font-size="10.00">quiz_data.hpp</text>
</a>
</g>
</g>
<!-- Node2&#45;&gt;Node7 -->
<g id="edge6" class="edge">
<title>Node2&#45;&gt;Node7</title>
<path fill="none" stroke="midnightblue" d="M395.52,-123.48C376.39,-113.58 344.63,-97.14 322.35,-85.62"/>
<polygon fill="midnightblue" stroke="midnightblue" points="323.94,-82.5 313.45,-81.01 320.72,-88.71 323.94,-82.5"/>
</g>
<!-- Node9 -->
<g id="node9" class="node">
<title>Node9</title>
<g id="a_node9"><a xlink:title=" ">
<polygon fill="white" stroke="#bfbfbf" points="357.5,-56.5 357.5,-86.5 466.5,-86.5 466.5,-56.5 357.5,-56.5"/>
<text text-anchor="start" x="365.5" y="-74.5" font-family="Helvetica,sans-Serif" font-size="10.00">../library/nlohmann</text>
<text text-anchor="middle" x="412" y="-63.5" font-family="Helvetica,sans-Serif" font-size="10.00">/json.hpp</text>
</a>
</g>
</g>
<!-- Node2&#45;&gt;Node9 -->
<g id="edge8" class="edge">
<title>Node2&#45;&gt;Node9</title>
<path fill="none" stroke="midnightblue" d="M412,-123.48C412,-116.47 412,-106.19 412,-96.7"/>
<polygon fill="midnightblue" stroke="midnightblue" points="415.5,-96.52 412,-86.52 408.5,-96.52 415.5,-96.52"/>
</g>
<!-- Node10 -->
<g id="node10" class="node">
<title>Node10</title>
<g id="a_node10"><a xlink:title=" ">
<polygon fill="white" stroke="#bfbfbf" points="485,-62 485,-81 623,-81 623,-62 485,-62"/>
<text text-anchor="middle" x="554" y="-69" font-family="Helvetica,sans-Serif" font-size="10.00">gtkmm/messagedialog.h</text>
</a>
</g>
</g>
<!-- Node2&#45;&gt;Node10 -->
<g id="edge9" class="edge">
<title>Node2&#45;&gt;Node10</title>
<path fill="none" stroke="midnightblue" d="M432.35,-123.48C456.39,-113.4 496.6,-96.55 524.16,-85"/>
<polygon fill="midnightblue" stroke="midnightblue" points="525.82,-88.1 533.69,-81.01 523.12,-81.65 525.82,-88.1"/>
</g>
<!-- Node11 -->
<g id="node11" class="node">
<title>Node11</title>
<g id="a_node11"><a xlink:title=" ">
<polygon fill="white" stroke="#bfbfbf" points="641.5,-62 641.5,-81 696.5,-81 696.5,-62 641.5,-62"/>
<text text-anchor="middle" x="669" y="-69" font-family="Helvetica,sans-Serif" font-size="10.00">fstream</text>
</a>
</g>
</g>
<!-- Node2&#45;&gt;Node11 -->
<g id="edge10" class="edge">
<title>Node2&#45;&gt;Node11</title>
<path fill="none" stroke="midnightblue" d="M451.04,-126.1C495.42,-118.91 569.76,-105.41 632,-87 634.43,-86.28 636.93,-85.47 639.42,-84.61"/>
<polygon fill="midnightblue" stroke="midnightblue" points="640.7,-87.87 648.86,-81.11 638.27,-81.3 640.7,-87.87"/>
</g>
<!-- Node12 -->
<g id="node12" class="node">
<title>Node12</title>
<g id="a_node12"><a xlink:title=" ">
<polygon fill="white" stroke="#bfbfbf" points="715,-62 715,-81 769,-81 769,-62 715,-62"/>
<text text-anchor="middle" x="742" y="-69" font-family="Helvetica,sans-Serif" font-size="10.00">random</text>
</a>
</g>
</g>
<!-- Node2&#45;&gt;Node12 -->
<g id="edge11" class="edge">
<title>Node2&#45;&gt;Node12</title>
<path fill="none" stroke="midnightblue" d="M451.12,-128.91C508.03,-123.76 616.61,-111.49 706,-87 708.5,-86.31 711.07,-85.51 713.62,-84.63"/>
<polygon fill="midnightblue" stroke="midnightblue" points="715.1,-87.81 723.23,-81.01 712.63,-81.26 715.1,-87.81"/>
</g>
<!-- Node4 -->
<g id="node4" class="node">
<title>Node4</title>
<g id="a_node4"><a xlink:title=" ">
<polygon fill="white" stroke="#bfbfbf" points="0,-0.5 0,-19.5 100,-19.5 100,-0.5 0,-0.5"/>
<text text-anchor="middle" x="50" y="-7.5" font-family="Helvetica,sans-Serif" font-size="10.00">glibmm/ustring.h</text>
</a>
</g>
</g>
<!-- Node3&#45;&gt;Node4 -->
<g id="edge3" class="edge">
<title>Node3&#45;&gt;Node4</title>
<path fill="none" stroke="midnightblue" d="M89.41,-61.98C82.51,-53.05 71.5,-38.81 62.87,-27.64"/>
<polygon fill="midnightblue" stroke="midnightblue" points="65.46,-25.28 56.58,-19.51 59.93,-29.56 65.46,-25.28"/>
</g>
<!-- Node5 -->
<g id="node5" class="node">
<title>Node5</title>
<g id="a_node5"><a xlink:title=" ">
<polygon fill="white" stroke="#bfbfbf" points="118.5,-0.5 118.5,-19.5 165.5,-19.5 165.5,-0.5 118.5,-0.5"/>
<text text-anchor="middle" x="142" y="-7.5" font-family="Helvetica,sans-Serif" font-size="10.00">vector</text>
</a>
</g>
</g>
<!-- Node3&#45;&gt;Node5 -->
<g id="edge4" class="edge">
<title>Node3&#45;&gt;Node5</title>
<path fill="none" stroke="midnightblue" d="M102.59,-61.98C109.49,-53.05 120.5,-38.81 129.13,-27.64"/>
<polygon fill="midnightblue" stroke="midnightblue" points="132.07,-29.56 135.42,-19.51 126.54,-25.28 132.07,-29.56"/>
</g>
<!-- Node8 -->
<g id="node8" class="node">
<title>Node8</title>
<g id="a_node8"><a xlink:title=" ">
<polygon fill="white" stroke="#bfbfbf" points="245.5,-0.5 245.5,-19.5 348.5,-19.5 348.5,-0.5 245.5,-0.5"/>
<text text-anchor="middle" x="297" y="-7.5" font-family="Helvetica,sans-Serif" font-size="10.00">glibmm/convert.h</text>
</a>
</g>
</g>
<!-- Node7&#45;&gt;Node8 -->
<g id="edge7" class="edge">
<title>Node7&#45;&gt;Node8</title>
<path fill="none" stroke="midnightblue" d="M297,-61.98C297,-53.58 297,-40.48 297,-29.66"/>
<polygon fill="midnightblue" stroke="midnightblue" points="300.5,-29.51 297,-19.51 293.5,-29.51 300.5,-29.51"/>
</g>
</g>
</svg>
